<svg xmlns="http://www.w3.org/2000/svg" viewBox="0 0 200 191" width="200" height="191">
	<style>
		tspan { white-space:pre }
		.shp0 { fill: #f6bc25 } 
		.shp1 { fill: #1a1919 } 
	</style>
	<g >
		<path class="shp0" d="M22.27 0.53C22.22 0.82 19.78 21.72 16.84 46.98C13.9 72.24 8.92 114.97 5.79 141.95L0.08 191L62.35 191C62.35 190.06 62.78 181.6 63.31 171.61C63.84 161.61 64.58 147.32 64.97 139.86C65.35 132.39 65.69 126.29 65.71 126.31C65.74 126.32 67.61 137.8 69.87 151.81C72.13 165.82 74.48 180.37 75.09 184.14L76.19 191L125.1 191C130.8 162.01 133.83 146.6 135.5 138.06C137.17 129.51 138.58 122.52 138.62 122.52C138.67 122.52 138.91 131.15 139.15 141.71C139.4 152.26 139.75 167.29 139.93 175.1C140.11 182.91 140.29 189.68 140.33 190.15L140.4 191L200 191C199.87 190.06 199.28 184.05 198.62 177.04C197.95 170.04 193.87 127.72 189.55 83C185.24 38.29 181.67 1.32 181.62 0.85L181.54 0C125.24 0 113.85 0.05 113.85 0.16C113.85 0.25 111.48 13.05 108.6 28.6C105.71 44.15 103.1 58.18 102.81 59.76C102.51 61.35 102.23 62.64 102.19 62.64C102.14 62.64 99.82 48.96 97.03 32.25C94.24 15.54 91.89 1.45 91.81 0.93L91.66 0L22.36 0L22.27 0.53Z" />
		<path class="shp1" d="M26.66 5.56C26.6 5.94 26.09 10.3 25.51 15.25C24.94 20.21 24.32 25.61 24.13 27.26C23.94 28.91 23.85 30.31 23.92 30.37C23.99 30.42 24.67 30.67 25.43 30.91C26.18 31.16 27.57 31.67 28.5 32.05C29.44 32.43 31.15 33.21 32.31 33.8C33.47 34.38 35.11 35.31 35.95 35.87C36.8 36.43 38.15 37.41 38.95 38.05C39.75 38.7 40.87 39.73 41.43 40.34C42 40.96 42.78 41.9 43.18 42.44C43.57 42.97 43.86 43.43 43.81 43.45C43.76 43.47 43.23 43.17 42.63 42.78C42.03 42.38 40.85 41.69 40 41.24C39.15 40.79 37.7 40.1 36.76 39.71C35.83 39.31 34.11 38.68 32.96 38.31C31.8 37.93 29.68 37.34 28.26 37C26.83 36.66 25.14 36.28 24.5 36.16C23.86 36.04 23.28 36.01 23.21 36.08C23.14 36.16 22.84 38.2 22.56 40.62C22.27 43.05 22.05 45.05 22.07 45.06C22.09 45.08 23.38 45.36 24.94 45.68C26.68 46.05 29.08 46.71 31.17 47.4C33.47 48.17 35.33 48.91 36.92 49.7C38.21 50.35 39.82 51.23 40.49 51.67C41.15 52.1 42.31 52.94 43.05 53.53C43.79 54.12 44.34 54.63 44.27 54.66C44.19 54.68 43.62 54.56 43 54.38C42.37 54.2 41.39 53.95 40.81 53.82C40.23 53.68 38.7 53.39 37.41 53.17C36.12 52.94 34.33 52.69 33.44 52.59C32.55 52.5 30.77 52.35 29.47 52.26C28.18 52.18 25.8 52.07 24.17 52.02C22.25 51.96 21.21 51.99 21.21 52.09C21.21 52.18 21.03 53.88 20.8 55.86C20.58 57.85 20.44 59.51 20.5 59.56C20.55 59.6 21.88 59.72 23.46 59.83C25.03 59.94 27.26 60.14 28.42 60.28C29.58 60.42 31.33 60.69 32.31 60.87C33.29 61.05 34.89 61.42 35.87 61.69C36.85 61.96 38.31 62.43 39.11 62.74C39.91 63.05 40.68 63.42 40.81 63.56C41.03 63.79 40.98 63.8 40.24 63.72C39.8 63.66 38.09 63.5 36.44 63.35C34.25 63.15 31.63 63.07 26.77 63.06C23.11 63.05 20.07 63.08 20.03 63.13C19.99 63.17 18.85 72.66 17.5 84.22C16.15 95.78 12.94 123.36 10.36 145.52C7.78 167.68 5.67 185.88 5.67 185.97C5.67 186.08 14.44 186.13 31.66 186.13L57.65 186.13C57.65 185.57 58.63 166.93 59.83 144.35C61.22 118.24 62.13 99.63 62.34 93.23C62.53 87.69 62.75 81.05 62.84 78.46C62.92 75.87 62.99 73.26 63 72.66C63 72.06 63.05 71.56 63.12 71.56C63.18 71.56 63.45 73.7 63.7 76.31C63.95 78.92 64.66 85.07 65.28 89.98C65.89 94.89 66.59 100.19 66.81 101.75C67.04 103.31 68.21 110.65 69.41 118.06C70.61 125.46 73.56 143.61 75.96 158.38C78.36 173.15 80.36 185.44 80.41 185.69L80.49 186.13L121.05 186.13C124.51 168.59 127.3 154.48 129.47 143.45C131.64 132.43 134.33 118.77 135.45 113.11C136.56 107.44 137.69 101.56 137.96 100.04C138.24 98.53 138.72 95.5 139.03 93.31C139.34 91.12 139.85 87.14 140.16 84.47C140.46 81.79 140.9 77.63 141.13 75.22C141.37 72.81 141.58 70.76 141.62 70.67C141.65 70.58 141.68 70.76 141.69 71.08C141.7 71.39 141.89 75.63 142.11 80.49C142.34 85.35 142.66 92.14 142.83 95.58C143 99.02 143.58 120.05 144.12 142.32C144.66 164.59 145.14 183.55 145.18 184.47L145.26 186.13L194.49 186.13C194.49 185.44 191.91 158.51 188.75 125.85C185.59 93.18 181.69 52.83 180.08 36.19C178.48 19.54 177.13 5.69 177.08 5.4L177 4.87C119.6 4.87 118.05 4.88 117.98 5.15C117.94 5.31 117.36 8.39 116.69 12.01C116.03 15.62 113.33 30.19 110.71 44.38C108.08 58.57 105.64 71.83 105.28 73.84C104.92 75.84 104.37 79.24 104.06 81.38C103.74 83.52 103.27 87.07 103.01 89.25C102.74 91.44 102.37 94.87 102.19 96.88C102 98.89 101.83 100.64 101.8 100.77C101.78 100.91 101.71 100.76 101.65 100.45C101.6 100.14 101.43 98.42 101.29 96.64C101.15 94.85 100.78 90.87 100.47 87.79C100.16 84.71 99.65 80.22 99.34 77.81C99.03 75.4 98.56 71.97 98.29 70.18C98.02 68.4 95.51 53.17 92.71 36.35C89.9 19.53 87.57 5.56 87.53 5.31L87.45 4.87L26.75 4.87L26.66 5.56Z" />
	</g>
</svg>