<svg xmlns="http://www.w3.org/2000/svg" viewBox="0 0 189 200" width="189" height="200">
	<style>
		tspan { white-space:pre }
		.shp0 { fill: #ffb718 } 
		.shp1 { fill: #0d223f } 
		.shp2 { fill: #3d8dde } 
		.shp3 { fill: #ffffff } 
	</style>
	<g >
		<path class="shp0" d="M70.52 0.31C68.71 0.48 66.16 0.8 64.84 1.03C63.52 1.26 61.29 1.73 59.88 2.08C58.47 2.42 55.96 3.14 54.29 3.68C52.61 4.21 50.42 4.98 49.41 5.38C48.4 5.79 46.27 6.73 44.69 7.48C43.11 8.23 40.88 9.38 39.73 10.04C38.59 10.7 37.4 11.4 37.1 11.61C36.79 11.82 36.46 11.99 36.38 11.98C36.29 11.98 35.86 11.55 35.42 11.02C34.98 10.5 34.35 9.62 34.01 9.07C33.68 8.52 33.27 7.7 33.09 7.23C32.92 6.77 32.66 5.73 32.52 4.92C32.34 3.86 32.29 2.99 32.36 1.88C32.42 1.02 32.4 0.28 32.33 0.23C32.26 0.18 31.79 0.4 31.29 0.71C30.79 1.02 29.87 1.76 29.24 2.36C28.61 2.95 27.66 3.99 27.12 4.66C26.58 5.33 25.88 6.41 25.56 7.05C25.24 7.7 24.85 8.67 24.7 9.19C24.47 9.97 24.44 10.53 24.51 12.15C24.57 13.5 24.73 14.64 24.99 15.67C25.21 16.5 25.61 17.71 25.88 18.35L26.38 19.5C24.46 21.34 23.72 22.02 23.51 22.19C23.29 22.36 22.13 23.56 20.95 24.85C19.76 26.15 17.97 28.23 16.97 29.47C15.98 30.72 14.2 33.17 13.03 34.93C11.86 36.69 10.41 39.06 9.79 40.21C9.18 41.35 8.26 43.11 7.75 44.12C7.25 45.14 6.3 47.33 5.64 49C4.98 50.67 4.1 53.08 3.68 54.36C3.26 55.63 2.58 58.15 2.18 59.95C1.77 61.75 1.27 64.27 1.05 65.55C0.84 66.82 0.53 69.05 0.37 70.5C0.15 72.47 0.08 74.38 0.08 78.02C0.08 81.66 0.15 83.56 0.37 85.53C0.53 86.98 0.87 89.39 1.12 90.89C1.37 92.38 1.9 94.97 2.29 96.64C2.69 98.31 3.31 100.62 3.69 101.76C4.06 102.9 4.92 105.24 5.6 106.95C6.28 108.67 7.38 111.15 8.05 112.47C8.72 113.79 9.63 115.55 10.09 116.39C10.54 117.22 11.87 119.34 13.03 121.1C14.2 122.86 15.96 125.31 16.95 126.54C17.93 127.77 19.63 129.75 20.72 130.94C21.81 132.12 23.55 133.88 24.58 134.85C25.61 135.82 27.28 137.3 28.29 138.13C29.31 138.97 30.72 140.09 31.42 140.63C32.12 141.16 33.35 142.03 34.14 142.56C34.93 143.09 36.33 143.99 37.26 144.55C38.18 145.12 40.01 146.17 41.33 146.89C42.65 147.6 44.54 148.55 45.53 148.99C46.52 149.44 47.4 149.8 47.49 149.8C47.58 149.8 48.36 150.43 49.22 151.2C50.09 151.97 51.3 153.03 51.9 153.56C52.51 154.09 53.65 155.07 54.45 155.73C55.24 156.39 56.89 157.73 58.12 158.7C59.35 159.67 61.62 161.4 63.16 162.54C64.7 163.68 67.18 165.48 68.68 166.54C70.17 167.6 72.65 169.29 74.19 170.3C75.73 171.31 78.32 172.91 79.95 173.86C81.58 174.8 84.6 176.42 86.66 177.46C88.73 178.49 91.93 179.99 93.78 180.78C95.63 181.58 98.07 182.6 99.22 183.06C100.36 183.51 103.42 184.63 106.01 185.53C108.61 186.44 111.49 187.4 112.41 187.67C113.33 187.94 115.67 188.59 117.61 189.13C119.54 189.66 122.27 190.36 123.68 190.68C126.09 191.24 126.39 191.27 128.8 191.25C130.42 191.24 132.24 191.11 133.76 190.9C135.07 190.72 136.41 190.57 136.71 190.57C137.02 190.56 137.78 190.71 138.39 190.9C139.01 191.08 140.23 191.58 141.11 192.01C142.26 192.57 143.55 193.42 145.72 195.07C147.38 196.33 149.21 197.69 149.8 198.09C150.52 198.58 151.28 198.93 152.14 199.17C152.85 199.36 154.29 199.63 155.34 199.76C156.4 199.89 158.09 200 159.1 200C160.11 200 161.55 199.91 162.3 199.8C163.04 199.69 164.52 199.62 165.57 199.65C166.63 199.67 168.14 199.61 168.93 199.52C169.72 199.42 170.8 199.24 171.33 199.1C171.86 198.97 172.94 198.55 173.73 198.18C174.52 197.8 175.78 197.03 176.52 196.47C177.26 195.91 178.24 194.98 178.71 194.4C179.17 193.83 179.91 192.75 180.36 192.01C180.81 191.26 181.42 190 181.72 189.21C182.26 187.81 182.3 187.74 183.43 186.89C184.07 186.41 184.97 185.54 185.45 184.97C185.92 184.4 186.7 183.14 187.18 182.17C187.69 181.13 188.22 179.76 188.46 178.82C188.76 177.67 188.9 176.64 188.96 175.14C189.02 173.61 188.97 172.64 188.77 171.46C188.63 170.58 188.37 169.32 188.2 168.67C187.91 167.49 187.91 167.44 188.2 166.11C188.37 165.36 188.59 163.96 188.69 162.99C188.8 161.97 188.83 160.6 188.77 159.71C188.71 158.88 188.57 157.69 188.45 157.07C188.33 156.46 188.15 155.65 188.06 155.28C187.95 154.86 187.79 154.6 187.64 154.6C187.51 154.6 187.07 155.15 186.67 155.84C186.27 156.52 185.51 157.61 184.99 158.27C184.46 158.93 183.55 159.97 182.96 160.57C182.37 161.18 181.69 161.81 181.44 161.97C181.01 162.27 181 162.27 180.52 161.83L180.04 161.39C180.77 159.53 181.03 158.71 181.1 158.35C181.17 157.96 181.48 157.39 181.91 156.87C182.29 156.41 182.85 155.55 183.15 154.96C183.44 154.36 183.84 153.37 184.03 152.76C184.22 152.14 184.45 151.03 184.55 150.28C184.68 149.28 184.67 148.5 184.54 147.32C184.43 146.44 184.24 145.29 184.11 144.76C183.98 144.24 183.64 143.17 183.36 142.4C183.08 141.63 182.77 141 182.68 141C182.6 140.99 182.42 141.23 182.29 141.52C182.15 141.81 181.77 142.48 181.43 143.01C181.09 143.53 180.4 144.46 179.91 145.07C179.41 145.67 178.57 146.48 178.05 146.85C177.52 147.23 176.62 147.76 176.05 148.04C175.17 148.46 174.95 148.51 174.61 148.35C174.39 148.25 173.46 147.3 172.53 146.23C171.61 145.16 170.21 143.63 169.42 142.84C168.6 142.02 167.32 140.96 166.45 140.4C165.62 139.85 164.38 139.18 163.7 138.92C163.01 138.66 161.86 138.3 161.14 138.12C160.38 137.93 158.97 137.75 157.82 137.7C156.07 137.61 155.71 137.54 154.94 137.16C154.46 136.91 153.49 136.55 152.78 136.35C151.81 136.07 151.09 135.99 149.74 135.98C148.34 135.98 147.74 136.06 146.79 136.35C146.13 136.56 144.9 137.07 144.07 137.49C143.23 137.92 141.9 138.67 141.11 139.18C140.32 139.69 139.13 140.41 138.47 140.8C137.81 141.18 136.73 141.67 136.07 141.89C135.41 142.11 134.23 142.4 133.44 142.53C132.64 142.67 131.02 142.82 129.84 142.87C128.29 142.94 127.04 142.89 125.44 142.7C124.21 142.55 122.99 142.39 122.72 142.33C122.24 142.24 122.25 142.23 123.44 141.36C124.1 140.88 125.68 139.65 126.96 138.63C128.3 137.56 130.7 135.36 132.65 133.42C134.51 131.57 136.8 129.12 137.75 127.98C138.69 126.83 140.34 124.68 141.4 123.18C142.47 121.69 144 119.35 144.8 117.99C145.6 116.62 146.58 114.9 146.99 114.15C147.39 113.4 148.31 111.46 149.03 109.83C149.75 108.21 150.59 106.23 150.89 105.44C151.2 104.64 151.84 102.7 152.32 101.12C152.8 99.54 153.4 97.41 153.66 96.4C153.91 95.39 154.3 93.63 154.52 92.49C154.75 91.34 155.04 89.65 155.17 88.73C155.3 87.81 155.48 86.19 155.57 85.13C155.66 84.08 155.78 81.92 155.83 80.34C155.89 78.75 155.85 75.91 155.76 74.02C155.66 72.13 155.47 69.68 155.34 68.59C155.2 67.49 154.95 65.76 154.77 64.75C154.59 63.74 154.19 61.87 153.89 60.59C153.58 59.32 152.93 56.91 152.43 55.24C151.94 53.57 151.1 51.12 150.58 49.8C150.05 48.48 149.04 46.14 148.32 44.6C147.6 43.07 146.3 40.58 145.43 39.09C144.56 37.59 143.42 35.72 142.89 34.93C142.36 34.14 141.36 32.7 140.66 31.73C139.96 30.77 138.66 29.11 137.77 28.06C136.89 27 135.19 25.12 134 23.87L131.84 21.6C132.76 19.67 133.25 18.49 133.52 17.75C133.8 17 134.13 15.88 134.27 15.27C134.4 14.65 134.52 13.39 134.52 12.47C134.52 11.36 134.43 10.44 134.25 9.75C134.09 9.18 133.73 8.21 133.44 7.59C133.16 6.98 132.6 6.04 132.21 5.52C131.82 4.99 131.03 4.15 130.47 3.65C129.9 3.16 128.9 2.38 128.24 1.93C127.41 1.37 126.99 1.17 126.88 1.29C126.79 1.38 126.74 2.17 126.77 3.16C126.8 4.49 126.74 5.16 126.49 6.16C126.3 6.86 125.86 8.05 125.5 8.79C125.14 9.54 124.54 10.55 124.16 11.03C123.78 11.51 123.11 12.27 122.66 12.71L121.86 13.51C120.79 12.78 119.3 11.85 117.85 10.97C116.39 10.1 113.84 8.71 112.17 7.9C110.5 7.09 108.41 6.12 107.53 5.75C106.65 5.38 104.78 4.68 103.37 4.21C101.97 3.74 99.66 3.03 98.26 2.64C96.85 2.25 94.66 1.72 93.38 1.46C92.11 1.2 90.52 0.91 89.86 0.81C89.2 0.71 87.58 0.52 86.27 0.39C84.88 0.25 81.73 0.11 78.83 0.08C74.79 0.03 73.15 0.07 70.52 0.31Z" />
		<path class="shp1" d="M74.91 2.67C74.3 2.69 72.86 2.79 71.71 2.88C70.57 2.97 68.63 3.19 67.4 3.37C66.17 3.55 64.12 3.9 62.84 4.16C61.56 4.42 59.12 5.03 57.4 5.51C55.69 6 53.57 6.66 52.69 6.98C51.81 7.3 50.15 7.95 49.01 8.43C47.87 8.92 46.07 9.72 45.01 10.22C43.96 10.73 42.12 11.7 40.93 12.38C39.75 13.07 38.18 14.01 37.46 14.49C36.73 14.96 36.08 15.35 36.02 15.35C35.95 15.36 35.31 14.76 34.58 14.03C33.86 13.31 32.97 12.31 32.61 11.83C32.25 11.35 31.64 10.3 31.26 9.51C30.87 8.72 30.47 7.61 30.36 7.03C30.25 6.46 30.09 5.9 29.99 5.78C29.86 5.62 29.66 5.75 29.06 6.42C28.65 6.89 28.13 7.6 27.91 7.99C27.69 8.39 27.41 9.18 27.28 9.75C27.11 10.56 27.09 11.18 27.2 12.55C27.29 13.52 27.46 14.74 27.59 15.27C27.73 15.8 28.27 17.11 28.79 18.19L29.74 20.14C28.94 20.83 27.95 21.72 27.02 22.56C26.1 23.41 24.7 24.77 23.9 25.6C23.11 26.42 21.99 27.64 21.41 28.3C20.83 28.96 19.61 30.43 18.71 31.57C17.8 32.72 16.25 34.88 15.26 36.37C14.27 37.87 13.02 39.88 12.48 40.85C11.94 41.81 10.93 43.76 10.24 45.16C9.55 46.57 8.59 48.73 8.11 49.96C7.63 51.19 6.9 53.17 6.5 54.36C6.1 55.54 5.49 57.63 5.13 58.99C4.78 60.36 4.31 62.48 4.08 63.71C3.86 64.94 3.53 66.99 3.36 68.27C3.19 69.54 2.97 71.84 2.87 73.38C2.75 75.09 2.71 77.62 2.77 79.86C2.82 81.88 3.01 84.79 3.19 86.33C3.37 87.87 3.74 90.35 4 91.85C4.27 93.34 4.75 95.57 5.07 96.8C5.38 98.03 6.05 100.26 6.56 101.76C7.07 103.25 7.82 105.34 8.23 106.39C8.65 107.45 9.7 109.75 10.58 111.51C11.46 113.27 12.55 115.32 12.99 116.07C13.44 116.81 14.4 118.33 15.12 119.42C15.84 120.52 16.96 122.14 17.62 123.02C18.27 123.9 19.56 125.52 20.47 126.62C21.39 127.72 23.29 129.77 24.7 131.19C26.11 132.6 28.02 134.4 28.94 135.19C29.87 135.97 31.48 137.27 32.54 138.07C33.59 138.87 35.5 140.21 36.78 141.05C38.05 141.88 39.81 142.98 40.69 143.49C41.57 143.99 43.34 144.92 44.61 145.56C45.89 146.19 47.5 146.95 48.2 147.25C49.13 147.66 49.78 148.09 50.67 148.91C51.34 149.51 52.89 150.88 54.13 151.94C55.36 152.99 57.44 154.72 58.76 155.77C60.08 156.83 62.56 158.74 64.28 160.03C65.99 161.32 68.48 163.13 69.8 164.06C71.11 164.98 73.78 166.79 75.71 168.07C77.65 169.35 80.67 171.2 82.43 172.2C84.19 173.19 87.1 174.71 88.9 175.59C90.71 176.46 92.88 177.49 93.74 177.88C94.6 178.26 96.97 179.25 99.02 180.08C101.06 180.9 104.43 182.16 106.49 182.88C108.56 183.6 111.62 184.61 113.29 185.12C114.96 185.64 118.23 186.54 120.56 187.12C122.89 187.71 125.48 188.3 126.32 188.43C127.42 188.61 128.33 188.65 129.6 188.58C130.57 188.52 132.4 188.33 133.68 188.16C134.95 187.99 136.32 187.85 136.71 187.85C137.11 187.85 138.01 187.99 138.71 188.17C139.42 188.35 140.94 188.96 142.11 189.53C143.88 190.39 144.83 191.02 147.87 193.31C149.87 194.82 151.86 196.22 152.3 196.42C152.74 196.63 153.82 196.98 154.7 197.21C155.92 197.53 156.85 197.65 158.62 197.71C160.44 197.78 161.27 197.74 162.46 197.52C163.49 197.33 164.89 197.23 166.85 197.21C169.51 197.19 169.83 197.15 171.01 196.76C171.71 196.53 172.72 196.08 173.25 195.76C173.78 195.44 174.63 194.78 175.14 194.28C175.66 193.77 176.29 193.06 176.54 192.69C176.8 192.31 176.95 191.98 176.89 191.94C176.82 191.9 176.19 192.01 175.49 192.18C174.75 192.35 173.67 192.48 172.93 192.47C172.23 192.47 171.53 192.41 171.39 192.35C171.16 192.26 171.19 192.14 171.59 191.41C171.99 190.67 172.13 190.56 172.65 190.48C172.98 190.43 173.72 190.31 174.29 190.21C174.86 190.11 175.87 189.76 176.53 189.43C177.19 189.1 178.13 188.46 178.62 187.98C179.12 187.51 179.73 186.8 179.98 186.39C180.27 185.92 180.8 185.41 181.4 185.02C181.93 184.67 182.81 183.91 183.36 183.32C184.08 182.55 184.59 181.8 185.16 180.62C185.71 179.5 186.07 178.49 186.28 177.46C186.46 176.62 186.6 175.54 186.6 175.06L186.6 174.18C185.92 175.05 185.37 175.69 184.93 176.16C184.48 176.63 183.69 177.33 183.16 177.71C182.64 178.09 181.88 178.51 181.48 178.65C181.09 178.79 180.75 178.85 180.73 178.78C180.71 178.71 180.41 178.19 180.07 177.62L179.45 176.58C180.35 175.46 180.87 174.71 181.19 174.18C181.51 173.65 181.82 173.04 181.88 172.82C181.95 172.6 182.3 172.1 182.67 171.7C183.05 171.31 183.57 170.7 183.84 170.34C184.11 169.99 184.59 169.2 184.9 168.59C185.21 167.97 185.61 167 185.79 166.43C185.98 165.86 186.2 164.78 186.29 164.03C186.38 163.28 186.42 162.29 186.37 161.83C186.32 161.37 186.23 160.99 186.16 160.98C186.1 160.98 185.83 161.29 185.57 161.66C185.31 162.04 184.77 162.7 184.37 163.13C183.97 163.56 183.21 164.21 182.68 164.59C182.16 164.96 181.47 165.39 181.16 165.54L180.61 165.81C179.1 164.09 178.52 163.63 177.8 163.27C177.23 162.98 176.68 162.74 176.57 162.75C176.46 162.75 176.33 162.68 176.29 162.59C176.24 162.5 176.41 162.12 176.67 161.75C176.92 161.38 177.34 160.64 177.61 160.11C177.87 159.58 178.21 158.76 178.35 158.27C178.49 157.79 178.61 157.2 178.61 156.95C178.61 156.62 178.87 156.25 179.7 155.44C180.44 154.7 180.96 154.02 181.29 153.32C181.56 152.75 181.9 151.81 182.03 151.24C182.17 150.66 182.28 149.45 182.29 148.52C182.29 147.6 182.25 146.81 182.2 146.76C182.16 146.72 181.6 147.19 180.96 147.82C180.33 148.44 179.23 149.33 178.53 149.79C177.78 150.27 176.73 150.78 176.01 151.01C175.33 151.22 174.66 151.4 174.53 151.4C174.4 151.4 173.98 151.19 173.61 150.93C173.24 150.67 172.25 150.14 171.41 149.74C170.58 149.34 169.17 148.82 168.29 148.58C166.89 148.19 166.4 148.14 164.3 148.13C162.98 148.13 161.56 148.18 161.14 148.24L160.38 148.36C160.38 147.62 160.24 146.95 160.07 146.4C159.89 145.85 159.77 145.39 159.79 145.37C159.8 145.35 160.39 145.21 161.1 145.06C162.02 144.85 163.08 144.77 164.9 144.77C166.8 144.77 167.41 144.72 167.41 144.56C167.41 144.45 166.82 143.92 166.09 143.38C165.37 142.84 164.13 142.08 163.34 141.7C162.54 141.32 161.32 140.86 160.62 140.68C159.71 140.45 158.73 140.34 157.26 140.31C155.29 140.27 155.13 140.25 154.22 139.78C153.69 139.51 152.87 139.17 152.38 139.03C151.9 138.89 151 138.73 150.38 138.67C149.66 138.61 148.87 138.66 148.15 138.81C147.53 138.94 146.49 139.3 145.83 139.6C145.17 139.9 143.44 140.89 141.99 141.8C140.54 142.71 138.85 143.66 138.23 143.92C137.62 144.17 136.61 144.52 135.99 144.69C135.38 144.86 134.26 145.11 133.52 145.24C132.77 145.38 131.18 145.53 130 145.59C128.7 145.65 127.14 145.61 126.08 145.49C125.11 145.39 123.28 145.13 122 144.91C120.73 144.7 118.82 144.31 117.77 144.05C116.71 143.79 115.79 143.52 115.72 143.45C115.65 143.38 116.15 142.97 116.84 142.54C117.52 142.11 119.09 141.07 120.32 140.24C121.55 139.41 123.57 137.92 124.8 136.93C126.03 135.95 128.05 134.2 129.28 133.06C130.51 131.92 132.38 130.03 133.44 128.87C134.49 127.7 136.02 125.91 136.84 124.88C137.66 123.86 138.86 122.27 139.5 121.34C140.15 120.42 141.11 118.98 141.63 118.15C142.16 117.31 143.21 115.51 143.97 114.15C144.72 112.79 145.75 110.77 146.24 109.67C146.74 108.57 147.6 106.52 148.15 105.12C148.7 103.71 149.42 101.69 149.74 100.64C150.06 99.58 150.65 97.43 151.03 95.84C151.42 94.26 151.91 91.92 152.13 90.65C152.35 89.37 152.64 87.32 152.78 86.09C152.93 84.86 153.08 81.98 153.14 79.7C153.19 77.1 153.16 74.55 153.04 72.9C152.93 71.45 152.7 69.22 152.52 67.95C152.35 66.67 152.06 64.87 151.89 63.95C151.71 63.03 151.18 60.76 150.71 58.91C150.23 57.07 149.51 54.58 149.1 53.4C148.68 52.21 147.81 49.98 147.16 48.44C146.5 46.9 145.46 44.67 144.84 43.49C144.23 42.3 143.18 40.43 142.53 39.33C141.87 38.23 140.6 36.27 139.7 34.98C138.81 33.68 137.21 31.56 136.15 30.26C135.1 28.96 132.92 26.57 131.31 24.94C128.65 22.25 128.41 21.95 128.58 21.66C128.69 21.49 129.07 20.88 129.42 20.3C129.77 19.73 130.26 18.8 130.52 18.23C130.78 17.65 131.16 16.54 131.36 15.75C131.56 14.96 131.78 13.63 131.85 12.79C131.95 11.49 131.92 11.11 131.63 10.15C131.44 9.54 131.08 8.71 130.82 8.31C130.57 7.92 130.11 7.31 129.79 6.95C129.48 6.6 129.19 6.35 129.13 6.39C129.08 6.44 128.93 6.98 128.8 7.59C128.67 8.21 128.3 9.25 127.98 9.91C127.67 10.57 127.15 11.5 126.83 11.98C126.5 12.46 125.7 13.42 125.04 14.12C124.38 14.82 123.43 15.74 122.92 16.17L122 16.95C119.21 14.98 117.33 13.77 116.01 13C114.69 12.24 112.74 11.17 111.69 10.64C110.63 10.1 108.64 9.18 107.25 8.59C105.87 8 103.82 7.2 102.69 6.81C101.57 6.43 99.61 5.82 98.34 5.47C97.06 5.11 95.23 4.64 94.26 4.41C93.29 4.19 91.64 3.87 90.58 3.69C89.53 3.51 87.76 3.25 86.66 3.12C85.57 2.99 83.37 2.81 81.79 2.72C80.21 2.64 78.26 2.58 77.47 2.59C76.68 2.61 75.53 2.64 74.91 2.67Z" />
		<path class="shp2" d="M74.59 9.53C73.98 9.57 72.32 9.7 70.91 9.84C69.51 9.97 67.31 10.26 66.04 10.49C64.76 10.71 62.6 11.18 61.24 11.53C59.88 11.88 57.47 12.6 55.88 13.14C54.3 13.67 52.18 14.47 51.17 14.91C50.16 15.35 48.56 16.09 47.61 16.57C46.66 17.04 45.93 17.5 45.97 17.59C46.02 17.68 46.96 17.36 48.17 16.85C49.33 16.36 51.44 15.58 52.85 15.11C54.25 14.64 56.2 14.06 57.16 13.83C58.13 13.59 59.75 13.23 60.76 13.03C61.77 12.82 63.64 12.51 64.92 12.33C66.19 12.15 68.46 11.92 69.96 11.82C71.58 11.7 73.97 11.66 75.87 11.72C77.63 11.77 80.11 11.93 81.39 12.07C82.66 12.21 84.53 12.47 85.55 12.64C86.56 12.82 88.36 13.17 89.54 13.44C90.73 13.7 92.67 14.21 93.86 14.56C95.05 14.92 97.06 15.61 98.34 16.1C99.61 16.59 101.52 17.38 102.57 17.86C103.63 18.33 105.43 19.23 106.57 19.85C107.72 20.48 109.32 21.41 110.13 21.92C110.94 22.44 111.7 22.86 111.81 22.87C111.92 22.87 112.82 22.47 113.81 21.99C114.87 21.47 115.59 21.02 115.56 20.9C115.53 20.79 114.68 20.18 113.68 19.55C112.67 18.91 110.66 17.79 109.21 17.05C107.76 16.31 105.71 15.33 104.65 14.87C103.6 14.41 101.37 13.58 99.7 13.02C98.03 12.47 95.47 11.72 94.02 11.37C92.57 11.01 90.52 10.58 89.46 10.4C88.41 10.23 86.43 9.97 85.07 9.83C83.7 9.7 81.04 9.56 79.15 9.53C77.26 9.5 75.21 9.5 74.59 9.53Z" />
		<path class="shp3" d="M36.35 25.14C36.41 25.69 36.65 26.86 36.87 27.74C37.09 28.62 37.46 29.88 37.69 30.54C37.91 31.2 38.35 32.31 38.66 33.01C38.97 33.72 39.48 34.72 39.79 35.25C40.11 35.78 40.77 36.75 41.27 37.41C41.76 38.07 42.68 39.09 43.31 39.69L44.45 40.77C45.88 40.12 46.97 39.69 47.81 39.41C48.65 39.13 49.87 38.77 50.53 38.62C51.19 38.47 51.91 38.31 52.13 38.26C52.52 38.18 52.5 38.16 51.73 37.47C51.29 37.07 50.14 36.36 49.17 35.87C48.2 35.38 47.37 34.95 47.33 34.9C47.29 34.85 47.79 34.85 48.45 34.89C49.17 34.94 50.23 35.17 51.09 35.46C51.88 35.73 52.58 35.92 52.65 35.88C52.71 35.84 52.61 35.54 52.42 35.21C52.22 34.88 51.82 34.29 51.53 33.89C51.23 33.5 50.43 32.6 49.74 31.89C48.57 30.69 48.3 30.51 45.31 28.95C43.56 28.03 41.02 26.67 39.65 25.93C38.29 25.19 37.03 24.48 36.86 24.36C36.68 24.24 36.47 24.14 36.39 24.14C36.31 24.14 36.29 24.57 36.35 25.14ZM120.96 25.6C120.35 25.94 117.61 27.36 114.89 28.74L109.93 31.25C108.07 33.2 107.23 34.17 106.86 34.67C106.49 35.17 106.09 35.73 105.98 35.93C105.87 36.13 105.81 36.33 105.85 36.37C105.9 36.42 106.47 36.28 107.13 36.06C107.79 35.84 108.87 35.59 109.53 35.5C110.19 35.41 110.79 35.38 110.86 35.45C110.93 35.52 110.24 35.94 109.34 36.4C108.43 36.86 107.35 37.5 106.94 37.84C106.53 38.18 106.21 38.52 106.24 38.61C106.26 38.7 106.74 38.86 107.31 38.97C107.87 39.08 108.91 39.36 109.61 39.59C110.31 39.82 111.59 40.29 112.45 40.63L114.01 41.25C114.94 40.54 115.67 39.83 116.23 39.23C116.8 38.62 117.61 37.63 118.05 37.01C118.48 36.39 119.18 35.21 119.6 34.37C120.02 33.54 120.62 32.17 120.93 31.33C121.24 30.5 121.68 29.1 121.9 28.22C122.12 27.34 122.34 26.24 122.38 25.78C122.44 25.19 122.41 24.94 122.27 24.95C122.17 24.96 121.58 25.25 120.96 25.6ZM54.03 29.18C53.99 29.22 54.47 29.77 55.09 30.41C55.71 31.05 56.57 32.04 57.01 32.61C57.44 33.19 58.07 34.19 58.4 34.85C58.73 35.51 59.06 36.39 59.12 36.81C59.19 37.23 59.28 37.57 59.32 37.57C59.37 37.57 59.91 37.17 60.52 36.68C61.14 36.2 61.66 35.73 61.68 35.64C61.7 35.56 60.84 34.61 59.76 33.52C58.68 32.44 57.3 31.19 56.68 30.73C56.07 30.28 55.23 29.72 54.82 29.5C54.42 29.28 54.06 29.14 54.03 29.18ZM103.51 29.67C103 29.98 102.18 30.53 101.7 30.89C101.21 31.25 99.93 32.44 98.86 33.52C97.78 34.6 96.9 35.56 96.9 35.65C96.9 35.74 97.42 36.21 98.06 36.69C98.7 37.17 99.25 37.57 99.3 37.57C99.34 37.57 99.43 37.23 99.5 36.81C99.57 36.39 99.9 35.48 100.25 34.77C100.61 34.02 101.39 32.87 102.13 31.97C102.83 31.14 103.7 30.19 104.07 29.86C104.43 29.53 104.67 29.22 104.59 29.18C104.51 29.14 104.03 29.36 103.51 29.67Z" />
		<path class="shp2" d="M125.68 29.94C125.59 30.31 125.3 31.32 125.04 32.17L124.56 33.73C125.12 34.44 125.83 35.29 126.49 36.07C127.16 36.85 128.17 38.1 128.74 38.85C129.31 39.6 130.31 41 130.96 41.97C131.61 42.93 132.63 44.55 133.24 45.56C133.84 46.57 134.86 48.48 135.5 49.8C136.15 51.12 137 52.95 137.39 53.88C137.79 54.8 138.43 56.53 138.83 57.71C139.23 58.9 139.78 60.63 140.05 61.55C140.32 62.47 140.75 64.16 141.01 65.31C141.27 66.45 141.63 68.32 141.81 69.46C141.99 70.61 142.23 72.37 142.34 73.38C142.46 74.49 142.54 77.29 142.54 80.42C142.53 84.38 142.47 86.16 142.25 87.93C142.1 89.2 141.83 91.08 141.65 92.09C141.48 93.1 141.06 95.08 140.71 96.48C140.36 97.89 139.72 100.16 139.28 101.52C138.85 102.88 138.15 104.82 137.75 105.84C137.34 106.85 136.48 108.75 135.85 110.07C135.22 111.39 134.24 113.26 133.69 114.23C133.13 115.2 132.01 116.99 131.2 118.23C130.39 119.46 128.86 121.54 127.81 122.86C126.75 124.18 125.16 126.05 124.27 127.02C123.37 127.99 121.76 129.59 120.69 130.58C119.61 131.58 117.99 132.98 117.1 133.7C116.2 134.42 115.5 135.07 115.54 135.13C115.58 135.2 116.09 134.91 116.69 134.5C117.28 134.09 118.3 133.35 118.96 132.87C119.62 132.38 121.03 131.26 122.08 130.38C123.14 129.5 124.98 127.81 126.17 126.62C127.36 125.43 128.95 123.74 129.7 122.86C130.45 121.98 131.64 120.51 132.34 119.58C133.05 118.66 134.13 117.15 134.74 116.23C135.36 115.3 136.3 113.83 136.83 112.95C137.36 112.07 138.33 110.27 138.99 108.95C139.65 107.63 140.57 105.69 141.03 104.64C141.49 103.58 142.29 101.42 142.81 99.84C143.33 98.26 144.04 95.81 144.39 94.4C144.74 93 145.2 90.8 145.42 89.53C145.64 88.25 145.91 86.45 146.02 85.53C146.16 84.43 146.23 81.81 146.23 77.94C146.23 73.11 146.17 71.63 145.94 69.86C145.77 68.68 145.47 66.73 145.25 65.55C145.03 64.36 144.58 62.31 144.23 60.99C143.89 59.67 143.26 57.51 142.82 56.2C142.39 54.88 141.66 52.9 141.2 51.8C140.74 50.7 139.68 48.47 138.86 46.84C138.03 45.22 136.72 42.88 135.95 41.65C135.18 40.42 134.01 38.69 133.36 37.81C132.71 36.93 131.63 35.53 130.95 34.69C130.28 33.86 128.91 32.29 127.9 31.21C126.9 30.13 126.03 29.25 125.97 29.25C125.9 29.25 125.77 29.56 125.68 29.94Z" />
		<path class="shp0" d="M48.96 30.96C48.95 31.04 49.5 31.67 50.18 32.37C50.86 33.08 51.72 34.12 52.09 34.69C52.46 35.26 52.71 35.78 52.64 35.85C52.58 35.91 51.88 35.74 51.09 35.47C50.22 35.17 49.17 34.94 48.45 34.89C47.79 34.85 47.29 34.85 47.33 34.9C47.37 34.95 48.2 35.38 49.17 35.87C50.14 36.36 51.31 37.08 51.77 37.48C52.23 37.88 52.61 38.26 52.61 38.33C52.61 38.4 51.79 39.01 50.77 39.69C49.76 40.37 47.87 41.73 46.57 42.71C45.27 43.69 43.57 45.04 42.78 45.71C41.99 46.38 40.63 47.61 39.76 48.44C38.88 49.28 37.6 50.64 36.9 51.48C36.21 52.31 35.42 53.34 35.17 53.76L34.7 54.52C35.32 54.76 35.55 54.83 35.62 54.83C35.68 54.83 36.29 55.01 36.98 55.23C37.66 55.45 38.54 55.78 38.94 55.96C39.33 56.13 39.65 56.38 39.65 56.51C39.65 56.65 39.35 56.9 38.98 57.07C38.6 57.25 37.88 57.71 37.38 58.11C36.87 58.51 36.09 59.28 35.64 59.83C35.18 60.38 34.48 61.41 34.06 62.11C33.65 62.81 33.06 63.96 32.74 64.67C32.43 65.37 31.96 66.63 31.69 67.47C31.42 68.3 30.97 70.15 30.67 71.57C30.38 73 30.2 74.22 30.27 74.29C30.34 74.36 30.59 74.17 30.83 73.87C31.07 73.57 31.77 72.88 32.4 72.35C33.03 71.82 34.11 71.05 34.8 70.64C35.49 70.23 36.6 69.68 37.26 69.41C37.92 69.15 39.01 68.82 39.69 68.68C40.4 68.54 41.72 68.42 42.73 68.42C43.73 68.42 45.14 68.54 45.89 68.68C46.64 68.82 47.97 69.19 48.85 69.49C49.73 69.79 51.6 70.61 53.01 71.3C54.41 71.99 56.43 73.11 57.48 73.78C58.54 74.46 60.07 75.51 60.88 76.12C61.69 76.72 62.38 77.22 62.4 77.22C62.42 77.23 62.73 76.82 63.08 76.32C63.43 75.83 64.04 75.18 64.44 74.89C64.83 74.6 65.48 74.25 65.88 74.11C66.27 73.97 67.03 73.86 67.56 73.86C68.08 73.86 68.91 73.97 69.4 74.11C69.88 74.25 70.82 74.66 71.47 75.01C72.13 75.36 73.27 76.13 74.01 76.71C74.74 77.3 75.28 77.83 75.2 77.88C75.13 77.94 74.46 77.78 73.71 77.53C72.97 77.28 71.89 77 71.31 76.91C70.74 76.82 69.86 76.74 69.36 76.74C68.85 76.74 68.08 76.81 67.64 76.9C67.2 76.99 66.8 77.13 66.76 77.22C66.71 77.31 67.02 77.59 67.44 77.85C67.85 78.11 68.5 78.63 68.88 79.01C69.26 79.39 69.56 79.75 69.56 79.82C69.56 79.88 69.68 79.93 69.84 79.93C69.99 79.92 70.84 80.17 71.71 80.48C72.59 80.79 74 81.15 74.83 81.29C75.78 81.44 77.4 81.53 79.15 81.54C80.93 81.54 82.46 81.45 83.35 81.3C84.12 81.16 85.45 80.83 86.31 80.56C87.16 80.29 87.94 80.05 88.02 80.04C88.11 80.03 88.31 79.82 88.46 79.58C88.62 79.33 89.29 78.76 89.95 78.3L91.16 77.46C90.34 77.12 89.6 76.99 88.98 76.94C88.37 76.89 87.25 76.94 86.51 77.05C85.76 77.16 84.55 77.44 83.83 77.67C83.11 77.91 82.51 78.06 82.51 78.02C82.5 77.97 82.77 77.68 83.1 77.37C83.43 77.06 84.14 76.51 84.67 76.16C85.19 75.8 86.08 75.28 86.63 75C87.17 74.73 88.07 74.38 88.62 74.24C89.27 74.07 89.99 74.01 90.66 74.06C91.34 74.11 91.98 74.28 92.5 74.54C92.94 74.76 93.63 75.29 94.03 75.72C94.44 76.15 94.89 76.73 95.03 77.02C95.18 77.3 95.34 77.54 95.38 77.54C95.42 77.54 96.2 77.01 97.1 76.36C98 75.72 99.6 74.66 100.66 74.02C101.71 73.37 103.51 72.4 104.65 71.84C105.8 71.29 107.6 70.55 108.65 70.2C109.71 69.85 111.18 69.44 111.93 69.29C112.98 69.08 113.8 69.04 115.53 69.11C117.13 69.17 118.1 69.29 118.96 69.53C119.62 69.72 120.88 70.23 121.76 70.66C122.64 71.09 123.83 71.8 124.4 72.24C124.97 72.67 125.89 73.5 126.44 74.08C126.99 74.66 127.49 75.14 127.56 75.14C127.62 75.14 127.59 74.51 127.48 73.74C127.37 72.97 127.13 71.62 126.94 70.74C126.76 69.86 126.36 68.39 126.05 67.47C125.74 66.54 125.18 65.14 124.8 64.35C124.42 63.56 123.76 62.37 123.32 61.71C122.88 61.05 121.99 60.01 121.34 59.39C120.69 58.78 119.75 58.06 119.24 57.79C118.74 57.53 118.33 57.26 118.33 57.19C118.33 57.13 118.74 56.89 119.24 56.66C119.75 56.43 120.9 56.05 121.8 55.82C122.7 55.59 123.44 55.32 123.44 55.24C123.44 55.15 123.05 54.5 122.57 53.8C122.1 53.09 121.07 51.8 120.28 50.92C119.5 50.04 118.11 48.63 117.2 47.78C116.28 46.93 114.95 45.75 114.25 45.16C113.54 44.57 112 43.36 110.81 42.46C109.62 41.57 108.08 40.45 107.37 39.98C106.67 39.51 106.02 39.07 105.93 38.99C105.83 38.91 105.99 38.67 106.33 38.37C106.64 38.1 107.22 37.65 107.61 37.37C108.01 37.09 108.94 36.59 109.69 36.25C110.55 35.85 110.99 35.57 110.89 35.48C110.79 35.39 110.26 35.4 109.53 35.5C108.87 35.59 107.81 35.84 107.17 36.06C106.53 36.27 105.98 36.45 105.93 36.45C105.89 36.45 105.85 36.38 105.85 36.29C105.85 36.2 106.16 35.68 106.53 35.13C106.9 34.58 107.74 33.56 108.41 32.87C109.16 32.08 109.49 31.63 109.29 31.68C109.11 31.72 108.32 32.18 107.53 32.7C106.71 33.24 105.4 34.33 104.48 35.25C103.18 36.54 102.74 37.1 102.23 38.13C101.84 38.9 101.51 39.86 101.39 40.53C101.25 41.35 101.25 41.86 101.37 42.45C101.47 42.89 101.76 43.62 102.02 44.08C102.3 44.58 102.83 45.17 103.3 45.52C103.74 45.85 104.1 46.2 104.1 46.28C104.1 46.39 103.59 46.41 102.7 46.34C101.87 46.28 100.78 46.06 100.06 45.82C99.37 45.59 98.44 45.16 97.98 44.87C97.52 44.58 96.75 43.91 96.28 43.39C95.78 42.84 95.17 41.91 94.82 41.17C94.48 40.46 94.17 39.67 94.11 39.41C94.04 39.03 93.91 38.9 93.5 38.81C93.21 38.74 91.54 38.69 89.78 38.71C88.02 38.72 86.37 38.77 86.11 38.83C85.75 38.9 85.54 39.1 85.31 39.57C85.03 40.12 84.99 40.53 84.99 42.45C84.99 44.35 85.07 45.09 85.53 47.4C85.89 49.19 86.08 50.58 86.08 51.48C86.08 52.55 86.01 53.01 85.73 53.64C85.53 54.08 85.1 54.71 84.78 55.04C84.45 55.37 84.11 55.64 84.03 55.64C83.93 55.64 83.87 55.03 83.87 54.16C83.87 52.91 83.8 52.54 83.46 51.8C83.23 51.31 82.76 50.61 82.42 50.23C82.07 49.85 81.75 49.55 81.71 49.55C81.66 49.56 81.58 50.19 81.53 50.96C81.47 51.78 81.28 52.72 81.08 53.24C80.9 53.72 80.37 54.68 79.91 55.36C79.45 56.05 79.07 56.61 79.07 56.61C79.07 56.61 78.71 56.01 78.28 55.28C77.84 54.55 77.35 53.6 77.18 53.16C77.01 52.72 76.83 51.73 76.77 50.96C76.72 50.19 76.6 49.56 76.51 49.55C76.42 49.55 76.13 49.82 75.87 50.16C75.6 50.49 75.25 50.98 75.08 51.24C74.92 51.5 74.68 52.01 74.56 52.36C74.43 52.71 74.34 53.55 74.34 54.24C74.35 54.92 74.3 55.51 74.23 55.55C74.17 55.59 73.85 55.36 73.52 55.03C73.2 54.7 72.77 54.08 72.57 53.64C72.27 52.98 72.21 52.58 72.22 51.4C72.23 50.38 72.41 49.14 72.84 47.16C73.37 44.74 73.45 44.08 73.46 42.21C73.47 40.35 73.43 39.96 73.15 39.41C72.83 38.77 72.83 38.77 71.63 38.65C70.97 38.58 69.12 38.54 67.51 38.57L64.58 38.61C64.02 40.22 63.65 41.05 63.4 41.49C63.14 41.93 62.46 42.75 61.89 43.33C61.31 43.9 60.48 44.56 60.04 44.8C59.6 45.04 58.67 45.38 57.96 45.56C57.24 45.74 56.18 45.89 55.52 45.89C54.89 45.88 54.36 45.83 54.36 45.76C54.36 45.7 54.68 45.41 55.08 45.12C55.48 44.84 56.02 44.28 56.28 43.88C56.55 43.49 56.88 42.72 57.02 42.17C57.23 41.31 57.24 41 57.07 40.05C56.96 39.4 56.62 38.43 56.27 37.73C55.93 37.07 55.3 36.1 54.86 35.57C54.43 35.04 53.69 34.28 53.22 33.88C52.75 33.48 51.86 32.79 51.25 32.34C50.63 31.9 49.87 31.38 49.55 31.19C49.23 30.99 48.97 30.89 48.96 30.96Z" />
		<path class="shp1" d="M66.72 44.71C65.77 45.66 64.56 47.09 64.02 47.88C63.48 48.67 62.79 49.82 62.48 50.44C62.17 51.06 61.7 52.17 61.44 52.92C61.18 53.67 60.92 54.47 60.86 54.72C60.77 55.12 60.83 55.19 61.68 55.62C62.19 55.87 63 56.38 63.48 56.74L64.36 57.4C64.51 54.36 64.68 52.87 64.84 52.12C64.99 51.37 65.31 50.15 65.56 49.4C65.8 48.65 66.3 47.43 66.68 46.68C67.05 45.94 67.67 44.84 68.06 44.24C68.44 43.65 68.69 43.12 68.6 43.07C68.52 43.02 67.67 43.76 66.72 44.71ZM90.14 43.57C90.09 43.65 90.37 44.23 90.77 44.84C91.16 45.46 91.69 46.36 91.94 46.84C92.18 47.33 92.6 48.37 92.87 49.16C93.14 49.95 93.49 51.21 93.65 51.96C93.84 52.88 93.93 54.03 93.94 55.52C93.94 56.72 93.96 57.71 93.98 57.71C94 57.71 94.43 57.51 94.94 57.26C95.45 57 96.25 56.66 96.72 56.5L97.58 56.2C97.41 55.2 97.15 54.27 96.88 53.48C96.62 52.69 96.12 51.46 95.78 50.76C95.44 50.06 94.71 48.8 94.15 47.96C93.6 47.13 92.49 45.76 91.69 44.93C90.89 44.09 90.19 43.48 90.14 43.57Z" />
		<path class="shp3" d="M58.52 50.45C57.95 50.67 56.76 51.21 55.88 51.64C55.01 52.07 53.78 52.78 53.17 53.21C52.55 53.64 51.62 54.39 51.09 54.88C50.56 55.36 49.89 56.1 49.59 56.52C49.19 57.09 49.13 57.26 49.35 57.16C49.51 57.08 50.15 56.84 50.77 56.62C51.69 56.29 52.19 56.22 53.57 56.21C54.85 56.21 55.54 56.29 56.52 56.57C57.23 56.77 58.41 57.24 59.16 57.6C59.91 57.97 61.06 58.66 61.72 59.13C62.38 59.6 63.2 60.25 63.54 60.57C63.88 60.89 64.81 62.01 65.6 63.07C66.39 64.12 67.37 65.38 67.78 65.86C68.18 66.34 68.84 66.93 69.24 67.18C69.65 67.44 70.18 67.63 70.48 67.63C70.76 67.63 71.14 67.55 71.31 67.47C71.49 67.38 71.63 67.25 71.63 67.19C71.63 67.12 71.4 66.96 71.12 66.84C70.83 66.72 70.07 66.07 69.42 65.4C68.35 64.3 68.11 63.93 66.92 61.47C65.83 59.23 65.44 58.59 64.7 57.83C64.2 57.33 63.35 56.62 62.8 56.27C62.25 55.91 61.3 55.42 60.68 55.16C60.07 54.91 58.95 54.58 58.2 54.44C57.46 54.29 56.64 54.12 56.38 54.06L55.92 53.96C57.17 52.47 58.04 51.64 58.67 51.16C59.29 50.68 59.8 50.23 59.8 50.16C59.8 50.09 59.75 50.04 59.68 50.05C59.62 50.05 59.09 50.24 58.52 50.45Z" />
		<path class="shp1" d="M40.77 51.71C40.2 52.01 39.55 52.43 39.34 52.66C39.02 52.99 38.99 53.09 39.18 53.14C39.31 53.18 40.21 53.32 41.17 53.47C42.14 53.62 43.54 53.94 44.29 54.19C45.04 54.44 45.72 54.61 45.81 54.56C45.9 54.52 45.65 54.16 45.25 53.77C44.86 53.37 44.01 52.62 43.37 52.1C42.73 51.58 42.12 51.16 42.01 51.17C41.9 51.17 41.35 51.42 40.77 51.71Z" />
		<path class="shp3" d="M98.91 51.41C98.86 51.45 99.34 52 99.98 52.64C100.62 53.28 101.37 54.16 101.66 54.6C101.95 55.04 102.16 55.47 102.13 55.56C102.1 55.64 101.68 55.73 101.2 55.75C100.73 55.78 99.76 55.87 99.06 55.96C98.35 56.06 97.27 56.32 96.66 56.54C96.04 56.76 95.04 57.2 94.42 57.52C93.66 57.91 92.88 58.51 92.01 59.38C90.89 60.5 90.6 60.91 89.83 62.51C89.07 64.07 88.77 64.51 87.84 65.4C87.16 66.05 86.5 66.52 86.11 66.65C85.75 66.76 85.36 66.88 85.23 66.92C85.04 66.98 85.07 67.07 85.39 67.39C85.67 67.68 85.95 67.79 86.39 67.79C86.71 67.79 87.15 67.7 87.34 67.61C87.54 67.51 88.05 67.16 88.47 66.85C88.89 66.53 90.11 65.3 91.19 64.13C92.26 62.95 93.61 61.64 94.18 61.21C94.75 60.78 95.87 60.12 96.66 59.73C97.45 59.34 98.71 58.83 99.46 58.59C100.52 58.24 101.23 58.13 102.73 58.07C104.24 58.01 104.86 58.05 105.61 58.27C106.14 58.42 107.02 58.79 107.57 59.09C108.12 59.39 108.61 59.58 108.65 59.51C108.69 59.45 108.43 58.92 108.07 58.35C107.7 57.78 106.82 56.74 106.1 56.04C105.38 55.33 104.15 54.32 103.37 53.78C102.58 53.24 101.27 52.47 100.47 52.07C99.66 51.66 98.96 51.37 98.91 51.41Z" />
		<path class="shp1" d="M115.13 52.32C114.47 52.7 113.55 53.26 113.09 53.56C112.63 53.87 112.25 54.22 112.25 54.36C112.24 54.55 112.35 54.57 112.76 54.47C113.05 54.4 113.97 54.27 114.81 54.18C115.64 54.08 116.96 54.05 117.73 54.1C118.79 54.17 119.12 54.15 119.13 54C119.13 53.89 118.82 53.5 118.45 53.14C118.07 52.78 117.48 52.29 117.13 52.06C116.77 51.83 116.45 51.64 116.41 51.64C116.36 51.64 115.79 51.95 115.13 52.32ZM51.65 56.36C51.08 56.49 50.23 56.78 49.77 57C49.31 57.22 48.93 57.45 48.93 57.51C48.93 57.58 49.77 57.68 50.81 57.74C51.84 57.8 52.82 57.91 52.98 57.98C53.2 58.08 53.25 58.22 53.19 58.51C53.13 58.73 53.05 59.7 52.99 60.67C52.91 61.99 52.95 62.77 53.15 63.79C53.29 64.54 53.62 65.58 53.87 66.11C54.12 66.63 54.44 67.21 54.57 67.39C54.8 67.68 55.01 67.71 57.59 67.71C59.77 67.71 60.6 67.77 61.48 68C62.1 68.17 63.28 68.62 64.12 69.01C64.95 69.4 66.03 70.02 66.52 70.39C67 70.75 67.76 71.4 68.2 71.82C68.64 72.24 69.1 72.58 69.24 72.58C69.43 72.58 69.46 72.39 69.4 71.48L69.32 70.38C71.21 70.28 71.53 70.18 72.01 69.82C72.33 69.58 72.75 69.08 72.95 68.71C73.22 68.18 73.31 67.66 73.37 66.43C73.41 65.55 73.39 64.61 73.32 64.35L73.21 63.87C72.86 64.49 72.76 64.78 72.76 64.91C72.75 65.04 72.57 65.53 72.35 65.99C72.13 66.45 71.78 67.01 71.56 67.23C71.28 67.51 71 67.63 70.56 67.63C70.17 67.63 69.7 67.47 69.24 67.18C68.84 66.93 68.18 66.34 67.78 65.86C67.37 65.38 66.39 64.12 65.6 63.07C64.81 62.01 63.88 60.89 63.54 60.57C63.2 60.25 62.38 59.6 61.72 59.13C61.06 58.66 59.91 57.97 59.16 57.6C58.41 57.24 57.26 56.79 56.6 56.6C55.94 56.41 54.79 56.23 54.05 56.19C53.16 56.14 52.32 56.2 51.65 56.36Z" />
		<path class="shp3" d="M51.8 58.55C51.7 58.93 51.55 59.63 51.47 60.11C51.39 60.6 51.33 61.57 51.33 62.27C51.33 62.97 51.44 64.02 51.58 64.59C51.71 65.16 52.04 66.06 52.3 66.59C52.55 67.11 53.09 67.92 53.49 68.39L54.21 69.22C58.68 69.05 59.65 69.08 61.08 69.29C62.09 69.44 63.57 69.78 64.36 70.04C65.15 70.31 66.18 70.73 66.64 70.99C67.1 71.25 67.51 71.41 67.55 71.34C67.59 71.28 67.18 70.89 66.63 70.48C66.09 70.06 64.95 69.41 64.12 69.01C63.28 68.62 62.1 68.17 61.48 68C60.6 67.77 59.77 67.71 57.59 67.71C55.01 67.71 54.8 67.68 54.57 67.39C54.44 67.21 54.12 66.63 53.87 66.11C53.62 65.58 53.3 64.59 53.17 63.91C53.04 63.23 52.93 62.15 52.93 61.51C52.93 60.87 53 59.85 53.09 59.23C53.21 58.37 53.2 58.09 53.05 58C52.94 57.93 52.65 57.88 52.41 57.88C52.03 57.87 51.95 57.96 51.8 58.55Z" />
		<path class="shp1" d="M100.88 58.22C100.56 58.31 99.8 58.53 99.2 58.71C98.59 58.89 97.45 59.35 96.66 59.73C95.87 60.12 94.75 60.78 94.18 61.21C93.61 61.64 92.26 62.95 91.19 64.13C90.11 65.3 88.89 66.53 88.47 66.85C88.05 67.16 87.54 67.51 87.34 67.61C87.15 67.7 86.71 67.79 86.39 67.79C85.94 67.79 85.68 67.68 85.35 67.35C85.12 67.11 84.81 66.62 84.66 66.27C84.52 65.92 84.36 65.2 84.31 64.67C84.26 64.04 84.16 63.71 84.02 63.71C83.9 63.71 83.74 64.07 83.64 64.59C83.54 65.07 83.46 66.04 83.46 66.75C83.46 67.83 83.53 68.16 83.9 68.9C84.23 69.54 84.52 69.88 84.99 70.14C85.34 70.33 86 70.53 86.47 70.58L87.3 70.66C87.06 71.47 86.98 72.01 86.98 72.38L86.98 73.06C88.91 71.62 89.72 71.05 90.02 70.86C90.33 70.68 91.09 70.31 91.7 70.06C92.32 69.81 93.36 69.46 94.02 69.29C94.91 69.07 95.75 68.99 97.3 69C98.66 69.01 99.76 69.1 100.5 69.28L101.62 69.55C102.43 68.74 102.91 68.04 103.21 67.47C103.51 66.89 103.87 65.96 104.02 65.39C104.17 64.77 104.3 63.44 104.34 62.11L104.41 59.87C107.32 59.83 108.26 59.82 108.37 59.81C108.48 59.8 108.54 59.72 108.49 59.63C108.45 59.54 108 59.26 107.49 59.01C106.99 58.76 106.18 58.43 105.69 58.29C105.1 58.12 104.26 58.04 103.13 58.05C102.21 58.06 101.2 58.14 100.88 58.22Z" />
		<path class="shp0" d="M55.48 59.42C55.37 59.67 55.25 60.59 55.2 61.47C55.14 62.7 55.19 63.29 55.4 64.03C55.55 64.56 55.83 65.23 56.02 65.52C56.21 65.81 56.44 66.02 56.52 65.97C56.61 65.93 57.24 65.94 57.92 66L59.16 66.11C59.16 65.18 59.09 64.91 59 64.91C58.91 64.91 58.66 64.73 58.44 64.51C58.17 64.23 58.04 63.93 58.04 63.55C58.04 63.17 58.17 62.86 58.44 62.59C58.65 62.37 58.96 62.19 59.12 62.19C59.32 62.19 59.48 61.95 59.68 61.31L59.96 60.43C58.91 59.84 58.24 59.56 57.8 59.42C57.36 59.29 56.7 59.13 56.34 59.07C55.71 58.97 55.66 59 55.48 59.42Z" />
		<path class="shp3" d="M104.41 59.83C104.41 59.85 104.38 60.88 104.34 62.11C104.31 63.43 104.17 64.77 104.02 65.39C103.87 65.96 103.51 66.89 103.21 67.47C102.91 68.04 102.43 68.74 102.14 69.03L101.62 69.55C99.76 69.1 98.66 69.01 97.3 69C95.75 68.99 94.91 69.07 94.02 69.29C93.36 69.46 92.32 69.81 91.7 70.06C91.09 70.31 90.33 70.68 90.02 70.86C89.72 71.05 89.28 71.34 89.06 71.5L88.66 71.81C89.28 71.68 89.97 71.46 90.58 71.25C91.2 71.03 92.53 70.73 93.54 70.58C94.91 70.37 95.89 70.33 97.38 70.4C98.48 70.45 100.04 70.6 100.86 70.74C102.32 70.98 102.34 70.98 102.85 70.62C103.13 70.43 103.64 69.9 103.99 69.46C104.33 69.02 104.81 68.27 105.06 67.79C105.3 67.3 105.63 66.44 105.78 65.87C105.96 65.19 106.07 64.21 106.08 63.07C106.09 62.1 106.04 60.97 105.97 60.55L105.85 59.79C104.74 59.79 104.41 59.81 104.41 59.83Z" />
		<path class="shp0" d="M99.5 60.84C99.04 60.97 98.44 61.18 98.18 61.31C97.74 61.53 97.71 61.6 97.82 62.07C97.88 62.36 97.94 63.64 97.94 64.93L97.94 67.27C99.55 67.42 100.18 67.46 100.38 67.46C100.67 67.47 100.85 67.24 101.3 66.31C101.68 65.52 101.91 64.74 102.03 63.87C102.13 63.1 102.15 62.21 102.07 61.63L101.93 60.67C100.7 60.62 99.96 60.71 99.5 60.84Z" />
		<path class="shp1" d="M37.84 61.81C37.6 62.06 37.08 62.74 36.7 63.31C36.31 63.88 35.81 64.76 35.59 65.27C35.29 65.93 35.23 66.2 35.38 66.24C35.49 66.26 36.01 66.08 36.54 65.82C37.06 65.56 38.18 65.17 39.02 64.95C40.27 64.62 40.91 64.55 42.69 64.54C44.18 64.54 45.25 64.63 46.13 64.82C46.83 64.97 47.99 65.31 48.69 65.56C49.39 65.81 50.03 65.96 50.1 65.9C50.17 65.84 49.85 65.4 49.38 64.92C48.91 64.44 48.17 63.82 47.73 63.54C47.29 63.26 46.5 62.83 45.97 62.6C45.44 62.36 44.47 62.03 43.81 61.85C43.02 61.63 41.87 61.49 40.44 61.44L38.27 61.35L37.84 61.81ZM115.77 62.2C115.28 62.27 114.42 62.44 113.85 62.59C113.28 62.73 112.16 63.16 111.37 63.55C110.43 64 109.57 64.58 108.89 65.2C108.2 65.84 107.9 66.21 108.01 66.32C108.12 66.43 108.62 66.33 109.53 66.02C110.28 65.76 111.65 65.44 112.57 65.3C113.72 65.12 114.72 65.07 115.77 65.13C116.6 65.19 117.9 65.38 118.64 65.56C119.39 65.74 120.54 66.14 121.2 66.44C121.86 66.74 122.46 66.99 122.52 66.99C122.59 66.99 122.64 66.82 122.64 66.63C122.64 66.43 122.34 65.73 121.99 65.07C121.63 64.41 121.07 63.51 120.74 63.07C120.26 62.43 120.02 62.25 119.51 62.15C119.17 62.09 118.38 62.04 117.77 62.05C117.15 62.06 116.25 62.13 115.77 62.2Z" />
		<path class="shp3" d="M58.44 62.58C58.19 62.84 58.06 63.17 58.05 63.54C58.05 63.94 58.16 64.23 58.44 64.51C58.74 64.8 59.01 64.91 59.48 64.91C60 64.91 60.2 64.81 60.52 64.43C60.74 64.16 60.92 63.77 60.92 63.55C60.92 63.32 60.72 62.95 60.44 62.67C60.09 62.32 59.81 62.19 59.4 62.19C59 62.19 58.71 62.31 58.44 62.58Z" />
		<path class="shp0" d="M62.38 63.38C62.37 63.78 62.25 64.67 62.12 65.35C61.98 66.03 61.89 66.6 61.92 66.61C61.94 66.63 62.84 66.94 63.92 67.29C65 67.65 65.95 67.91 66.04 67.87C66.13 67.82 65.83 67.23 65.37 66.55C64.92 65.87 64.12 64.75 63.61 64.07C63.1 63.39 62.62 62.79 62.54 62.74C62.46 62.69 62.39 62.98 62.38 63.38Z" />
		<path class="shp3" d="M94.06 64.31L93.23 65.15C93.62 65.89 93.85 66.19 94 66.3C94.14 66.41 94.42 66.5 94.62 66.5C94.82 66.5 95.18 66.41 95.42 66.29C95.66 66.17 95.96 65.83 96.08 65.53C96.26 65.07 96.26 64.92 96.08 64.52C95.96 64.27 95.66 63.93 95.42 63.77C95.18 63.6 94.96 63.47 94.93 63.47C94.91 63.47 94.51 63.85 94.06 64.31Z" />
		<path fill-rule="evenodd" class="shp0" d="M93.25 65.23C93.32 65.23 93.38 65.32 93.37 65.43C93.37 65.54 93.57 65.83 93.81 66.07C94.09 66.35 94.43 66.52 94.7 66.51C95.03 66.51 95.16 66.6 95.22 66.87C95.26 67.06 95.3 67.32 95.3 67.43C95.3 67.55 94.99 67.66 94.54 67.72C94.12 67.77 93.06 67.99 92.18 68.2C91.3 68.42 90.53 68.58 90.48 68.55C90.42 68.53 90.99 67.77 91.75 66.87C92.51 65.97 93.18 65.23 93.25 65.23ZM27.31 69.47C27.34 69.64 27.22 70.79 27.04 72.02C26.86 73.25 26.6 75.38 26.47 76.74C26.34 78.1 26.19 80.44 26.13 81.93C26.07 83.58 26.1 85.66 26.21 87.21C26.31 88.62 26.5 90.6 26.63 91.61C26.76 92.62 27.05 94.52 27.27 95.84C27.49 97.16 27.95 99.39 28.3 100.8C28.64 102.21 29.37 104.65 29.91 106.24C30.45 107.82 31.28 110.01 31.76 111.11C32.24 112.21 33.25 114.19 34 115.51C34.75 116.83 36.06 118.95 36.89 120.22C37.73 121.5 39.23 123.62 40.22 124.94C41.21 126.26 42.68 128.13 43.49 129.1C44.29 130.06 45.81 131.79 46.85 132.93C47.89 134.08 49.95 136.2 51.43 137.65C52.91 139.11 55.1 141.16 56.28 142.21C57.47 143.27 59.31 144.85 60.36 145.74C61.42 146.62 63.47 148.28 64.92 149.42C66.37 150.56 68.64 152.29 69.96 153.26C71.27 154.23 73.47 155.8 74.83 156.76C76.2 157.71 78.64 159.37 80.27 160.45C81.9 161.52 84.45 163.09 85.95 163.95C87.44 164.8 90.39 166.35 92.5 167.38C94.61 168.42 97.17 169.63 98.18 170.07C99.19 170.5 101.28 171.37 102.81 171.98C104.35 172.6 106.51 173.43 107.61 173.84C108.71 174.24 111.41 175.15 113.61 175.87C115.81 176.58 118.72 177.47 120.08 177.86C121.45 178.24 123.79 178.84 125.28 179.19C126.78 179.55 128.47 179.92 129.04 180.02C129.69 180.14 130.67 180.17 131.68 180.1C132.56 180.04 134.03 179.89 134.95 179.77C135.88 179.65 137.86 179.36 139.35 179.13C140.92 178.88 143.15 178.66 144.63 178.6C146.71 178.52 147.19 178.45 147.23 178.26C147.27 178.1 146.97 177.87 146.36 177.58C145.85 177.35 144.89 177.01 144.23 176.84C143.57 176.67 142.2 176.45 141.19 176.34C139.9 176.2 137.95 176.18 129.92 176.37L127.68 175.87C126.45 175.59 124.33 175.08 122.96 174.73C121.6 174.38 119.76 173.87 118.88 173.6C118.01 173.34 115.23 172.45 112.73 171.62C110.22 170.8 106.19 169.34 103.77 168.37C101.36 167.41 98.51 166.22 97.46 165.74C96.4 165.26 94.21 164.22 92.58 163.42C90.95 162.63 88.22 161.17 86.51 160.19C84.79 159.2 82.27 157.67 80.91 156.77C79.55 155.87 76.96 154.1 75.15 152.84C73.35 151.57 70.8 149.74 69.48 148.76C68.16 147.78 65.82 145.97 64.28 144.74C62.74 143.51 60.65 141.8 59.64 140.93C58.63 140.06 56.8 138.44 55.56 137.32C54.33 136.2 51.99 133.93 50.36 132.27C48.73 130.61 46.68 128.43 45.79 127.42C44.91 126.41 43.61 124.86 42.91 123.98C42.2 123.1 41.09 121.66 40.43 120.78C39.77 119.9 38.58 118.21 37.79 117.03C36.99 115.84 35.78 113.9 35.09 112.71C34.4 111.52 33.36 109.54 32.77 108.31C32.18 107.08 31.41 105.28 31.06 104.32C30.71 103.35 30.09 101.48 29.7 100.16C29.3 98.84 28.76 96.79 28.49 95.6C28.22 94.42 27.85 92.58 27.67 91.53C27.5 90.47 27.24 88.57 27.11 87.29C26.97 86.02 26.83 84.65 26.8 84.25C26.73 83.57 26.78 83.48 28.43 81.61L28.52 82.65C28.57 83.23 28.69 84.99 28.78 86.57C28.87 88.15 29.09 90.74 29.27 92.33C29.44 93.91 29.77 96.25 30.01 97.52C30.24 98.8 30.56 100.31 30.73 100.88C30.89 101.45 31.1 101.99 31.18 102.08C31.29 102.18 31.71 101.86 32.44 101.12C33.05 100.5 33.58 100.07 33.62 100.16C33.67 100.25 33.86 100.97 34.06 101.76C34.26 102.55 34.7 104.06 35.04 105.12C35.38 106.17 36.23 108.19 36.92 109.59C37.62 111 38.69 112.91 39.31 113.83C39.92 114.75 40.83 115.98 41.33 116.55C41.82 117.12 42.72 118.22 43.34 118.98C43.95 119.75 44.52 120.38 44.61 120.38C44.71 120.38 44.77 119.63 44.77 118.43C44.77 117.35 44.88 115.82 45.01 115.03C45.15 114.24 45.41 113.12 45.59 112.55C45.77 111.98 46.16 110.99 46.46 110.35C46.83 109.58 47.34 108.85 48.01 108.17C48.68 107.48 49.35 106.98 50.05 106.65C50.62 106.38 51.59 106.08 52.21 105.98C52.83 105.88 53.83 105.84 54.45 105.89C55.21 105.96 55.89 106.15 56.6 106.49C57.18 106.76 58.07 107.32 58.58 107.73C59.1 108.14 59.92 108.94 60.41 109.51C60.89 110.08 61.72 111.2 62.24 111.99C62.76 112.78 63.57 114.15 64.05 115.03C64.52 115.91 65.44 117.96 66.09 119.58C66.74 121.21 67.46 123.14 67.69 123.86C67.93 124.59 68.19 125.18 68.28 125.18C68.36 125.18 68.42 125.24 68.4 125.32C68.37 125.4 68.75 125.95 69.24 126.54C69.72 127.13 70.8 128.23 71.63 128.98C72.47 129.73 73.73 130.79 74.43 131.33C75.14 131.88 76.43 132.83 77.31 133.45C78.19 134.06 79.77 135.11 80.83 135.77C81.88 136.43 83.93 137.65 85.39 138.48C86.84 139.31 89.64 140.83 91.62 141.85C93.6 142.86 95.98 144.04 96.9 144.45C97.82 144.86 99.19 145.5 99.94 145.88C100.68 146.25 101.55 146.61 101.86 146.68C102.16 146.75 102.56 146.88 102.73 146.98C102.91 147.07 103.11 147.13 103.17 147.12C103.24 147.1 103.26 147.15 103.21 147.24C103.17 147.33 104.05 147.73 105.17 148.14C106.29 148.54 108.47 149.29 110.01 149.81C111.55 150.32 113.67 150.95 114.73 151.22C115.78 151.49 117.73 151.9 119.04 152.14C121.16 152.53 121.84 152.59 124.8 152.59C128.09 152.6 128.2 152.59 130.24 152.07C131.38 151.78 133.07 151.24 133.99 150.87C134.92 150.49 136.54 149.72 137.59 149.16C138.65 148.59 141.04 147.1 146.31 143.57L147.39 143.67C147.98 143.72 148.75 143.87 149.11 144C149.46 144.12 149.94 144.37 150.18 144.54C150.43 144.71 150.73 145.06 150.86 145.32C151 145.59 151.1 146.06 151.1 146.36C151.1 146.77 150.96 147.08 150.58 147.5C150.26 147.87 149.47 148.37 148.47 148.86C147.59 149.28 145.5 150.08 143.83 150.63C142.16 151.18 140.75 151.65 140.71 151.67C140.67 151.7 140.69 151.77 140.76 151.84C140.84 151.9 141.44 151.99 142.11 152.04C142.89 152.09 143.34 152.19 143.38 152.32C143.41 152.45 142.74 152.74 141.47 153.14C140.39 153.49 138.47 154.03 137.19 154.35C135.92 154.67 132.79 155.35 130.24 155.88C127.69 156.4 125.56 156.87 125.52 156.91C125.48 156.96 125.48 157.02 125.52 157.06C125.56 157.1 126.25 157.24 127.04 157.38C127.83 157.52 129.41 157.74 130.56 157.88C131.7 158.02 134.36 158.18 136.47 158.23C138.83 158.28 141.24 158.24 142.71 158.13C144.03 158.02 146.12 157.8 147.35 157.62C148.58 157.44 151.38 156.95 153.58 156.51C155.78 156.08 158.26 155.64 159.1 155.54C159.93 155.44 161 155.41 161.46 155.46C161.92 155.51 162.55 155.66 162.86 155.8C163.16 155.93 163.76 156.38 164.18 156.79C164.69 157.3 165.07 157.88 165.31 158.51C165.55 159.14 165.69 159.86 165.71 160.59C165.72 161.21 165.68 162.05 165.49 163.23L163.78 163.32C162.83 163.37 161.52 163.48 160.86 163.57C160.2 163.65 159.19 163.87 158.62 164.05C158.05 164.23 157.15 164.6 156.62 164.88C156.1 165.16 155.22 165.82 154.67 166.35C154.12 166.87 153.67 167.43 153.67 167.59C153.66 167.77 153.75 167.84 153.94 167.8C154.1 167.76 154.87 167.46 155.66 167.13C156.45 166.81 157.66 166.43 158.35 166.28C159.57 166.03 159.64 166.04 162.18 166.46C163.61 166.7 165.22 166.95 166.77 167.15L167.4 168.51C167.74 169.25 168.14 170.26 168.28 170.74C168.42 171.23 168.58 172.05 168.64 172.58C168.69 173.12 168.66 173.91 168.55 174.38C168.45 174.84 168.3 175.26 168.21 175.3C168.13 175.34 166.88 174.93 162.86 173.4L161.1 173.4C159.85 173.4 158.85 173.5 157.66 173.76C156.74 173.97 155.86 174.2 155.7 174.28C155.55 174.36 155.45 174.47 155.48 174.54C155.52 174.61 156.15 174.76 156.88 174.87C157.62 174.99 158.76 175.26 159.42 175.48C160.21 175.73 160.82 176.06 161.22 176.42C161.55 176.73 162.34 177.22 162.98 177.53C163.61 177.83 164.55 178.19 165.97 178.58L165.87 179.98C165.82 180.75 165.63 181.84 165.45 182.41C165.21 183.2 164.95 183.63 164.39 184.19C163.88 184.7 163.39 185.01 161.9 185.49L158.78 184.43C157.06 183.86 155.46 183.35 155.22 183.3C154.98 183.25 154.78 183.28 154.78 183.37C154.78 183.46 155.09 183.66 155.46 183.81C155.84 183.96 156.82 184.42 157.66 184.84C158.5 185.25 159.42 185.83 160.23 186.65L159.27 187.57C158.62 188.18 157.86 188.7 156.98 189.11C156.25 189.45 155.34 189.81 154.94 189.9C154.55 190 153.72 190.15 153.1 190.23C152 190.39 151.97 190.38 151.02 189.86C150.5 189.56 149.45 188.84 148.71 188.24C147.96 187.65 146.99 186.93 146.55 186.65C146.11 186.36 145.17 185.85 144.47 185.51C143.76 185.17 143.15 184.88 143.11 184.85C143.07 184.83 143.07 184.78 143.11 184.74C143.15 184.7 144.3 184.34 145.67 183.94C147.03 183.54 148.24 183.18 148.35 183.13C148.47 183.08 148.49 182.98 148.4 182.85C148.3 182.72 147.44 182.61 145.72 182.53C144.11 182.44 142.61 182.46 141.59 182.57C140.71 182.66 138.3 183 136.23 183.32C132.98 183.83 132.09 183.91 126.72 183.93L123.6 183.16C121.89 182.73 119.48 182.1 118.24 181.75C117.01 181.4 114.32 180.57 112.25 179.91C110.18 179.25 107.23 178.24 105.69 177.67C104.15 177.09 101.6 176.1 100.02 175.45C98.43 174.81 96.27 173.89 95.22 173.41C94.16 172.93 92.04 171.93 90.5 171.17C88.96 170.42 86.45 169.09 84.91 168.22C83.37 167.35 80.85 165.83 79.31 164.83C77.77 163.83 75.32 162.19 73.87 161.18C72.42 160.16 69.69 158.18 67.8 156.78C65.91 155.38 63.17 153.28 61.72 152.12C60.27 150.97 58 149.09 56.68 147.94C55.36 146.79 53.21 144.85 51.89 143.62C50.57 142.39 48.4 140.24 47.07 138.84C45.74 137.44 44.18 135.75 43.6 135.09C43.02 134.43 41.79 132.96 40.86 131.81C39.92 130.67 38.41 128.69 37.5 127.42C36.59 126.14 35.07 123.88 34.13 122.38C33.2 120.89 31.88 118.55 31.2 117.19C30.52 115.82 29.66 113.92 29.28 112.95C28.9 111.98 28.35 110.47 28.06 109.59C27.77 108.71 27.2 106.66 26.8 105.04C26.4 103.41 25.9 101.11 25.68 99.92C25.47 98.73 25.18 96.9 25.05 95.84C24.91 94.79 24.72 92.81 24.61 91.45C24.49 89.9 24.46 87.46 24.52 84.97C24.57 82.77 24.72 80.15 24.86 79.14C25 78.13 25.26 76.54 25.44 75.62C25.61 74.7 26.02 73.04 26.33 71.94C26.65 70.84 26.99 69.77 27.08 69.55C27.24 69.19 27.27 69.19 27.31 69.47ZM43.57 71.58C44.19 71.62 45.3 71.76 46.05 71.89C46.8 72.02 48.17 72.38 49.09 72.68C50.01 72.98 51.92 73.8 53.33 74.5C54.73 75.2 57.18 76.58 61.64 79.38L61.58 80.58C61.55 81.24 61.52 81.8 61.5 81.82C61.49 81.85 60.65 81.33 59.64 80.68C58.63 80.03 56.83 78.95 55.64 78.29C54.46 77.62 52.73 76.74 51.81 76.33C50.88 75.92 49.48 75.38 48.69 75.12C47.9 74.87 46.67 74.55 45.97 74.42C45.27 74.28 44.17 74.18 43.53 74.18C42.89 74.18 41.82 74.29 41.13 74.43C40.45 74.57 39.39 74.89 38.78 75.15C38.16 75.4 37.19 75.91 36.62 76.28C36.05 76.64 35.12 77.38 34.57 77.92C34.01 78.46 33.37 79.17 33.13 79.5C32.83 79.92 32.65 80.05 32.54 79.94C32.43 79.82 32.45 79.09 32.79 75.7L33.46 75.09C33.84 74.76 34.53 74.21 35.02 73.88C35.5 73.54 36.26 73.08 36.7 72.86C37.14 72.64 38 72.3 38.62 72.11C39.23 71.93 40.35 71.71 41.09 71.65C41.84 71.58 42.96 71.55 43.57 71.58ZM115.85 72.22C116.64 72.27 117.83 72.44 118.48 72.6C119.14 72.77 120.26 73.18 120.96 73.52C121.67 73.86 122.67 74.46 123.2 74.86C123.73 75.26 124.38 75.82 124.64 76.1C125.12 76.6 125.12 76.6 125.21 80.98L124.77 80.42C124.52 80.11 123.96 79.47 123.52 78.99C123.08 78.52 122.25 77.78 121.68 77.34C121.11 76.91 120.14 76.31 119.52 76.01C118.91 75.72 117.79 75.33 117.05 75.15C116.19 74.94 115.14 74.82 114.21 74.82C113.34 74.82 112.05 74.96 111.09 75.15C110.19 75.33 108.77 75.74 107.93 76.05C107.1 76.36 105.48 77.06 104.33 77.6C103.19 78.15 101.46 79.05 100.5 79.61C99.53 80.17 98.22 80.97 97.58 81.4C96.82 81.91 96.4 82.11 96.35 81.97C96.32 81.86 96.25 81.31 96.11 79.7L98.78 78.1C100.24 77.22 102.49 75.98 103.77 75.34C105.05 74.7 106.7 73.96 107.45 73.68C108.2 73.41 109.49 73.02 110.33 72.8C111.17 72.59 112.42 72.35 113.13 72.27C113.83 72.2 115.05 72.17 115.85 72.22ZM46.37 77.01C46.85 77.05 47.79 77.19 48.45 77.33C49.11 77.46 50.33 77.82 51.17 78.12C52 78.43 53.33 78.98 54.13 79.35C54.92 79.73 56.28 80.46 57.16 80.97C58.04 81.49 59.37 82.31 61.48 83.72L61.86 85.3C62.07 86.18 62.34 87.18 62.46 87.53C62.58 87.88 62.64 88.19 62.6 88.21C62.56 88.23 61.82 87.86 60.96 87.39C60.1 86.92 58.47 86.09 57.32 85.56C56.18 85.03 54.6 84.35 53.81 84.04C53.01 83.74 51.61 83.3 50.69 83.06C49.58 82.78 48.39 82.6 47.17 82.54C46.06 82.49 44.98 82.52 44.45 82.63C43.97 82.73 43.43 82.92 43.25 83.06C42.94 83.3 42.94 83.31 43.24 83.5C43.41 83.61 44.09 84.05 44.75 84.49C45.41 84.93 45.98 85.38 46 85.49C46.04 85.63 45.78 85.69 45.09 85.69C44.56 85.69 43.57 85.77 42.89 85.86C42.21 85.96 40.93 86.21 40.05 86.44C39.18 86.66 37.92 87.06 37.26 87.32C36.6 87.59 35.7 87.98 35.26 88.21C34.82 88.43 34.01 88.89 32.46 89.85L32.3 89.45C32.21 89.23 32.12 88.55 32.1 87.95C32.06 86.94 32.11 86.75 32.74 85.51C33.11 84.78 33.9 83.56 34.49 82.82C35.09 82.08 36.16 81 36.88 80.42C37.59 79.85 38.74 79.08 39.44 78.71C40.13 78.34 41.25 77.86 41.93 77.63C42.61 77.4 43.69 77.16 44.33 77.08C44.97 77.01 45.89 76.97 46.37 77.01Z" />
		<path class="shp3" d="M66.05 77.59C65.78 77.78 65.41 78.26 65.23 78.66L64.9 79.38C67.08 81.33 68.53 82.73 69.51 83.76C70.5 84.78 71.26 85.67 71.19 85.75C71.13 85.82 70.54 85.49 69.88 85.01C69.22 84.53 67.83 83.56 66.8 82.84C65.76 82.12 64.85 81.53 64.76 81.53C64.66 81.53 64.63 82.04 64.69 82.93C64.78 84.24 64.82 84.36 65.29 84.8C65.57 85.05 66.77 86.15 67.96 87.23C69.14 88.31 70.51 89.49 70.99 89.85C71.48 90.21 72.45 90.79 73.15 91.14C73.86 91.49 74.94 91.88 75.55 92.01C76.17 92.14 77.03 92.24 77.47 92.25L78.27 92.25C78.07 91.19 77.83 90.49 77.6 90.01C77.29 89.33 76.66 88.61 74.92 86.89C73.67 85.66 72.25 84.18 71.78 83.61C71.3 83.04 70.68 82.18 70.41 81.69C70.14 81.21 69.84 80.56 69.74 80.26C69.64 79.95 69.29 79.42 68.96 79.08C68.63 78.74 67.95 78.19 67.45 77.85L66.54 77.24L66.05 77.59ZM89.84 78.38C88.74 79.16 88.61 79.32 87.94 80.67C87.55 81.47 86.9 82.55 86.51 83.07C86.12 83.59 85.04 84.73 84.12 85.61C83.2 86.49 82 87.64 81.47 88.17C80.84 88.78 80.31 89.5 79.99 90.17C79.72 90.74 79.45 91.44 79.4 91.73L79.31 92.25C80.86 92.25 81.88 92.1 82.59 91.92C83.29 91.74 84.41 91.3 85.07 90.94C85.73 90.59 86.7 89.96 87.22 89.55C87.75 89.14 88.9 88.16 89.78 87.37C90.66 86.58 91.72 85.64 92.14 85.29C92.86 84.69 92.91 84.6 93 83.69C93.05 83.17 93.06 82.5 93.03 82.21L92.98 81.68C89.26 84.2 87.84 85.17 87.42 85.47C87.01 85.77 86.58 85.97 86.47 85.91C86.34 85.85 86.81 85.27 87.78 84.3C88.62 83.47 90.11 82.08 91.1 81.2L92.9 79.62C92.53 78.69 92.2 78.22 91.94 77.98C91.68 77.74 91.36 77.54 91.24 77.54C91.12 77.54 90.49 77.92 89.84 78.38Z" />
		<path class="shp0" d="M109.69 77.77C109.03 77.9 107.66 78.27 106.65 78.6C105.64 78.94 103.73 79.75 102.41 80.42C101.1 81.08 99.17 82.17 98.13 82.82C96.72 83.71 96.21 84.11 96.15 84.41C96.1 84.63 95.82 85.64 95.53 86.65C95.24 87.66 95.01 88.51 95.03 88.52C95.05 88.54 96.03 88.06 97.22 87.46C98.41 86.85 100.17 86.01 101.14 85.6C102.1 85.18 103.69 84.58 104.65 84.25C105.62 83.92 107.02 83.52 107.77 83.36C108.69 83.16 109.78 83.06 111.13 83.06C112.74 83.07 113.28 83.13 113.91 83.38C114.35 83.55 114.73 83.76 114.76 83.85C114.79 83.94 114.62 84.11 114.37 84.22C114.13 84.34 113.41 84.77 112.77 85.18C112.13 85.59 111.64 86 111.66 86.09C111.69 86.18 112.46 86.3 113.38 86.36C114.3 86.42 115.59 86.58 116.25 86.73C116.91 86.87 118.08 87.2 118.84 87.46C119.61 87.72 120.98 88.3 121.88 88.75C122.78 89.2 123.9 89.81 124.36 90.11C124.82 90.41 125.23 90.63 125.27 90.61C125.3 90.59 125.4 89.99 125.48 89.29C125.59 88.35 125.58 87.86 125.44 87.45C125.33 87.14 125.03 86.46 124.76 85.93C124.49 85.4 123.94 84.52 123.54 83.97C123.13 83.42 122.32 82.5 121.72 81.92C121.13 81.34 120.07 80.48 119.36 80.01C118.66 79.55 117.65 78.97 117.13 78.74C116.6 78.51 115.66 78.18 115.05 78C114.43 77.83 113.24 77.66 112.41 77.62C111.46 77.57 110.44 77.63 109.69 77.77Z" />
		<path fill-rule="evenodd" class="shp3" d="M46.93 82.56C48.5 82.61 49.42 82.73 50.69 83.06C51.61 83.3 53.01 83.74 53.81 84.04C54.6 84.35 56.18 85.03 57.32 85.56C58.47 86.1 60.13 86.94 62.66 88.33L64.45 93.53C65.43 96.38 67.13 101.1 68.23 104C69.33 106.9 70.5 109.85 70.83 110.55C71.18 111.28 71.77 112.19 72.22 112.66C72.68 113.15 73.35 113.66 73.87 113.9C74.55 114.21 75.21 114.34 76.75 114.47C78.05 114.58 79.4 114.59 80.59 114.5C81.97 114.39 82.65 114.26 83.31 113.97C83.79 113.75 84.49 113.27 84.87 112.9C85.24 112.53 85.71 111.96 85.92 111.63C86.12 111.3 86.65 110.2 87.1 109.19C87.55 108.18 88.76 105.2 89.79 102.56C90.82 99.92 92.4 95.71 94.94 88.65L97 87.57C98.13 86.98 99.92 86.13 100.98 85.67C102.03 85.22 103.69 84.57 104.65 84.25C105.62 83.92 107.02 83.52 107.77 83.36C108.69 83.16 109.78 83.06 111.13 83.06C112.74 83.07 113.28 83.13 113.91 83.38C114.35 83.55 114.73 83.76 114.76 83.85C114.79 83.94 114.62 84.11 114.37 84.22C114.13 84.34 113.41 84.77 112.77 85.18C112.13 85.59 111.64 86 111.66 86.09C111.69 86.18 112.46 86.3 113.38 86.36C114.3 86.42 115.59 86.58 116.25 86.73C116.91 86.87 118.08 87.2 118.84 87.46C119.61 87.72 121.02 88.32 121.96 88.8C122.91 89.27 124.05 89.9 125.31 90.73L125.09 92.01C124.97 92.71 124.76 93.72 124.63 94.24C124.5 94.77 124.34 95.26 124.27 95.34C124.21 95.41 123.87 95.13 123.52 94.71C123.17 94.29 122.52 93.67 122.08 93.33C121.64 92.99 121.27 92.74 121.25 92.76C121.24 92.79 121.14 93.74 121.04 94.88C120.94 96.03 120.72 97.68 120.54 98.56C120.36 99.44 119.97 100.99 119.66 102C119.35 103.01 118.72 104.63 118.25 105.6C117.77 106.56 116.95 108.02 116.42 108.83C115.88 109.65 115.39 110.31 115.33 110.32C115.26 110.32 115.11 110.01 114.99 109.64C114.87 109.26 114.44 108.31 114.03 107.53C113.62 106.75 112.89 105.63 112.4 105.05C111.91 104.47 110.98 103.61 110.32 103.15C109.54 102.59 108.7 102.16 107.85 101.88C106.77 101.53 106.27 101.47 104.65 101.46C103.38 101.46 102.36 101.55 101.62 101.73C101 101.88 100.46 101.95 100.42 101.9C100.37 101.85 100.73 101.45 101.22 101.02C101.7 100.59 102.56 99.99 103.13 99.69C103.71 99.39 104.64 99.03 105.21 98.89C105.78 98.76 106.65 98.65 107.13 98.65C107.62 98.65 108.52 98.75 109.13 98.89C109.75 99.02 110.84 99.41 111.57 99.76C112.29 100.11 113.64 100.98 114.57 101.68C115.49 102.38 116.32 102.92 116.41 102.88C116.49 102.83 116.78 102.1 117.05 101.24C117.31 100.38 117.63 99.12 117.77 98.44C117.9 97.76 118.01 97.04 118.01 96.84C118.01 96.55 117.74 96.35 116.45 95.7C115.59 95.27 114.28 94.72 113.53 94.48C112.78 94.24 111.56 93.92 110.81 93.78C110.06 93.63 108.73 93.51 107.85 93.51C106.97 93.51 105.78 93.61 105.21 93.75C104.64 93.88 103.9 94.1 103.57 94.23C103.24 94.37 102.94 94.48 102.89 94.48C102.85 94.48 102.81 94.43 102.81 94.36C102.81 94.3 103.33 93.65 103.97 92.91C104.73 92.04 105.08 91.53 104.97 91.43C104.87 91.33 104.36 91.59 103.53 92.18C102.83 92.68 101.72 93.54 101.06 94.09C100.4 94.64 99.17 95.8 98.33 96.66C97.5 97.53 96.32 98.85 95.73 99.6C95.13 100.35 94.15 101.68 93.55 102.56C92.95 103.44 91.97 105.02 91.38 106.08C90.78 107.13 89.97 108.68 89.58 109.51C89.2 110.35 88.47 112.15 87.96 113.51C87.45 114.87 86.78 116.89 86.46 117.99C86.14 119.08 85.8 120.27 85.72 120.62C85.57 121.22 85.51 121.27 84.95 121.3C84.62 121.33 83.48 121.42 82.43 121.52C81.37 121.61 79.79 121.69 78.91 121.7C78.03 121.71 76 121.58 71.5 121.1L70.93 118.86C70.61 117.63 70.04 115.66 69.65 114.47C69.27 113.28 68.65 111.59 68.28 110.71C67.91 109.83 67.04 108 66.35 106.63C65.66 105.27 64.52 103.29 63.82 102.24C63.12 101.18 61.93 99.56 61.19 98.64C60.45 97.72 58.95 96.09 57.86 95.03C56.77 93.97 55.18 92.57 54.32 91.92C53.28 91.12 52.7 90.78 52.59 90.89C52.49 90.99 52.84 91.53 53.64 92.49C54.3 93.28 54.81 93.98 54.76 94.04C54.72 94.11 54.24 93.98 53.69 93.74C53.14 93.51 52.11 93.22 51.41 93.09C50.56 92.94 49.67 92.9 48.77 92.96C48.02 93.02 46.87 93.18 46.21 93.31C45.55 93.45 44.36 93.77 43.57 94.04C42.78 94.3 41.52 94.81 39.41 95.81L39.55 96.86C39.62 97.45 39.88 98.71 40.13 99.68C40.38 100.65 40.67 101.64 40.76 101.88C40.86 102.12 40.99 102.32 41.05 102.32C41.12 102.32 41.61 101.98 42.13 101.56C42.66 101.14 43.67 100.44 44.37 100C45.08 99.56 46.26 98.99 47.01 98.73C48.22 98.3 48.57 98.25 50.21 98.25C51.75 98.26 52.2 98.32 53.01 98.63C53.53 98.83 54.43 99.31 55.01 99.69C55.58 100.07 56.26 100.6 56.52 100.86C56.79 101.13 56.97 101.4 56.92 101.45C56.88 101.5 56.27 101.41 55.56 101.26C54.84 101.1 53.6 100.98 52.69 100.98C51.67 100.98 50.71 101.08 50.05 101.26C49.48 101.41 48.55 101.77 47.98 102.05C47.42 102.33 46.49 102.99 45.92 103.52C45.35 104.04 44.58 104.91 44.2 105.44C43.82 105.96 43.23 107.01 42.89 107.75C42.54 108.5 42.21 109.26 42.14 109.43C42.04 109.73 42.01 109.72 41.62 109.27C41.39 109.01 40.81 108.11 40.32 107.27C39.83 106.44 39.16 105.07 38.82 104.24C38.48 103.4 38.02 102.14 37.8 101.44C37.58 100.74 37.22 99.3 37.01 98.24C36.79 97.19 36.56 95.37 36.49 94.2C36.4 92.57 36.33 92.09 36.16 92.09C36.04 92.09 35.33 92.68 33.26 94.72L33.03 93.92C32.89 93.49 32.68 92.44 32.54 91.61C32.41 90.77 32.3 90 32.3 89.89C32.3 89.78 32.35 89.7 32.42 89.72C32.49 89.74 33.04 89.46 33.66 89.1C34.27 88.74 35.07 88.3 35.42 88.13C35.77 87.95 36.6 87.58 37.26 87.32C37.92 87.06 39.18 86.66 40.05 86.44C40.93 86.21 42.21 85.96 42.89 85.86C43.57 85.77 44.56 85.69 45.09 85.69C45.78 85.69 46.04 85.63 46 85.49C45.98 85.38 45.41 84.93 44.75 84.49C44.09 84.05 43.41 83.61 43.24 83.51C42.98 83.36 42.97 83.29 43.15 83.11C43.26 82.99 43.7 82.8 44.11 82.69C44.59 82.56 45.57 82.52 46.93 82.56ZM68.11 90.49L69.11 91.3C69.67 91.74 70.73 92.47 71.47 92.92C72.22 93.37 72.85 93.76 72.87 93.79C72.9 93.82 72.71 94.26 72.45 94.76C72.2 95.27 71.85 96.15 71.67 96.72C71.49 97.29 71.28 98.22 71.21 98.78C71.14 99.34 71.02 99.82 70.95 99.86C70.89 99.89 70.66 99.69 70.45 99.4C70.24 99.11 69.88 98.5 69.65 98.04C69.42 97.58 69.09 96.68 68.91 96.04C68.73 95.41 68.48 94.2 68.35 93.37C68.22 92.53 68.12 91.54 68.12 91.17L68.11 90.49ZM89.42 90.81C89.49 90.81 89.54 90.86 89.54 90.93C89.54 90.99 89.47 91.66 89.38 92.41C89.29 93.15 89.03 94.5 88.82 95.4C88.6 96.3 88.22 97.46 87.96 97.96C87.71 98.47 87.32 99.11 87.08 99.4C86.85 99.69 86.61 99.92 86.55 99.92C86.48 99.92 86.37 99.55 86.3 99.08C86.23 98.62 86.06 97.77 85.92 97.2C85.78 96.63 85.44 95.66 84.64 93.92L85.93 93.16C86.64 92.74 87.69 92.04 88.26 91.61C88.84 91.17 89.36 90.82 89.42 90.81ZM75.63 96.82C76.03 96.87 76.53 97.01 76.75 97.12C77.06 97.27 77.32 97.75 77.87 99.18C78.27 100.21 78.65 101.03 78.72 101C78.79 100.98 79.19 100.14 79.6 99.13C80.24 97.58 80.42 97.28 80.83 97.1C81.09 96.99 81.69 96.89 82.15 96.89C82.62 96.89 83.22 97 83.51 97.14C83.79 97.29 84.12 97.47 84.23 97.54C84.38 97.65 84.34 98.07 84.03 99.48C83.81 100.47 83.53 101.57 83.4 101.92C83.27 102.27 82.85 102.85 82.47 103.2C82.06 103.57 81.44 103.94 80.98 104.08C80.49 104.23 79.56 104.32 78.51 104.31C77.02 104.31 76.73 104.26 75.91 103.87C75.24 103.55 74.86 103.24 74.51 102.72C74.23 102.3 73.9 101.45 73.72 100.68C73.54 99.95 73.38 98.89 73.31 97.28L74.11 97C74.66 96.81 75.14 96.75 75.63 96.82ZM73.95 104.96L74.13 106.32C74.23 107.06 74.43 108.11 74.59 108.63C74.74 109.16 74.97 109.81 75.11 110.07C75.24 110.34 75.5 110.72 76.03 111.31L75.07 111.23C74.54 111.19 73.81 111 73.43 110.81C73.06 110.62 72.61 110.27 72.42 110.03C72.24 109.79 72.06 109.45 72.01 109.27C71.96 109.1 72.04 108.59 72.17 108.15C72.31 107.71 72.77 106.81 73.19 106.16L73.95 104.96ZM83.64 105.44C83.82 105.61 84.24 106.33 84.58 107.03C84.93 107.74 85.25 108.53 85.3 108.79C85.36 109.12 85.29 109.44 85.07 109.79C84.89 110.08 84.48 110.49 84.15 110.71C83.82 110.93 83.13 111.18 82.63 111.27C82.12 111.36 81.64 111.39 81.55 111.35C81.45 111.3 81.47 111.16 81.61 110.99C81.73 110.84 81.98 110.41 82.17 110.03C82.36 109.66 82.65 108.83 82.82 108.19C82.99 107.56 83.17 106.6 83.23 106.08C83.33 105.12 83.33 105.12 83.64 105.44ZM68.73 125.25C68.88 125.29 70.33 125.55 71.95 125.82C73.58 126.08 75.11 126.3 75.35 126.3C75.65 126.3 76.29 126.68 77.35 127.47C78.21 128.11 80.06 129.43 81.47 130.4C82.88 131.37 85.36 133 86.98 134.01C88.61 135.03 91.13 136.52 92.58 137.34C94.03 138.15 96.69 139.55 98.5 140.44C100.3 141.33 102.85 142.52 104.17 143.08C105.49 143.64 107.87 144.56 109.45 145.13C111.03 145.69 113.41 146.47 114.73 146.84C116.05 147.22 118.03 147.71 119.12 147.94C120.22 148.16 121.5 148.4 121.97 148.47C122.43 148.54 122.81 148.66 122.8 148.72C122.8 148.79 122.24 148.84 121.56 148.84C120.88 148.84 119.03 148.77 117.45 148.68C115.86 148.59 113.45 148.41 112.09 148.28C110.73 148.15 108.82 147.93 107.85 147.79C106.88 147.65 105.59 147.43 104.97 147.3C104.36 147.17 103.6 147.03 103.29 146.99C102.99 146.95 102.3 146.76 101.78 146.57C101.25 146.38 99.48 145.62 97.86 144.88C96.23 144.14 93.35 142.74 91.46 141.76C89.57 140.79 86.84 139.31 85.39 138.48C83.93 137.65 81.99 136.5 81.07 135.92C80.15 135.35 78.63 134.36 77.71 133.72C76.79 133.08 75.48 132.14 74.81 131.63C74.14 131.12 72.93 130.12 72.11 129.42C71.3 128.71 70.11 127.53 69.46 126.78C68.82 126.03 68.33 125.36 68.38 125.29C68.43 125.22 68.59 125.2 68.73 125.25ZM150.26 142.3C151.1 142.29 151.68 142.39 152.34 142.64C152.91 142.86 153.6 143.3 154.14 143.81C154.63 144.27 155.25 145.06 155.53 145.58C155.8 146.1 156.15 146.92 156.29 147.4C156.43 147.89 156.55 148.53 156.55 149.4L154.03 150.58C152.64 151.23 150.37 152.31 148.98 152.98C147.59 153.65 146.46 154.29 146.46 154.4C146.46 154.51 146.5 154.6 146.55 154.6C146.59 154.6 147.47 154.41 148.51 154.19C149.54 153.96 151.61 153.53 153.1 153.22C154.6 152.92 156.68 152.51 157.74 152.32C159.34 152.03 160.22 151.97 163.1 151.97C165.73 151.98 166.81 152.04 167.73 152.25C168.39 152.4 169.29 152.69 169.73 152.89C170.17 153.09 171 153.69 171.57 154.23C172.14 154.76 172.82 155.58 173.08 156.05C173.39 156.64 173.56 157.22 173.61 157.87C173.67 158.61 173.6 159.05 173.32 159.79C173.11 160.32 172.69 161.03 172.38 161.37C172.07 161.7 171.38 162.19 170.85 162.45C170.06 162.83 169.53 162.94 167.78 163.11C166.63 163.22 165.64 163.27 165.58 163.23C165.53 163.19 165.56 162.66 165.65 162.07C165.74 161.48 165.77 160.61 165.71 160.15C165.66 159.69 165.46 158.92 165.28 158.43C165.07 157.87 164.67 157.28 164.18 156.79C163.76 156.38 163.16 155.93 162.86 155.8C162.55 155.66 161.92 155.51 161.46 155.46C161 155.41 159.93 155.44 159.1 155.54C158.26 155.64 155.78 156.08 153.58 156.51C151.38 156.95 148.58 157.44 147.35 157.62C146.12 157.8 144.03 158.02 142.71 158.13C141.24 158.24 138.83 158.28 136.47 158.23C134.36 158.18 131.7 158.02 130.56 157.88C129.41 157.74 127.83 157.52 127.04 157.38C126.25 157.24 125.56 157.1 125.52 157.06C125.48 157.02 125.48 156.96 125.52 156.91C125.56 156.87 127.69 156.4 130.24 155.88C132.79 155.35 135.92 154.67 137.19 154.35C138.47 154.03 140.39 153.49 141.47 153.14C142.74 152.74 143.41 152.45 143.38 152.32C143.34 152.19 142.89 152.09 142.11 152.04C141.44 151.99 140.84 151.9 140.76 151.84C140.69 151.77 140.67 151.7 140.71 151.67C140.75 151.65 142.16 151.18 143.83 150.63C145.5 150.08 147.59 149.28 148.47 148.86C149.47 148.37 150.26 147.87 150.58 147.5C150.96 147.08 151.1 146.77 151.1 146.36C151.1 146.06 151 145.59 150.86 145.32C150.73 145.06 150.43 144.71 150.18 144.54C149.94 144.37 149.46 144.12 149.11 143.99C148.75 143.86 148.12 143.73 147.69 143.7C147.26 143.67 146.83 143.6 146.73 143.54C146.62 143.48 146.85 143.28 147.27 143.08C147.66 142.88 148.24 142.63 148.55 142.51C148.85 142.4 149.63 142.3 150.26 142.3ZM173.57 165.16C173.66 165.15 174.32 165.43 175.05 165.79C175.77 166.14 176.7 166.73 177.1 167.11C177.5 167.48 177.98 168.11 178.16 168.51C178.43 169.08 178.48 169.42 178.41 170.18C178.37 170.71 178.18 171.45 177.99 171.82C177.8 172.2 177.41 172.77 177.13 173.09C176.84 173.41 176.18 173.95 175.65 174.29C175.12 174.63 174.11 175.1 173.41 175.34C172.43 175.67 171.83 175.77 170.85 175.77C170.15 175.77 169.27 175.68 168.21 175.38L168.47 174.62C168.65 174.07 168.69 173.54 168.63 172.7C168.57 172.06 168.35 171 168.13 170.34C167.91 169.68 167.52 168.71 167.25 168.19C166.99 167.66 166.77 167.21 166.77 167.19C166.77 167.16 167.38 167.09 168.13 167.03C168.88 166.96 170.05 166.72 170.73 166.5C171.41 166.28 172.29 165.88 172.69 165.63C173.09 165.38 173.48 165.16 173.57 165.16ZM176.25 178.11C176.31 178.1 176.59 178.44 176.85 178.86C177.12 179.27 177.44 179.98 177.57 180.42C177.7 180.86 177.81 181.48 177.81 181.81C177.81 182.14 177.65 182.83 177.46 183.33C177.24 183.92 176.84 184.52 176.38 184.99C175.98 185.39 175.29 185.9 174.85 186.13C174.41 186.35 173.58 186.67 173.01 186.83C172.21 187.05 171.41 187.12 169.57 187.12C167.63 187.11 166.93 187.04 165.89 186.77C165.19 186.58 164 186.21 161.9 185.5L162.78 185.21C163.37 185.01 163.9 184.68 164.39 184.18C164.95 183.63 165.2 183.21 165.45 182.41C165.63 181.84 165.82 180.75 165.87 179.98C165.97 178.63 165.99 178.58 166.33 178.65C166.53 178.69 167.13 178.8 167.65 178.89C168.18 178.98 169.4 179.06 170.37 179.06C171.34 179.06 172.74 178.95 173.49 178.82C174.24 178.69 175.14 178.48 175.49 178.35C175.84 178.23 176.18 178.11 176.25 178.11ZM160.26 186.74C160.32 186.73 160.72 187 161.14 187.33C161.56 187.66 162.47 188.29 163.18 188.73C163.88 189.17 164.96 189.74 165.57 190.01C166.19 190.27 166.72 190.56 166.76 190.65C166.79 190.74 166.33 191.15 165.72 191.56C165.11 191.97 164.04 192.51 163.34 192.75C162.26 193.11 161.78 193.18 160.38 193.19C158.89 193.19 158.52 193.13 157.18 192.66C156.34 192.38 154.92 191.79 154.02 191.35C153.12 190.92 152.38 190.5 152.38 190.41C152.38 190.32 152.6 190.25 152.86 190.25C153.13 190.25 153.86 190.13 154.5 189.99C155.14 189.85 156.25 189.46 156.98 189.11C157.83 188.71 158.63 188.18 159.22 187.62C159.72 187.14 160.19 186.74 160.26 186.74Z" />
	</g>
</svg>