<svg xmlns="http://www.w3.org/2000/svg" viewBox="0 0 151 200" width="151" height="200">
	<style>
		tspan { white-space:pre }
		.shp0 { fill: #ffffff } 
		.shp1 { fill: #003c71 } 
	</style>
	<g >
		<path class="shp0" d="M16.88 0.61C16.25 0.93 15.3 1.47 14.78 1.81C14.26 2.15 13.44 2.75 12.96 3.14C12.47 3.53 11.73 4.21 11.31 4.66C10.89 5.1 10.28 5.81 9.97 6.23C9.65 6.65 9.19 7.34 8.94 7.76C8.69 8.18 8.27 9.02 8 9.64C7.73 10.25 7.37 11.33 7.18 12.04C7 12.76 6.79 13.85 6.72 14.48C6.65 15.11 6.6 16.09 6.6 16.66C6.6 17.56 6.57 17.71 6.35 17.92C6.21 18.05 5.76 18.58 5.36 19.1C4.95 19.61 4.31 20.51 3.94 21.09C3.56 21.67 3 22.68 2.7 23.33C2.39 23.97 1.98 25.02 1.78 25.65C1.58 26.28 1.32 27.28 1.21 27.88C1.07 28.64 1.01 29.59 1.01 31.02C1.01 32.15 1.07 33.48 1.15 33.96C1.23 34.44 1.46 35.48 1.66 36.25L2.03 37.66C1.38 39.21 1.07 40.08 0.9 40.6C0.74 41.12 0.49 42.09 0.34 42.77C0.13 43.77 0.08 44.4 0.07 46.06C0.07 47.59 0.12 48.39 0.28 49.18C0.39 49.76 0.67 50.79 0.89 51.47C1.12 52.15 1.58 53.26 1.92 53.94C2.26 54.62 2.93 55.77 3.42 56.49C4.28 57.79 4.31 57.82 4.83 57.9C5.12 57.95 6.18 57.98 7.18 57.97C8.22 57.96 9.55 57.88 10.25 57.77C10.93 57.66 12.07 57.42 12.78 57.24C13.49 57.05 14.61 56.7 15.25 56.46C15.9 56.22 16.88 55.8 17.43 55.52C17.98 55.25 18.91 54.7 19.49 54.31C20.08 53.92 20.79 53.37 21.08 53.1L21.61 52.6C31.5 52.41 34.4 52.39 34.44 52.44C34.48 52.49 34.33 52.8 34.12 53.14C33.9 53.48 33.4 54.32 33.01 54.99C32.62 55.67 31.9 56.97 31.42 57.87C30.93 58.78 30.11 60.42 29.59 61.52C29.08 62.61 28.23 64.57 27.71 65.86C27.19 67.16 26.45 69.19 26.06 70.39C25.66 71.58 25.13 73.38 24.86 74.38C24.6 75.38 24.23 76.94 24.04 77.85C23.85 78.75 23.56 80.37 23.39 81.43C23.23 82.5 23.01 84.22 22.91 85.25C22.81 86.29 22.69 88.35 22.66 89.84C22.61 91.41 22.64 93.42 22.72 94.65C22.79 95.82 22.93 97.48 23.03 98.35C23.13 99.23 23.35 100.73 23.51 101.7C23.67 102.67 24.04 104.52 24.32 105.82C24.61 107.11 25.14 109.22 25.49 110.52C25.85 111.81 26.4 113.69 26.72 114.69C27.04 115.69 27.58 117.3 27.91 118.27C28.25 119.24 28.95 121.15 29.47 122.5C29.99 123.86 30.94 126.19 31.57 127.67C32.21 129.16 33.24 131.49 33.86 132.84C34.49 134.2 36.53 138.38 38.4 142.13C40.27 145.88 42.3 150.08 42.92 151.47C43.53 152.86 44.36 154.81 44.76 155.82C45.16 156.82 45.82 158.54 46.23 159.64C46.64 160.73 47.27 162.56 47.64 163.69C48.01 164.82 48.59 166.75 48.94 167.98C49.29 169.21 49.79 171.08 50.05 172.15C50.32 173.22 50.74 175.09 51 176.32C51.25 177.55 51.59 179.37 51.76 180.38C51.93 181.38 52.09 182.34 52.12 182.52C52.15 182.7 52.23 182.84 52.3 182.84C52.36 182.84 53.09 182.39 53.92 181.83C54.74 181.27 56.05 180.33 56.83 179.74C57.61 179.16 58.64 178.34 59.13 177.92C59.61 177.51 60.42 176.77 60.92 176.28C61.42 175.78 61.85 175.41 61.88 175.44C61.91 175.47 62.29 176.37 62.73 177.44C63.16 178.5 63.78 180.09 64.1 180.96C64.42 181.84 65.03 183.55 65.45 184.78C65.86 186.01 66.49 187.97 66.84 189.13C67.19 190.29 67.72 192.14 68.01 193.24C68.31 194.34 68.79 196.3 69.08 197.59C69.38 198.88 69.63 199.95 69.64 199.97C69.66 199.98 70.33 199.73 71.14 199.4C71.95 199.08 73.46 198.4 74.5 197.88C75.54 197.37 77.2 196.48 78.21 195.91C79.21 195.33 80.82 194.37 81.78 193.76C82.74 193.15 84.19 192.17 85.02 191.57C85.84 190.98 86.76 190.27 87.07 190.01C87.38 189.75 87.65 189.55 87.68 189.57C87.71 189.59 87.91 190.08 88.14 190.66C88.36 191.24 88.79 192.47 89.09 193.39C89.39 194.31 89.67 195.06 89.72 195.06C89.77 195.06 90.53 194.47 91.4 193.75C92.28 193.02 93.86 191.58 94.92 190.54C95.98 189.51 97.35 188.08 97.97 187.37C98.58 186.66 99.47 185.57 99.93 184.96C100.39 184.34 101.02 183.5 101.31 183.08C101.61 182.66 102.31 181.55 102.88 180.61C103.44 179.67 104.29 178.11 104.77 177.14C105.24 176.18 105.98 174.51 106.4 173.44C106.82 172.38 107.38 170.82 107.65 169.98C107.92 169.14 108.37 167.55 108.66 166.45C108.94 165.35 109.31 163.79 109.47 162.98C109.63 162.18 109.9 160.72 110.06 159.75C110.22 158.78 110.42 157.44 110.51 156.76C110.61 155.94 110.66 154.03 110.66 151.12C110.65 147.62 110.61 146.36 110.44 145.01C110.33 144.07 110.13 142.64 110 141.83C109.87 141.03 109.58 139.52 109.36 138.48C109.14 137.45 108.72 135.78 108.43 134.78C108.14 133.78 107.71 132.41 107.48 131.73C107.24 131.05 106.8 129.89 106.51 129.14C106.22 128.4 105.54 126.89 105.01 125.79C104.48 124.69 103.71 123.21 103.3 122.5C102.89 121.79 102.13 120.58 101.61 119.8C101.1 119.02 100.43 118.07 100.14 117.69C99.84 117.3 99.23 116.53 98.77 115.98C98.31 115.43 97.52 114.53 97.01 113.98C96.51 113.43 95.55 112.49 94.89 111.89C94.24 111.28 93.31 110.47 92.84 110.09C92.37 109.71 92.05 109.38 92.14 109.35C92.22 109.32 92.84 109.17 93.52 109.01C94.2 108.85 95.45 108.49 96.29 108.22C97.13 107.95 98.4 107.49 99.12 107.2C99.83 106.91 101.13 106.32 102 105.87C102.88 105.43 104.07 104.77 104.65 104.4C105.64 103.78 105.74 103.74 106.07 103.87C106.26 103.95 107.11 104.24 107.95 104.52C108.79 104.8 110.01 105.14 110.66 105.27C111.31 105.4 112.35 105.56 112.98 105.63C113.62 105.7 114.81 105.76 115.64 105.76C116.46 105.76 117.75 105.7 118.49 105.63C119.24 105.57 120.91 105.38 122.2 105.22C123.5 105.05 125.48 104.89 126.62 104.85C127.91 104.81 129.14 104.84 129.92 104.93C130.6 105 131.63 105.18 132.21 105.31C132.8 105.45 133.62 105.68 134.04 105.84C134.46 106 135.26 106.35 135.81 106.63C136.36 106.9 137.2 107.39 137.69 107.72C138.18 108.04 138.97 108.63 139.46 109.02C139.94 109.41 140.87 110.27 141.52 110.94C142.17 111.61 143.12 112.73 143.64 113.41C144.16 114.1 144.93 115.23 145.35 115.91C145.77 116.6 146.15 117.16 146.2 117.16C146.25 117.16 146.44 116.85 146.63 116.48C146.81 116.11 147.26 115.06 147.62 114.16C147.98 113.25 148.48 111.83 148.75 110.99C149.01 110.15 149.33 109.01 149.47 108.46C149.61 107.91 149.85 106.85 150 106.11C150.15 105.37 150.39 103.97 150.52 103C150.65 102.03 150.81 100.47 150.88 99.53C150.94 98.59 151 97.17 151 96.36C151 95.55 150.94 94.12 150.88 93.18C150.81 92.25 150.65 90.74 150.52 89.84C150.39 88.93 150.15 87.61 149.99 86.9C149.83 86.19 149.46 84.89 149.16 84.02C148.87 83.15 148.32 81.8 147.94 81.02C147.56 80.25 146.86 79.03 146.4 78.32C145.94 77.61 145.16 76.52 144.67 75.91C144.18 75.3 143.06 74.08 142.18 73.2C141.3 72.33 139.86 71.04 138.99 70.34C138.11 69.65 136.6 68.54 135.63 67.89L133.86 66.71C134.12 65.56 134.18 64.47 134.19 63.22C134.19 61.79 134.13 60.81 133.99 59.99C133.88 59.34 133.67 58.31 133.51 57.7C133.35 57.08 133.01 55.95 132.74 55.17C132.48 54.39 131.79 52.81 131.22 51.65C130.59 50.36 129.72 48.84 129 47.77C128.35 46.8 127.41 45.5 126.92 44.89C126.42 44.27 125.32 43.01 124.46 42.08C123.61 41.15 122.17 39.72 121.28 38.91C120.38 38.09 119.05 36.95 118.32 36.37C117.59 35.79 116.39 34.88 115.65 34.35C114.91 33.82 113.59 32.94 112.72 32.4C111.85 31.85 110.39 31 109.48 30.52C108.57 30.03 107.12 29.3 106.24 28.9C105.37 28.5 104.02 27.93 103.24 27.62C102.46 27.31 101.11 26.81 100.23 26.52C99.36 26.23 97.85 25.77 96.88 25.51C95.91 25.24 94.21 24.84 93.11 24.62C92.01 24.4 90.55 24.14 89.87 24.04C89.19 23.94 87.81 23.77 86.81 23.66C85.48 23.51 83.99 23.46 81.33 23.46C78.65 23.46 77.2 23.51 75.85 23.66C74.85 23.77 73.25 23.99 72.29 24.15C71.33 24.31 70.06 24.55 69.46 24.68C68.86 24.81 67.87 25.05 67.26 25.22C66.64 25.38 65.61 25.68 64.96 25.88C64.31 26.08 63.25 26.44 62.6 26.68C61.95 26.92 60.85 27.36 60.16 27.66C59.46 27.96 58.85 28.18 58.8 28.16C58.76 28.14 52.31 24.58 44.49 20.26L30.26 12.4C29.99 11.4 29.77 10.73 29.61 10.28C29.44 9.83 29.09 9.06 28.83 8.58C28.57 8.09 28.13 7.38 27.86 6.99C27.58 6.6 27.01 5.92 26.59 5.46C26.17 5.01 25.46 4.34 25.02 3.98C24.57 3.61 23.75 3.02 23.2 2.65C22.65 2.28 21.54 1.65 20.73 1.24C19.92 0.83 18.98 0.38 18.65 0.25L18.04 0.02L16.88 0.61Z" />
		<path class="shp1" d="M17.55 6.06C17.06 6.36 16.32 6.88 15.9 7.22C15.48 7.57 14.89 8.13 14.6 8.48C14.3 8.82 13.9 9.34 13.7 9.64C13.5 9.93 13.17 10.51 12.96 10.93C12.74 11.35 12.44 12.06 12.29 12.51C12.14 12.97 11.94 13.73 11.84 14.22C11.75 14.7 11.64 15.55 11.6 16.1L11.52 17.1C12.68 17.97 13.55 18.48 14.19 18.8C14.84 19.11 15.64 19.46 15.96 19.57C16.28 19.68 17.11 19.89 17.79 20.05C18.62 20.24 19.56 20.36 20.67 20.41C21.97 20.46 22.56 20.43 23.44 20.27C24.05 20.15 24.67 20.06 24.82 20.05C24.99 20.04 28.13 22.31 33.99 26.67C38.9 30.33 42.87 33.33 42.81 33.35C42.75 33.37 38.11 32.37 32.51 31.14C26.9 29.9 22.13 28.84 21.91 28.79C21.59 28.71 21.4 28.54 21.04 28C20.79 27.63 20.07 26.82 19.45 26.2C18.79 25.55 17.82 24.75 17.14 24.3C16.49 23.87 15.51 23.31 14.96 23.05C14.41 22.8 13.45 22.43 12.84 22.23C12.22 22.04 11.25 21.8 10.67 21.72L9.63 21.56C8.14 23.13 7.49 23.98 7.22 24.46C6.94 24.93 6.57 25.69 6.38 26.15C6.2 26.6 5.96 27.31 5.86 27.73C5.75 28.15 5.6 28.97 5.53 29.55C5.44 30.19 5.42 31.1 5.46 31.84C5.5 32.52 5.63 33.53 5.74 34.07L5.95 35.07C7.23 35.46 8.13 35.67 8.77 35.79C9.58 35.93 10.57 35.99 11.9 35.99C13.16 35.99 14.21 35.92 14.9 35.8C15.48 35.7 16.33 35.5 16.78 35.36C17.24 35.22 17.93 34.95 18.32 34.75C18.7 34.56 19.23 34.25 19.49 34.07L19.96 33.74C36.12 38.94 40.84 40.47 40.87 40.5C40.9 40.52 40.9 40.56 40.87 40.59C40.84 40.61 36.1 41.12 30.33 41.71C24.56 42.3 19.66 42.8 19.43 42.84C19.07 42.89 18.91 42.82 18.14 42.23C17.65 41.87 16.8 41.34 16.25 41.07C15.7 40.79 14.8 40.43 14.25 40.25C13.7 40.08 12.77 39.86 12.19 39.76C11.61 39.65 10.44 39.57 9.6 39.56C8.76 39.56 7.59 39.63 7.01 39.72L5.95 39.88C5.52 40.89 5.27 41.58 5.11 42.07C4.95 42.55 4.74 43.45 4.64 44.07C4.51 44.85 4.47 45.58 4.52 46.53C4.56 47.28 4.66 48.23 4.76 48.65C4.85 49.07 5.09 49.86 5.29 50.41C5.49 50.96 5.91 51.86 6.22 52.41L6.8 53.41C9.06 53.4 9.99 53.31 10.6 53.19C11.15 53.07 12.11 52.82 12.72 52.62C13.34 52.42 14.29 52.05 14.84 51.78C15.39 51.52 16.29 51.01 16.84 50.64C17.39 50.27 18.23 49.57 18.7 49.07L19.55 48.18C33.02 47.91 37.88 47.81 39.05 47.77L41.17 47.71L41.46 50.29C40.05 52.29 39.19 53.58 38.64 54.43C38.09 55.29 37.3 56.57 36.89 57.29C36.47 58 35.74 59.31 35.26 60.19C34.78 61.08 34 62.64 33.53 63.66C33.05 64.68 32.29 66.44 31.83 67.57C31.38 68.7 30.69 70.6 30.3 71.8C29.91 72.99 29.35 74.95 29.05 76.15C28.75 77.34 28.37 79.06 28.21 79.96C28.04 80.87 27.81 82.4 27.68 83.37C27.56 84.34 27.4 85.88 27.33 86.78C27.26 87.69 27.21 89.69 27.21 91.25C27.21 92.8 27.26 94.75 27.33 95.59C27.39 96.43 27.53 97.83 27.63 98.71C27.73 99.58 27.99 101.3 28.21 102.53C28.43 103.75 28.83 105.71 29.1 106.87C29.37 108.04 29.92 110.15 30.33 111.57C30.74 113 31.38 115.03 31.75 116.1C32.12 117.17 32.76 118.94 33.19 120.04C33.61 121.13 34.42 123.12 34.99 124.44C35.55 125.77 36.59 128.07 37.28 129.55C37.97 131.04 40.01 135.24 41.81 138.9C43.61 142.55 45.47 146.35 45.94 147.36C46.41 148.36 47.13 149.94 47.55 150.88C47.97 151.82 48.67 153.46 49.12 154.52C49.56 155.59 50.24 157.31 50.62 158.34C51.01 159.38 51.54 160.86 51.81 161.63C52.07 162.41 52.56 163.94 52.89 165.04C53.22 166.14 53.72 167.96 54 169.1C54.28 170.23 54.68 171.97 54.88 172.97C55.09 173.97 55.26 174.81 55.28 174.82C55.29 174.83 55.64 174.57 56.07 174.24C56.49 173.91 57.39 173.15 58.07 172.55C58.75 171.96 60.11 170.65 61.1 169.64C62.09 168.63 62.92 167.82 62.94 167.83C62.97 167.85 63.35 168.52 63.79 169.33C64.22 170.14 64.99 171.67 65.49 172.74C65.99 173.8 66.69 175.36 67.05 176.2C67.41 177.04 67.98 178.42 68.32 179.26C68.65 180.1 69.29 181.77 69.73 182.96C70.16 184.16 70.84 186.11 71.23 187.31C71.63 188.5 72.14 190.17 72.38 191.01C72.62 191.85 72.86 192.59 72.91 192.66C72.98 192.73 73.68 192.42 74.82 191.82C75.81 191.29 77.28 190.48 78.09 190.01C78.9 189.54 80.17 188.76 80.92 188.28C81.66 187.79 82.86 186.96 83.57 186.42C84.28 185.89 85.29 185.1 85.81 184.67C86.32 184.24 87.37 183.3 88.13 182.6L89.52 181.32C89.86 182.09 90.13 182.69 90.34 183.14C90.55 183.59 90.95 184.65 91.24 185.49C91.52 186.33 91.77 187.03 91.79 187.05C91.8 187.06 92.21 186.72 92.69 186.28C93.17 185.85 94.08 184.88 94.72 184.14C95.36 183.39 96.3 182.2 96.81 181.49C97.33 180.78 98.18 179.49 98.7 178.61C99.23 177.74 100.08 176.18 100.58 175.15C101.09 174.11 101.77 172.61 102.09 171.8C102.42 170.99 102.88 169.75 103.12 169.04C103.36 168.33 103.76 167 104.02 166.1C104.27 165.19 104.69 163.42 104.95 162.16C105.2 160.9 105.52 159.05 105.65 158.05C105.78 157.05 105.94 155.33 106.02 154.23C106.1 153.02 106.13 151.14 106.09 149.47C106.05 147.95 105.93 145.94 105.83 145.01C105.73 144.07 105.54 142.65 105.41 141.86C105.29 141.07 105.05 139.8 104.88 139.04C104.72 138.28 104.41 136.97 104.18 136.13C103.96 135.29 103.52 133.84 103.2 132.9C102.89 131.97 102.43 130.7 102.18 130.08C101.94 129.47 101.45 128.36 101.11 127.61C100.76 126.87 100.15 125.66 99.76 124.91C99.36 124.17 98.63 122.95 98.15 122.21C97.66 121.47 96.9 120.41 96.46 119.86C96.02 119.31 95.44 118.65 95.16 118.39L94.67 117.92C94.79 119.1 94.88 119.98 94.95 120.62C95.02 121.27 95.08 123.01 95.09 124.5C95.09 125.99 95.06 127.67 95.02 128.23C94.97 128.8 94.89 129.25 94.83 129.23C94.77 129.21 94.35 128.46 93.88 127.56C93.42 126.65 92.6 125.25 92.06 124.44C91.51 123.63 90.65 122.47 90.13 121.86C89.62 121.24 88.56 120.13 87.79 119.39C87.02 118.64 85.89 117.64 85.28 117.16C84.66 116.69 83.57 115.92 82.86 115.45C82.15 114.99 81.04 114.32 80.39 113.96C79.74 113.6 78.79 113.12 78.27 112.88C77.75 112.64 77.31 112.45 77.3 112.45C77.28 112.45 77.29 112.52 77.32 112.6C77.34 112.68 77.42 113.65 77.5 114.75C77.6 116.21 77.6 117.29 77.51 118.77C77.44 119.89 77.3 121.34 77.2 122C77.11 122.67 76.89 123.78 76.73 124.47C76.57 125.17 76.39 125.76 76.32 125.79C76.26 125.83 76.07 125.57 75.9 125.24C75.73 124.9 75.19 123.9 74.7 123.03C74.21 122.16 73.37 120.76 72.82 119.92C72.27 119.08 71.38 117.81 70.86 117.1C70.33 116.39 69.36 115.17 68.71 114.39C68.06 113.62 66.98 112.38 66.31 111.63C65.64 110.89 63.74 108.83 62.07 107.05C60.4 105.27 58.6 103.32 58.08 102.7C57.55 102.09 56.65 100.98 56.08 100.24C55.51 99.49 54.67 98.33 54.22 97.65C53.77 96.97 53.12 95.94 52.77 95.36C52.43 94.78 51.82 93.64 51.41 92.83C51.01 92.02 50.38 90.62 50.02 89.72C49.66 88.81 49.19 87.44 48.96 86.66C48.74 85.89 48.44 84.7 48.31 84.02C48.17 83.34 48 82.34 47.92 81.79C47.85 81.24 47.78 79.86 47.78 78.73C47.78 77.28 47.84 76.33 47.99 75.5C48.11 74.85 48.31 73.98 48.44 73.56C48.57 73.14 48.82 72.51 49 72.15C49.18 71.79 49.43 71.4 49.57 71.27L49.81 71.03C49.93 73.13 50.06 74.56 50.19 75.56C50.32 76.56 50.55 77.99 50.72 78.73C50.89 79.47 51.15 80.53 51.31 81.08C51.47 81.63 51.82 82.69 52.09 83.43C52.36 84.17 53.04 85.71 53.61 86.84C54.18 87.97 55.05 89.5 55.54 90.25C56.04 90.99 56.96 92.23 57.58 93.01C58.21 93.78 59.38 95.08 60.19 95.89C61 96.69 62.22 97.8 62.9 98.35C63.58 98.89 64.72 99.72 65.43 100.19C66.14 100.66 67.33 101.36 68.08 101.75C68.82 102.14 69.99 102.69 70.67 102.98C71.35 103.26 72.44 103.66 73.09 103.87C73.73 104.08 74.9 104.4 75.68 104.59C76.45 104.77 77.86 105.04 78.8 105.19C80.3 105.42 80.94 105.46 84.1 105.45C87.24 105.45 87.91 105.42 89.4 105.19C90.34 105.04 91.72 104.79 92.46 104.62C93.21 104.46 94.72 104.03 95.82 103.67C97.2 103.22 98.42 102.71 99.76 102.04C100.83 101.5 102.18 100.72 102.77 100.3C103.35 99.88 104.15 99.22 104.53 98.85L105.24 98.16C106.24 98.87 106.96 99.28 107.48 99.53C108 99.78 108.87 100.11 109.42 100.27C109.97 100.43 110.9 100.65 111.48 100.76C112.15 100.89 113.45 100.98 115.02 101.02C116.85 101.07 117.97 101.03 119.32 100.89C120.32 100.78 121.96 100.57 122.97 100.41C123.97 100.25 125.59 100.07 126.56 100C127.83 99.91 128.79 99.91 129.98 100C130.88 100.07 132.18 100.24 132.86 100.37C133.54 100.5 134.73 100.82 135.51 101.07C136.29 101.32 137.45 101.79 138.1 102.11C138.75 102.43 139.76 103 140.34 103.39C140.92 103.78 141.88 104.51 142.46 105.03C143.04 105.54 143.87 106.39 144.29 106.91C144.71 107.43 145.09 107.86 145.14 107.87C145.19 107.87 145.39 107.2 145.58 106.37C145.77 105.55 146.03 104.32 146.16 103.64C146.29 102.96 146.47 101.7 146.57 100.82C146.66 99.95 146.78 98.55 146.82 97.71C146.86 96.87 146.83 95.33 146.76 94.3C146.69 93.27 146.53 91.81 146.4 91.07C146.27 90.33 146.01 89.14 145.83 88.43C145.64 87.71 145.29 86.6 145.05 85.96C144.81 85.31 144.31 84.17 143.94 83.43C143.57 82.69 142.97 81.6 142.61 81.02C142.25 80.44 141.57 79.46 141.1 78.85C140.62 78.23 139.62 77.1 138.87 76.34C138.13 75.57 136.93 74.46 136.22 73.88C135.51 73.3 134.45 72.49 133.86 72.09C133.28 71.69 132.3 71.05 131.68 70.68C131.07 70.31 130.02 69.72 129.36 69.37L128.15 68.74C128.7 67.88 128.99 67.23 129.15 66.75C129.3 66.26 129.49 65.49 129.57 65.04C129.66 64.5 129.69 63.55 129.65 62.22C129.6 60.8 129.51 59.92 129.33 59.17C129.2 58.58 128.9 57.55 128.67 56.87C128.44 56.2 127.88 54.9 127.44 54C127 53.09 126.16 51.64 125.59 50.76C125.01 49.89 124.01 48.52 123.36 47.71C122.71 46.9 121.63 45.65 120.95 44.92C120.28 44.2 119.17 43.09 118.49 42.46C117.81 41.84 116.8 40.95 116.25 40.49C115.7 40.03 114.72 39.25 114.07 38.76C113.43 38.27 112.13 37.37 111.19 36.75C110.25 36.14 108.87 35.29 108.13 34.87C107.38 34.45 106.24 33.84 105.59 33.52C104.95 33.2 103.78 32.66 103 32.32C102.23 31.98 100.89 31.44 100.03 31.13C99.17 30.81 97.85 30.36 97.08 30.13C96.32 29.91 95.17 29.58 94.52 29.42C93.87 29.26 92.71 28.99 91.93 28.84C91.15 28.68 89.71 28.44 88.72 28.32C87.73 28.19 85.85 28.03 84.54 27.97C82.98 27.9 81.28 27.9 79.62 27.97C78.23 28.04 76.4 28.17 75.56 28.27C74.72 28.36 73.52 28.52 72.91 28.62C72.29 28.72 71.15 28.93 70.38 29.09C69.6 29.25 68.27 29.57 67.43 29.8C66.59 30.03 65.26 30.45 64.49 30.73C63.71 31.01 62.65 31.44 62.13 31.67C61.61 31.91 60.69 32.39 60.07 32.75C58.95 33.4 58.95 33.4 58.6 33.21C58.4 33.1 51.28 29.11 42.77 24.35L27.29 15.69C26.79 13.68 26.5 12.76 26.3 12.34C26.11 11.92 25.72 11.2 25.43 10.75C25.14 10.3 24.58 9.59 24.18 9.17C23.79 8.75 23.19 8.18 22.84 7.91C22.49 7.64 21.84 7.21 21.41 6.94C20.97 6.68 20.14 6.25 19.55 5.99C18.97 5.73 18.48 5.52 18.46 5.52C18.45 5.52 18.04 5.76 17.55 6.06Z" />
		<path fill-rule="evenodd" class="shp0" d="M113.15 44.77C113.17 44.77 113.41 44.92 113.67 45.09C113.94 45.27 114.29 45.59 114.44 45.8C114.6 46.01 114.8 46.41 114.9 46.68C115 46.96 115.08 47.42 115.08 47.71C115.07 48 115.01 48.45 114.93 48.71C114.84 48.99 114.54 49.42 114.19 49.78C113.74 50.25 113.45 50.43 112.96 50.58C112.6 50.68 112.15 50.77 111.95 50.77C111.76 50.77 111.34 50.69 111.01 50.59C110.69 50.5 110.17 50.26 109.86 50.06C109.51 49.84 109.19 49.5 108.99 49.15C108.82 48.84 108.64 48.39 108.54 47.71L109.13 47.89C109.45 47.98 110.05 48.06 110.45 48.06C110.86 48.06 111.33 48 111.51 47.94C111.69 47.87 111.99 47.67 112.17 47.5C112.36 47.32 112.61 46.98 112.73 46.74C112.85 46.5 112.99 45.95 113.03 45.53C113.07 45.11 113.12 44.77 113.15 44.77ZM119.43 51.11C119.53 51.16 119.84 51.46 120.12 51.78C120.4 52.09 120.73 52.64 120.86 53C121.05 53.5 121.1 53.84 121.06 54.52C121.02 55.21 120.94 55.53 120.71 55.93C120.54 56.23 120.25 56.61 120.06 56.78C119.88 56.95 119.41 57.24 119.02 57.41C118.41 57.69 118.2 57.72 117.43 57.68C116.83 57.65 116.33 57.54 115.23 57.05L115.14 57.52C115.1 57.78 114.96 58.23 114.83 58.52C114.7 58.81 114.42 59.22 114.22 59.44C114.01 59.66 113.65 59.93 113.43 60.04C113.2 60.16 112.72 60.31 112.37 60.39C111.89 60.49 111.54 60.49 111.01 60.39C110.62 60.32 110.07 60.14 109.78 59.99C109.48 59.84 109.02 59.48 108.74 59.18C108.47 58.88 108.16 58.47 108.05 58.25C107.95 58.04 107.79 57.53 107.71 57.11C107.62 56.69 107.57 56.33 107.6 56.32C107.63 56.3 108.01 56.43 108.45 56.61C109.08 56.86 109.44 56.93 110.19 56.93C111.03 56.93 111.2 56.89 111.78 56.57C112.2 56.33 112.56 56 112.82 55.63C113.03 55.31 113.26 54.84 113.34 54.58C113.41 54.32 113.47 54.1 113.48 54.09C113.48 54.07 113.78 54.17 114.13 54.3C114.49 54.44 115.13 54.57 115.55 54.61C116.07 54.65 116.52 54.61 116.99 54.48C117.46 54.35 117.8 54.15 118.11 53.85C118.35 53.61 118.65 53.2 118.78 52.94C118.9 52.68 119.05 52.14 119.12 51.74C119.22 51.14 119.27 51.03 119.43 51.11ZM71.85 51.78C72.66 51.81 73.85 51.94 74.5 52.07C75.15 52.2 76.31 52.51 77.09 52.77C77.87 53.03 79.14 53.55 79.92 53.94C80.69 54.32 81.97 55.05 82.74 55.56C83.52 56.07 84.67 56.88 85.29 57.36C85.92 57.83 87.11 58.81 87.94 59.52C88.78 60.23 91.34 62.66 93.64 64.93C95.94 67.19 98.3 69.44 98.88 69.93C99.46 70.41 100.36 71.13 100.88 71.52C101.4 71.91 102.28 72.52 102.83 72.88C103.38 73.23 104.22 73.73 104.71 74C105.2 74.26 106.04 74.67 106.6 74.9C107.15 75.12 108.05 75.42 108.6 75.55C109.15 75.68 110.34 75.84 111.25 75.91C112.39 76 113.42 76 114.6 75.91C115.54 75.84 116.76 75.71 117.31 75.62C117.86 75.52 118.71 75.33 119.2 75.2C119.68 75.07 120.37 74.85 120.73 74.72C121.09 74.59 121.76 74.29 123.06 73.62L124.16 74.1C124.77 74.36 125.77 74.83 126.38 75.14C127 75.45 127.98 76 128.56 76.35C129.15 76.7 130.23 77.45 130.98 78.01C131.72 78.57 132.89 79.58 133.57 80.26C134.25 80.94 135.21 82.02 135.7 82.67C136.18 83.31 136.88 84.37 137.25 85.02C137.61 85.66 138.13 86.72 138.38 87.37C138.64 88.01 138.98 88.99 139.14 89.54C139.3 90.09 139.52 90.94 139.62 91.42C139.72 91.91 139.85 92.75 139.92 93.3C139.99 93.85 140.05 94.63 140.05 95.77L139.02 95.29C138.45 95.02 137.38 94.6 136.63 94.35C135.89 94.1 134.61 93.77 133.8 93.61C132.99 93.44 131.51 93.25 130.51 93.19C129.22 93.1 128.17 93.1 126.97 93.18C126.03 93.25 124.76 93.39 124.15 93.48C123.53 93.58 122.26 93.82 121.32 94.01C120.38 94.2 118.97 94.4 118.2 94.46C117.42 94.51 116.23 94.52 115.55 94.47C114.87 94.42 113.99 94.31 113.6 94.24C113.21 94.16 112.5 93.97 112.01 93.81C111.53 93.65 110.71 93.3 110.2 93.03C109.68 92.75 108.9 92.2 108.43 91.76C107.97 91.34 107.43 90.73 107.22 90.41C107.01 90.1 106.84 89.81 106.83 89.78C106.83 89.74 107.14 89.75 107.51 89.8C107.88 89.84 109.06 89.88 110.13 89.88C111.2 89.89 112.63 89.82 113.31 89.72C113.99 89.63 115.74 89.32 117.2 89.03C118.65 88.73 120.51 88.4 121.32 88.3C122.23 88.18 123.6 88.1 124.91 88.1C126.08 88.1 127.59 88.16 128.27 88.24C128.95 88.32 130.11 88.48 130.86 88.6C131.6 88.73 132.23 88.82 132.24 88.8C132.26 88.79 132.19 88.51 132.1 88.19C132.01 87.87 131.71 87.26 131.44 86.84C131.17 86.42 130.61 85.76 130.21 85.37C129.8 84.98 129 84.39 128.43 84.04C127.85 83.7 126.99 83.27 126.5 83.08C126.01 82.9 125.09 82.63 124.44 82.49C123.62 82.32 122.65 82.22 121.26 82.18C119.72 82.13 118.67 82.17 116.72 82.36C115.33 82.5 113.42 82.64 112.48 82.68C111.49 82.72 110.13 82.7 109.25 82.62C108.4 82.55 107.18 82.38 106.54 82.24C105.89 82.11 104.85 81.84 104.24 81.65C103.62 81.45 102.64 81.07 102.06 80.8C101.48 80.52 100.63 80.09 100.18 79.82C99.72 79.56 98.82 78.95 98.17 78.47C97.53 78 96.47 77.1 95.82 76.48C95.17 75.86 94.32 74.98 93.23 73.71L92.58 74.01C92.11 74.23 91.69 74.33 91.05 74.36C90.34 74.4 90.03 74.35 89.46 74.13C89.01 73.96 88.52 73.65 88.1 73.26C87.68 72.86 87.33 72.4 87.1 71.9C86.79 71.24 86.75 71.03 86.75 70.09C86.75 69.22 86.8 68.93 87.34 67.76L86.28 66.77C85.69 66.22 84.67 65.31 84.01 64.73C83.35 64.16 82.75 63.69 82.68 63.69C82.62 63.69 82.34 64.02 82.07 64.42C81.8 64.83 81.41 65.53 81.2 65.98C80.99 66.43 80.69 67.23 80.54 67.74C80.31 68.56 80.27 68.94 80.27 70.68C80.27 72.25 80.32 72.86 80.49 73.5C80.61 73.95 80.94 74.8 81.22 75.38C81.5 75.96 82.03 76.8 82.39 77.23C82.74 77.67 83.37 78.27 83.77 78.57C84.18 78.87 84.84 79.28 85.25 79.48C85.65 79.68 85.98 79.89 85.98 79.94C85.98 79.98 85.7 80.04 85.36 80.06C85.02 80.08 84.32 80.05 83.8 80C83.29 79.94 82.38 79.74 81.8 79.54C81.22 79.35 80.32 78.94 79.81 78.64C79.25 78.31 78.46 77.68 77.85 77.09C77.26 76.5 76.64 75.75 76.35 75.26C76.08 74.81 75.71 73.97 75.52 73.38C75.33 72.8 75.08 71.82 74.97 71.21C74.83 70.46 74.76 69.52 74.76 68.33C74.75 67.19 74.82 66.19 74.95 65.48C75.06 64.88 75.31 63.88 75.51 63.25C75.72 62.62 76.04 61.79 76.24 61.4C76.43 61.01 76.72 60.5 76.87 60.25C77.02 60.01 77.14 59.79 77.12 59.76C77.1 59.73 76.69 59.54 76.21 59.34C75.72 59.13 74.82 58.83 74.2 58.67C73.29 58.42 72.8 58.37 71.55 58.36C70.33 58.36 69.82 58.41 69.02 58.62C68.47 58.77 67.57 59.1 67.02 59.36C66.47 59.62 65.57 60.13 65.02 60.49C64.47 60.86 63.57 61.59 63.03 62.1C62.48 62.62 61.71 63.47 61.3 63.98C60.9 64.5 60.27 65.4 59.9 65.98C59.53 66.56 58.95 67.62 58.61 68.33C58.26 69.04 57.81 70.1 57.59 70.68C57.38 71.26 57.16 71.79 57.11 71.86C57.06 71.92 56.96 71.74 56.89 71.45C56.82 71.15 56.71 70.73 56.65 70.51C56.6 70.28 56.49 69.51 56.41 68.8C56.33 68.07 56.3 66.95 56.34 66.22C56.38 65.51 56.5 64.46 56.59 63.9C56.69 63.33 56.94 62.35 57.14 61.72C57.34 61.09 57.78 60.05 58.11 59.42C58.44 58.78 59.04 57.85 59.44 57.36C59.83 56.87 60.47 56.19 60.85 55.86C61.23 55.53 61.94 54.98 62.43 54.63C62.91 54.28 63.79 53.75 64.37 53.44C64.95 53.14 65.91 52.74 66.49 52.54C67.07 52.35 68 52.11 68.55 52.01C69.1 51.91 69.74 51.81 69.96 51.78C70.19 51.75 71.04 51.75 71.85 51.78ZM123.57 58.75C123.63 58.75 123.91 59.01 124.21 59.31C124.51 59.63 124.86 60.15 125 60.52C125.19 61 125.26 61.42 125.26 62.22C125.26 63.12 125.22 63.37 124.96 63.92C124.79 64.28 124.44 64.77 124.19 65.02C123.94 65.27 123.52 65.58 123.26 65.72C122.99 65.86 122.47 65.98 122.02 66.01C121.43 66.05 121.11 66.01 120.61 65.82C120.26 65.68 119.94 65.57 119.9 65.57C119.87 65.57 119.87 65.74 119.89 65.95C119.91 66.16 119.85 66.62 119.75 66.98C119.64 67.34 119.4 67.82 119.2 68.07C118.99 68.33 118.53 68.66 118.05 68.89C117.37 69.22 117.13 69.27 116.37 69.27C115.73 69.27 115.34 69.2 114.96 69.03C114.67 68.89 114.22 68.6 113.97 68.38C113.61 68.07 113.49 68.02 113.44 68.16C113.41 68.25 113.19 68.58 112.96 68.88C112.73 69.18 112.33 69.59 112.07 69.79C111.81 70 111.31 70.27 110.95 70.41C110.58 70.54 110 70.65 109.6 70.66C109.21 70.66 108.63 70.58 108.3 70.47C107.98 70.37 107.5 70.11 107.24 69.91C106.98 69.71 106.63 69.35 106.45 69.11C106.27 68.88 106.02 68.34 105.89 67.92C105.74 67.46 105.65 66.84 105.65 66.36C105.65 65.93 105.68 65.57 105.71 65.57C105.74 65.57 106.13 65.76 106.57 66C107.15 66.32 107.55 66.45 108.07 66.49C108.53 66.52 108.98 66.48 109.36 66.35C109.69 66.25 110.18 65.96 110.46 65.72C110.76 65.47 111.11 65 111.28 64.63C111.45 64.27 111.59 63.97 111.59 63.95C111.6 63.94 112 64.11 112.48 64.33C113.02 64.58 113.64 64.77 114.07 64.82C114.56 64.87 114.98 64.84 115.43 64.71C115.79 64.61 116.3 64.36 116.58 64.17C116.85 63.97 117.22 63.56 117.39 63.25C117.57 62.94 117.74 62.49 117.78 62.25C117.81 62.01 117.87 61.81 117.9 61.81C117.93 61.81 118.25 61.92 118.61 62.06C119.07 62.24 119.52 62.32 120.14 62.32C120.86 62.33 121.13 62.27 121.61 62.03C121.94 61.86 122.37 61.52 122.59 61.27C122.8 61.02 123.05 60.57 123.14 60.28C123.24 59.99 123.35 59.53 123.39 59.25C123.43 58.98 123.51 58.75 123.57 58.75ZM65.75 71.45C65.8 71.45 65.9 71.93 65.97 72.53C66.04 73.13 66.25 74.2 66.43 74.91C66.61 75.62 66.97 76.76 67.24 77.44C67.51 78.12 67.98 79.14 68.29 79.7C68.59 80.27 69.19 81.22 69.61 81.81C70.03 82.41 70.91 83.43 71.56 84.08C72.21 84.72 73.21 85.59 73.8 85.99C74.38 86.4 75.46 87.04 76.21 87.42C76.95 87.8 77.96 88.25 78.44 88.42C78.93 88.59 79.83 88.86 80.45 89.01C81.06 89.16 82.15 89.38 82.86 89.5C83.88 89.67 84.8 89.71 87.1 89.71C89.24 89.7 90.45 89.65 91.52 89.5C92.33 89.39 93.65 89.17 94.46 89.01C95.27 88.85 95.96 88.75 95.99 88.79C96.03 88.82 95.98 89.1 95.9 89.4C95.81 89.7 95.61 90.19 95.44 90.48C95.27 90.77 94.81 91.34 94.41 91.75C94.02 92.16 93.33 92.75 92.87 93.06C92.42 93.37 91.65 93.82 91.17 94.07C90.68 94.31 89.67 94.71 88.93 94.96C88.18 95.21 86.95 95.52 86.19 95.65C85.19 95.82 84.28 95.89 82.92 95.89C81.88 95.89 80.63 95.83 80.12 95.77C79.62 95.7 78.65 95.53 77.97 95.4C77.29 95.27 76.18 94.98 75.5 94.75C74.82 94.53 73.79 94.12 73.2 93.85C72.62 93.57 71.75 93.09 71.26 92.78C70.77 92.47 70.01 91.91 69.55 91.54C69.1 91.17 68.3 90.42 67.79 89.87C67.27 89.32 66.54 88.45 66.17 87.94C65.81 87.43 65.21 86.53 64.85 85.93C64.49 85.33 64.01 84.41 63.79 83.87C63.57 83.34 63.28 82.43 63.13 81.84C62.99 81.26 62.84 80.28 62.79 79.67C62.75 79.06 62.75 78.08 62.79 77.5C62.84 76.92 62.99 75.99 63.13 75.44C63.27 74.89 63.56 74.07 63.78 73.62C64 73.17 64.33 72.59 64.52 72.34C64.71 72.09 65.04 71.79 65.26 71.67C65.48 71.55 65.7 71.45 65.75 71.45ZM96.11 141.01C96.17 141.11 96.28 142.01 96.35 143.01C96.45 144.38 96.45 145.37 96.35 147C96.28 148.2 96.14 149.76 96.05 150.47C95.95 151.18 95.79 152.24 95.69 152.82C95.59 153.4 95.31 154.72 95.06 155.76C94.81 156.79 94.38 158.3 94.1 159.11C93.83 159.91 93.36 161.13 93.06 161.81C92.75 162.49 92.2 163.6 91.81 164.28C91.43 164.96 90.76 166.04 90.33 166.69C89.9 167.33 89.19 168.31 88.76 168.86C88.32 169.41 87.43 170.46 86.77 171.19C86.11 171.93 84.93 173.1 84.16 173.8C83.38 174.5 82.24 175.48 81.62 175.97C81.01 176.45 79.94 177.25 79.24 177.73C78.54 178.22 77.93 178.62 77.89 178.62C77.84 178.62 77.64 178.21 77.46 177.71C77.27 177.2 76.63 175.55 76.03 174.03C75.43 172.51 74.48 170.21 73.91 168.92C73.35 167.63 72.32 165.41 71.62 163.98C70.93 162.56 69.87 160.5 69.26 159.4C68.66 158.3 67.74 156.69 67.22 155.82C66.7 154.94 65.63 153.25 64.84 152.06C64.05 150.86 62.75 149.01 61.94 147.94C61.14 146.88 59.93 145.35 59.25 144.55C58.57 143.75 57.9 142.96 57.54 142.5L57.83 142.59C57.99 142.64 58.74 143 59.48 143.4C60.22 143.8 61.52 144.58 62.36 145.13C63.21 145.69 64.56 146.67 65.37 147.32C66.18 147.97 67.44 149.05 68.16 149.72C68.89 150.39 70.02 151.52 70.69 152.23C71.35 152.94 72.29 154 72.77 154.58C73.26 155.16 74.13 156.27 74.71 157.05C75.29 157.83 76.07 158.91 76.44 159.46C76.81 160.01 77.53 161.15 78.04 161.99C78.54 162.83 79.36 164.29 80.74 166.97L81.92 166.07C82.57 165.58 83.76 164.51 84.58 163.7C85.39 162.89 86.5 161.67 87.04 160.99C87.58 160.31 88.45 159.09 88.99 158.28C89.52 157.48 90.26 156.26 90.64 155.58C91.02 154.9 91.6 153.77 91.94 153.06C92.27 152.34 92.81 151.1 93.14 150.29C93.47 149.49 94 148.03 94.32 147.06C94.64 146.09 95.12 144.45 95.38 143.42C95.64 142.39 95.89 141.38 95.93 141.19C95.99 140.92 96.04 140.87 96.11 141.01Z" />
	</g>
</svg>