<svg xmlns="http://www.w3.org/2000/svg" width="296" height="241.42" viewBox="0 0 298 243.42">
 <path d="m149.38 1.3351c-24.242 0-48.485-1.59e-4 -72.728 0.0068-3.5968 0-7.1528 0.41382-10.653 1.2385-10.881 2.5642-20.151 7.9519-27.823 16.053-5.6621 5.9843-9.7489 12.9-11.634 20.974-1.3965 5.9843-2.5617 12.021-3.8577 18.03-0.93559 4.3349-1.2226 8.7058-0.46022 13.082 1.8608 10.641 7.8269 18.198 17.509 22.842 5.4576 2.6197 11.297 3.5533 17.312 3.5464 7.0551-0.0069 14.108-0.0069 21.163 0 0.59601 0 1.1942 0.03238 1.7867 0.09475 4.5428 0.48512 7.7982 3.9814 7.5868 8.5208-0.10395 2.2108-0.81393 4.3948-1.1708 6.5987-1.0638 6.5734-7.7617 11.141-13.583 11.106-8.8812-0.052-17.761-0.0135-26.638-0.0135h-1.1641v-15.58h-33.014c-3.5656 16.778-7.121 33.508-10.68 50.258h86.541c-0.02772-0.18019-0.03303-0.29519-0.06768-0.40607-2.1865-6.958-1.1953-13.561 2.3011-19.85 2.8484-5.118 6.9826-9.0504 11.681-12.439 0.25296-0.18019 0.50472-0.37099 0.77154-0.5685-3.7043-3.3058-5.3433-6.0901-6.064-10.463-0.6168-3.7493 0.02474-7.3821 1.2791-10.917 2.4187-6.816 6.9873-11.957 12.785-16.08 6.4556-4.5913 13.651-7.5281 21.441-9.4547-1.6702-2.786-3.6897-5.1635-6.0911-7.201-6.3516-5.4056-13.824-7.9872-22.043-8.2297-7.8243-0.2287-15.667-0.05696-23.498-0.08122-0.86282 0-1.7329-0.05799-2.5853-0.18273-4.3072-0.62026-7.417-4.0274-7.1536-8.338 0.16979-2.7721 0.822-5.5509 1.5566-8.2433 1.4692-5.3814 7.2858-9.5728 13.055-9.5901 6.9026-0.02079 13.804-0.01024 20.71-0.0068 0.23216 0 0.46287 0.02312 0.9272 0.04737v15.532c0.31879 0.03465 0.41419 0.04738 0.50082 0.04738 10.614 0.0035 21.222-4e-3 31.836 0.0203 0.63066 0 0.70819-0.28972 0.81214-0.7783 3.0771-14.505 6.171-29.009 9.2585-43.511 0.41929-1.9786 0.82222-3.9607 1.2588-6.064zm38.496 68.241c-7.3046 0.04158-14.452 1.1617-21.434 3.2824-5.8007 1.7638-11.301 4.1863-16.135 7.9252-4.1339 3.1983-7.3467 7.0704-8.7847 12.209-1.7049 6.0917 0.81366 10.406 6.9574 11.966 2.7409 0.6965 5.5084 0.6547 8.2771 0.29779 4.1235-0.53363 7.7796-2.045 10.524-5.3196 2.0687-2.4707 3.063-5.4128 3.7629-8.5072 0.61333-2.7271 1.1235-5.5194 2.1319-8.1079 1.989-5.1111 5.8878-8.6157 10.517-11.35 1.4727-0.86975 3.0483-1.5746 4.6631-2.3958zm26.178 14.382c-1.736 0.1594-3.4788 0.25843-5.2045 0.49406-1.7395 0.23563-3.4826 0.53201-5.191 0.93397-6.2927 1.4796-12.259 3.7492-17.488 7.6545-3.7216 2.7791-6.6132 6.1934-7.871 10.781-1.3133 4.7888 0.66937 8.2571 5.4617 9.5427 2.3563 0.63066 4.7326 0.51273 7.1063 0.14889 5.5269-0.8455 9.1308-4.1396 10.389-9.5833 0.3881-1.6806 0.51398-3.4219 0.81892-5.1233 1.1608-6.5006 4.6055-11.284 10.673-14.07 0.45047-0.20791 0.90311-0.40466 1.3536-0.60911-0.0139-0.05544-0.0266-0.11029-0.0474-0.1692zm-77.919 0.7377c-1.646 0.36384-3.1562 0.65432-4.6428 1.0355-6.2546 1.6044-12.215 3.8998-17.475 7.7357-4.7299 3.4478-8.2074 7.7874-9.448 13.664-1.2648 6.0051 1.6012 11.309 7.3499 12.92 5.9531 1.6702 11.469 0.32188 16.196-3.5938 3.2434-2.6855 4.1803-6.3005 2.9779-10.362-0.48858-1.6529-1.1394-3.2616-1.7596-4.8729-0.97024-2.5261-0.9789-5.0463 0.21658-7.465 0.81431-1.6494 1.7478-3.268 2.829-4.7511 1.0777-1.4796 2.4013-2.7726 3.7562-4.3111zm94.121 6.8017c-2.0236 9.5292-4.0435 19.034-6.0776 28.608 4.3349 0.70689 8.5858 1.4014 12.886 2.1048-2.0063 9.4426-3.9936 18.798-5.9896 28.181h-1.0761c-9.1168 0-18.232-0.0107-27.349 0.0135-0.53364 0-1.1261 0.1698-1.5905 0.43315-4.1305 2.3598-8.534 3.7257-13.312 3.5802-2.1553-0.0624-4.3052-0.43456-6.4363-0.66326-0.95638 1.7153-1.8959 3.5863-3.0117 5.3466-1.1192 1.7603-2.3069 3.4955-3.6479 5.0894-6.9338 8.2367-15.614 13.079-26.557 13.38-0.50938 0.0139-0.64414 0.22318-0.7377 0.66325-2.3286 11.005-4.6697 22.008-6.9844 33.014-0.11782 0.56482-0.3561 0.80012-0.90013 0.87982-4.075 0.60294-8.1375 1.2384-12.216 1.8206-0.63065 0.0901-0.91057 0.32032-1.0422 0.94751-1.587 7.561-3.2008 15.115-4.8052 22.672-0.35691 1.6806-0.69542 3.3668-1.0558 5.1098 0.33958 0.0277 0.56644 0.0609 0.79861 0.0609 21.824 3e-3 43.646 0.01 65.466 0.0203 0.56482 0 0.82606-0.13097 0.95427-0.75124 1.2786-6.1298 2.6022-12.255 3.9051-18.382 0.66877-3.1429 1.3274-6.286 2.0101-9.5224-4.3176-0.70689-8.5729-1.4048-12.845-2.1048 0.0416-0.31186 0.0599-0.51641 0.10152-0.71739 1.8885-8.8673 3.7973-17.74 5.6512-26.618 0.15593-0.75886 0.47202-0.84598 1.1235-0.84598 11.837 0.0173 23.674 0.0135 35.511 0.0135h0.93397c-4.1755 19.651-8.3317 39.22-12.5 58.86h53.744c2.0202-9.5188 4.0333-18.989 6.0708-28.581-4.3418-0.71382-8.6067-1.4149-12.879-2.1184 1.8954-8.9332 3.7496-17.719 5.6174-26.503 2.8414-13.362 5.6929-26.721 8.5343-40.086 1.5801-7.4397 3.1544-14.881 4.7172-22.327 0.12822-0.61333 0.35237-0.90792 1.0558-1.0084 4.0785-0.57868 8.141-1.2449 12.216-1.8409 0.58214-0.0866 0.76877-0.31186 0.88659-0.86628 1.3999-6.6531 2.833-13.305 4.2502-19.958 0.55789-2.6197 1.1002-5.2402 1.6581-7.9049zm-66.711 20.865c-4.023 0.0624-7.8061 1.0622-11.444 2.6666-3.9537 1.7464-7.8518 3.6198-11.851 5.2519-5.5893 2.2801-11.529 3.2044-17.448 4.2232-7.1278 1.2267-13.745 3.8035-19.41 8.426-4.6745 3.8151-8.1355 8.3903-8.69 14.68-0.47473 5.3571 1.3597 9.37 6.5852 11.539 1.2059 0.50245 2.4742 0.91063 3.7494 1.1844 6.265 1.341 12.575 1.1531 18.896 0.46698 1.6875-0.18365 3.3849-0.41381 5.0759-0.37223 2.6439 0.0658 4.6802 1.5301 6.4024 3.3839 5.2601 5.6655 11.834 6.8693 19.038 5.4278 5.5962-1.1192 10.158-4.2266 13.955-8.4125 4.8859-5.3883 7.6608-11.647 7.2484-19.052-0.19058-3.3889 0.30921-6.6481 1.2656-9.8811 0.40542-1.3722 0.72048-2.7759 1.022-4.1758 1.1574-5.3571-1.1213-10.536-5.8339-13.34-2.6474-1.5766-5.5328-2.1624-8.5614-2.0168zm51.713 5.2383c-3.1533 0.43661-6.3396 0.71285-9.4547 1.34-6.4417 1.2925-12.482 3.6341-17.739 7.6883-3.6107 2.7825-6.3601 6.2011-7.4447 10.747-1.0257 4.2899 0.99304 7.71 5.2586 8.805 3.181 0.81431 6.3402 0.51793 9.4277-0.50082 3.8255-1.2648 6.3231-3.8615 7.3973-7.7425 0.38117-1.3722 0.68112-2.7991 0.78507-4.2164 0.28761-3.9745 1.5469-7.514 4.2705-10.477 2.1276-2.3147 4.6732-4.0452 7.5597-5.2857-0.0173-0.12128-0.0401-0.24088-0.0609-0.3587z" fill="#F56423"/>
</svg>
