<svg xmlns="http://www.w3.org/2000/svg" width="248" height="179.24" viewBox="0 0 248 179.24">
 <path d="m142.05 1.0781c-87.521 0-106.96 74.411-140.97 88.621 34.012 14.271 53.448 88.621 140.97 88.621 47 0 89.263-24.692 105.03-59.193h-33.615c-13.751 19.466-40.643 32.547-71.416 32.547-44.769 0-81.072-27.718-81.072-61.975 0-34.257 36.303-61.82 81.072-61.82 30.773 0 57.665 13.11 71.264 32.393h33.615c-15.616-34.471-57.879-59.193-104.88-59.193zm-9.9004 48.375-27.596 71.783h20.291l4.3398-12.469h25.699l4.3398 12.469h20.322l-27.504-71.783h-19.893zm9.9004 22.369 7.8848 22.676h-15.77l7.8848-22.676z" fill="#002855"/>
</svg>