<svg xmlns="http://www.w3.org/2000/svg" height="70.567" width="213.29" viewBox="0 0 213.29492 70.567436">
 <g transform="translate(-106.35 -946.83)">
  <g transform="matrix(.5 0 0 .5 106.8 490.75)">
   <path d="m0.70508 914.55v39.984h7.7871l20.387 97.148h277.16v-39.895l-6.8223-0.016v-3.3691l26.453 0.08 6.7422-5.5958v31.254l3.2246 2.6992c2.4875 2.0736 4.9775 4.2348 7.5 6.4297l0.24218 0.1992c2.3825 2.0649 4.7649 4.1323 7.1387 6.1172l2.498 2.0976h49.703s7.0248-5.8627 9.291-7.7675c2.6775-2.2466 5.3589-4.4912 8.0352-6.709l3.252-2.6895v-102.58l-3.1387-2.6894c-2.8138-2.4075-5.6302-4.7723-8.4414-7.1348l-0.25195-0.21484c-2.0675-1.7288-4.1254-3.4568-6.1816-5.2168l-2.5176-2.1289h-49.754l-2.5059 2.1074c-2.3838 1.9987-4.7666 3.9271-7.1504 5.8496l-0.25391 0.20507c-1.3188 1.065-2.628 2.1544-3.9492 3.2344-1.0438-0.9025-2.0977-1.7797-3.1465-2.6797-2.595-2.2238-5.2088-4.4582-7.8125-6.627l-2.4922-2.0898h-74.748v39.908l6.7559 0.0586v57.254h-38.238v-57.236l6.7617-0.006v-39.979h-55.188v39.986l6.7578-0.002v57.25l-3.8008 0.02-3.8848-0.031-20.812-97.223h-148.6zm48.818 39.264h5.9453l-2.9785 14.586-2.9668-14.586zm249.12 0.13867h7.1484v15.09h-7.1484v-15.09zm74.447 0h9.7031v58.4h-9.7031v-58.4z" fill="#613318"/>
   <path d="m355.09 919.98-1.0508 0.87891c-2.4525 2.0612-4.8994 4.0436-7.3594 6.0273-2.5138 2.0287-5.0246 4.0567-7.5371 6.168l-0.0605 0.0449c-2.2153-1.8693-4.4315-3.7563-6.7051-5.7031-2.5662-2.1963-5.1365-4.3974-7.709-6.5449l-0.86133-0.80274h-67.357v28.953l3.4394 0.0312 3.3145 0.004v68.223l-6.7539 0.016v28.906h44.084v-28.906l-6.8203-0.016v-14.375l29.893 0.1582 14.24-11.717-0.043 40.154 1.3516 1.1269c2.5188 2.1084 5.0365 4.2906 7.584 6.502l0.22852 0.1992c2.3612 2.0474 4.7185 4.0898 7.0723 6.0586l0.86914 0.8144h45.809c0.69375-0.5791 5.6562-4.7147 7.75-6.4785 2.6912-2.2602 5.3741-4.5092 8.0566-6.7344l1.2695-0.9062 0.0937-97.516-1.3164-1.127c-2.7925-2.3988-5.5897-4.7459-8.3984-7.0996l-0.55274-0.4707c-1.9712-1.6512-3.9423-3.3046-5.9023-4.9746l-0.875-0.82618-45.752-0.0684zm-248.95 0.0645-0.59179 2.75c-5.33 24.979-10.64 49.971-15.957 74.971l-4.1465 19.49-6.8594 0.016v28.906h43.887v-28.922l-6.0176 0.01 0.57812-2.8203h16.893l0.5918 2.8203-5.8613-0.018v28.934h44.092v-28.891l-3.4473-0.023-3.6445-0.012-20.805-97.211h-38.711zm-99.941 0.004v28.982h6.7539l20.385 97.15h38.316l20.625-97.15h7.0273v-28.982h-43.727v28.982h5.7969l-8.9023 43.545-8.8652-43.545h5.9355v-28.982h-43.346zm170.34 0v28.984l6.7617-0.006v68.232l-6.7617 0.025v28.896h76.111v-28.916h-38.684v-68.232h6.7676v-28.984h-44.195zm117.17 28.982h16.992v24.926h-16.992v-24.926zm74.459 0h19.535v68.234h-19.535v-68.234zm-242.69 22.631 3.2812 16.146h-6.5488l3.2676-16.146z" fill="#fff"/>
   <path d="m9.6797 923.52v22.037h6.1016l20.385 97.145h32.678l20.623-97.145h6.375v-22.037h-36.781v22.037h6.5723l-13.154 64.404-13.113-64.404h6.7109v-22.037h-36.396zm99.273 0c-6.9075 32.392-13.792 64.795-20.689 97.217-2.0712-0.011-4.136-0.011-6.1973 0v21.965h36.941v-21.965c-2.2812 0-4.549 0.01-6.8027 0 0.67-3.2164 1.3266-6.5406 2.0078-9.7696h22.551c0.67375 3.2042 1.3497 6.5532 2.0234 9.7696-2.2175-0.018-4.4309 0.01-6.6484 0v21.965h37.143v-21.965c-2.1262-0.018-4.2888-0.011-6.4238 0-6.9475-32.426-13.885-64.806-20.812-97.217h-33.092zm71.061 0v22.037c2.26 0 4.5267-0.0138 6.7617 0v75.18c-2.2388 0.01-4.5017-0.018-6.7617 0v21.965h69.166v-21.965h-38.684v-75.18c2.2625 0.005 4.5099 0 6.7637 0v-22.037h-37.246zm79.91 0v22.037c2.25 0.0175 4.5016-0.008 6.7578 0v75.18c-2.2562 0-4.5078-0.011-6.7578 0v21.965h37.145v-21.965c-2.265-0.011-4.5385-0.011-6.8223 0v-21.336c10.754 0.0317 21.483 0.0524 32.199 0.0937 5.055-4.2055 10.119-8.4083 15.172-12.602v-50.488c-5.0525-4.2212-10.117-8.661-15.172-12.885h-62.521zm96.354 0c-4.955 4.1638-9.9315 8.0171-14.896 12.193v94.229c4.965 4.1465 9.9415 8.6124 14.896 12.76h43.188c4.9588-4.1176 9.9077-8.3154 14.848-12.412v-94.232c-4.9338-4.2313-9.8889-8.3284-14.848-12.537h-43.188zm-66.031 22.037h23.93v31.875h-23.93v-31.875zm74.455 0h26.482v75.18h-26.482v-75.18zm-239.21 9.9375 7.1973 35.473h-14.383l7.1856-35.473z" fill="#fc0"/>
  </g>
 </g>
</svg>