<?xml version="1.0" encoding="utf-8"?>
<!-- Generator: Adobe Illustrator 22.0.1, SVG Export Plug-In . SVG Version: 6.00 Build 0)  -->
<svg version="1.1" id="Layer_1" xmlns="http://www.w3.org/2000/svg" xmlns:xlink="http://www.w3.org/1999/xlink" x="0px" y="0px"
	 width="270.03px" height="148.85px" viewBox="0 0 270.03 148.85" style="enable-background:new 0 0 270.03 148.85;"
	 xml:space="preserve">
<path d="M17.37,84.21h6.99c0,0,2.12-0.06,3.7,0.84l0.23-0.82h43.35c0,0,2.17-0.21,4.22,0.94c0.23-0.86,0.27-0.94,0.27-0.94H205.8
	c0,0,2.65-0.21,4.74,1.35c1.62-1.12,2.9-1.49,4.67-1.49c1.76,0,2.53,0.25,3.84,0.79c0.16-0.58,0.18-0.67,0.18-0.67h31.76
	l-9.03,10.11l-0.48,1.83c0,0,7.48-0.52,13.21,1.47c6.25,2.16,10.82,5.44,15.35,11.66c-1.24,1.38-9.28,10.49-9.28,10.49
	s6.53,10.92-2.33,21.64c-4.15,5.6-12.57,7.44-17.59,7.44c-6,0-17.62-0.63-24.63-8.36c-1.66,5.71-1.95,6.77-1.95,6.77h-75.08
	c0,0-4.02,1.6-9.66,1.6c-7.62,0-15.04-1.6-20.1-7.7c-0.95,3.38-1.75,6.1-1.75,6.1H0L17.37,84.21z"/>
<path style="fill:#A7A9AC;" d="M254.79,119.28l9.23-10.33l-2.72-2.56c-2.05-1.93-4.51-3.46-7.32-4.56c-2.81-1.1-6.04-1.66-9.59-1.66
	c-2.52,0-4.9,0.36-7.07,1.06c-2.24,0.72-4.23,1.76-5.9,3.1c-0.08,0.07-0.16,0.14-0.24,0.21l0.96-3.51h-36.5h-1.93h-15.74
	l-3.48,12.68h-4.32l3.53-12.68l-17.67,0l-2.3,8.33l-1.46-1.88c-0.78-1.01-1.78-1.99-2.98-2.91c-1.16-0.89-2.5-1.68-3.97-2.35
	c-1.46-0.66-3.09-1.19-4.83-1.57c-1.77-0.39-3.68-0.59-5.68-0.59c-3.81,0-7.36,0.67-10.55,1.98c-3.17,1.31-5.96,3.12-8.3,5.38
	c-1.96,1.91-3.55,4.1-4.77,6.52l3.57-12.93H97.56h-0.39H80.01l-3.27,11.77l-5.63-11.77h-8.19h-6.15H39.16l-5.47,5.15l1.44-5.15
	H17.46L5.99,142.56h17.67l2.56-9.42l1.03-0.92l3.98,10.34H45.3h4.73h12.83l3.44-12.47l6.01,12.47h13.4h0.39h17.22l5.34-19.36
	c-0.03,0.52-0.06,1.05-0.06,1.58c0,3.28,0.63,6.19,1.86,8.65c1.22,2.43,2.86,4.47,4.86,6.06c1.96,1.57,4.21,2.74,6.69,3.47
	c2.36,0.7,4.79,1.06,7.24,1.06c2.95,0,5.74-0.39,8.28-1.16c2.46-0.74,4.7-1.7,6.68-2.84l1.26-0.73l-0.9,3.28h17.66l3.53-12.87h4.32
	l-3.58,12.87h17.66l7.08-25.65h8.49l-7.12,25.65h17.67l7.07-25.65h8.47c0.1,1.42,0.41,2.73,0.93,3.89c0.4,0.91,0.92,1.75,1.53,2.53
	l-9.98,10.32l2.48,2.66c2.26,2.43,5.06,4.33,8.3,5.65c3.18,1.29,6.77,1.95,10.68,1.95c2.54,0,4.94-0.35,7.13-1.05
	c2.28-0.72,4.28-1.78,5.95-3.14c1.74-1.41,3.11-3.12,4.09-5.1c0.99-2.01,1.49-4.23,1.49-6.6c0-1.84-0.34-3.52-1.01-5.01
	C256.79,121.61,255.91,120.36,254.79,119.28z M47.2,135.66l-6.09-14.91l13.61-12.31L47.2,135.66z M152.1,115.27h-2.95l4.03-3.91
	L152.1,115.27z"/>
<path style="fill:none;stroke:#FFFFFF;stroke-width:4.2173;" d="M20.38,104.85h9.7L26.3,118.4l14.38-13.55h12.29l-16.42,14.86
	l7.77,19.02H33.86l-5.02-13.06l-6.02,5.37l-2.09,7.69h-9.7L20.38,104.85z M50.33,138.73h9.6l5.37-19.5l9.4,19.5h8.46l9.35-33.88
	h-9.6l-5.22,18.83l-9.01-18.83h-9.01L50.33,138.73z M90.74,138.73h9.65l9.35-33.88h-9.65L90.74,138.73z M136.42,139.19
	c2.19-0.66,4.15-1.49,5.87-2.49l4.97-17.6h-15.97l-1.84,7.08h6.72l-1.39,4.73c-0.6,0.27-1.28,0.5-2.04,0.68
	c-0.76,0.19-1.63,0.28-2.59,0.28c-1.06,0-2.07-0.16-3.01-0.47c-0.94-0.32-1.77-0.78-2.49-1.4c-0.71-0.62-1.28-1.39-1.69-2.33
	c-0.42-0.93-0.62-2.02-0.62-3.25c0-1.6,0.29-3.12,0.87-4.57c0.58-1.45,1.39-2.72,2.44-3.8c1.04-1.09,2.29-1.94,3.73-2.58
	c1.44-0.63,3.04-0.95,4.8-0.95c1.89,0,3.54,0.34,4.95,1.02c1.41,0.68,2.63,1.54,3.66,2.57l6.47-6.28c-0.59-0.77-1.36-1.5-2.29-2.22
	c-0.93-0.71-2-1.35-3.21-1.89c-1.21-0.55-2.57-0.99-4.08-1.32c-1.51-0.33-3.12-0.5-4.85-0.5c-3.32,0-6.35,0.56-9.09,1.7
	c-2.74,1.13-5.1,2.66-7.08,4.58c-1.98,1.93-3.51,4.15-4.6,6.66c-1.08,2.51-1.62,5.16-1.62,7.95c0,2.69,0.48,5,1.45,6.93
	c0.97,1.93,2.24,3.52,3.83,4.78c1.58,1.27,3.38,2.2,5.39,2.79c2.01,0.6,4.06,0.9,6.15,0.9
	C131.84,140.18,134.23,139.85,136.42,139.19z M149.6,138.73h9.7l3.53-12.87h12.29l-3.58,12.87h9.7l9.36-33.88h-9.7l-3.48,12.68
	h-12.29l3.53-12.68l-9.7,0L149.6,138.73z M197.66,138.73h9.7l7.07-25.65h10.45l2.24-8.23h-30.5l-2.29,8.23h10.45L197.66,138.73z
	 M245.74,139.21c1.82-0.58,3.39-1.4,4.7-2.47c1.31-1.06,2.33-2.34,3.06-3.81c0.73-1.48,1.1-3.12,1.1-4.91c0-1.3-0.22-2.44-0.67-3.44
	c-0.44-0.99-1.07-1.87-1.87-2.62c-0.8-0.75-1.75-1.42-2.86-2.02c-1.11-0.6-2.33-1.15-3.66-1.65c-1.19-0.47-2.17-0.87-2.94-1.2
	c-0.77-0.33-1.35-0.63-1.76-0.9c-0.42-0.27-0.71-0.53-0.87-0.77c-0.16-0.25-0.25-0.56-0.25-0.92c0-0.7,0.34-1.29,1.02-1.77
	c0.68-0.48,1.6-0.72,2.76-0.72c1.79,0,3.45,0.35,4.95,1.05c1.51,0.7,2.93,1.63,4.26,2.79l5.97-6.68c-1.69-1.6-3.72-2.86-6.09-3.79
	c-2.37-0.93-5.1-1.4-8.19-1.4c-2.12,0-4.09,0.29-5.9,0.87c-1.81,0.58-3.36,1.39-4.68,2.44c-1.31,1.05-2.34,2.3-3.08,3.76
	c-0.75,1.46-1.12,3.06-1.12,4.78c0,1.3,0.22,2.43,0.65,3.39c0.43,0.97,1.03,1.82,1.82,2.57c0.78,0.75,1.72,1.42,2.83,1.99
	c1.12,0.58,2.36,1.14,3.76,1.67c1.22,0.46,2.21,0.87,2.96,1.22c0.75,0.35,1.33,0.66,1.76,0.95c0.44,0.28,0.73,0.56,0.88,0.85
	c0.15,0.28,0.22,0.59,0.22,0.92c0,0.8-0.36,1.43-1.1,1.89c-0.73,0.47-1.67,0.7-2.83,0.7c-3.75,0-7.33-1.58-10.75-4.74l-6.22,6.43
	c1.89,2.03,4.21,3.6,6.94,4.71c2.74,1.11,5.81,1.67,9.23,1.67C241.92,140.08,243.91,139.79,245.74,139.21z"/>
<path style="fill:#820024;" d="M20.38,104.85h9.7L26.3,118.4l14.38-13.55h12.29l-16.42,14.86l7.77,19.02H33.86l-5.02-13.06
	l-6.02,5.37l-2.09,7.69h-9.7L20.38,104.85z M50.33,138.73h9.6l5.37-19.5l9.4,19.5h8.46l9.35-33.88h-9.6l-5.22,18.83l-9.01-18.83
	h-9.01L50.33,138.73z M90.74,138.73h9.65l9.35-33.88h-9.65L90.74,138.73z M129.25,140.18c2.59,0,4.98-0.33,7.17-1
	c2.19-0.66,4.15-1.49,5.87-2.49l4.97-17.6h-15.97l-1.84,7.08h6.72l-1.39,4.73c-0.6,0.27-1.28,0.5-2.04,0.68
	c-0.76,0.19-1.63,0.28-2.59,0.28c-1.06,0-2.07-0.16-3.01-0.47c-0.94-0.32-1.77-0.78-2.49-1.4c-0.71-0.62-1.28-1.39-1.69-2.33
	c-0.42-0.93-0.62-2.02-0.62-3.25c0-1.6,0.29-3.12,0.87-4.57c0.58-1.45,1.39-2.72,2.44-3.8c1.04-1.09,2.29-1.94,3.73-2.58
	c1.44-0.63,3.04-0.95,4.8-0.95c1.89,0,3.54,0.34,4.95,1.02c1.41,0.68,2.63,1.54,3.66,2.57l6.47-6.28c-0.59-0.77-1.36-1.5-2.29-2.22
	c-0.93-0.71-2-1.35-3.21-1.89c-1.21-0.55-2.57-0.99-4.08-1.32c-1.51-0.33-3.12-0.5-4.85-0.5c-3.32,0-6.35,0.56-9.09,1.7
	c-2.74,1.13-5.1,2.66-7.08,4.58c-1.98,1.93-3.51,4.15-4.6,6.66c-1.08,2.51-1.62,5.16-1.62,7.95c0,2.69,0.48,5,1.45,6.93
	c0.97,1.93,2.24,3.52,3.83,4.78c1.58,1.27,3.38,2.2,5.39,2.79C125.11,139.89,127.16,140.18,129.25,140.18 M149.6,138.73h9.7
	l3.53-12.87h12.29l-3.58,12.87h9.7l9.36-33.88h-9.7l-3.48,12.68h-12.29l3.53-12.68l-9.7,0L149.6,138.73z M197.66,138.73h9.7
	l7.07-25.65h10.45l2.24-8.23h-30.5l-2.29,8.23h10.45L197.66,138.73z M239.76,140.08c2.15,0,4.15-0.29,5.97-0.87
	c1.82-0.58,3.39-1.4,4.7-2.47c1.31-1.06,2.33-2.34,3.06-3.81c0.73-1.48,1.1-3.12,1.1-4.91c0-1.3-0.22-2.44-0.67-3.44
	c-0.44-0.99-1.07-1.87-1.87-2.62c-0.8-0.75-1.75-1.42-2.86-2.02c-1.11-0.6-2.33-1.15-3.66-1.65c-1.19-0.47-2.17-0.87-2.94-1.2
	c-0.77-0.33-1.35-0.63-1.76-0.9c-0.42-0.27-0.71-0.53-0.87-0.77c-0.16-0.25-0.25-0.56-0.25-0.92c0-0.7,0.34-1.29,1.02-1.77
	c0.68-0.48,1.6-0.72,2.76-0.72c1.79,0,3.45,0.35,4.95,1.05c1.51,0.7,2.93,1.63,4.26,2.79l5.97-6.68c-1.69-1.6-3.72-2.86-6.09-3.79
	c-2.37-0.93-5.1-1.4-8.19-1.4c-2.12,0-4.09,0.29-5.9,0.87c-1.81,0.58-3.36,1.39-4.68,2.44c-1.31,1.05-2.34,2.3-3.08,3.76
	c-0.75,1.46-1.12,3.06-1.12,4.78c0,1.3,0.22,2.43,0.65,3.39c0.43,0.97,1.03,1.82,1.82,2.57c0.78,0.75,1.72,1.42,2.83,1.99
	c1.12,0.58,2.36,1.14,3.76,1.67c1.22,0.46,2.21,0.87,2.96,1.22c0.75,0.35,1.33,0.66,1.76,0.95c0.44,0.28,0.73,0.56,0.88,0.85
	c0.15,0.28,0.22,0.59,0.22,0.92c0,0.8-0.36,1.43-1.1,1.89c-0.73,0.47-1.67,0.7-2.83,0.7c-3.75,0-7.33-1.58-10.75-4.74l-6.22,6.43
	c1.89,2.03,4.21,3.6,6.94,4.71C233.27,139.53,236.34,140.08,239.76,140.08"/>
<path style="fill:#FFFFFF;" d="M21.21,93.41l0.44-1.55h1.67c0.71,0,1.07,0.22,1.07,0.66c0,0.27-0.12,0.48-0.36,0.64
	c-0.23,0.16-0.57,0.25-0.99,0.25H21.21z M22.11,90.21l0.4-1.48h1.51c0.37,0,0.64,0.06,0.8,0.17c0.16,0.11,0.24,0.26,0.24,0.46
	c0,0.26-0.11,0.47-0.34,0.63c-0.22,0.15-0.55,0.23-0.99,0.23H22.11z M18.34,95.32h4.52c0.67,0,1.26-0.07,1.76-0.2
	c0.5-0.13,0.91-0.32,1.24-0.54c0.33-0.23,0.57-0.5,0.73-0.82c0.16-0.32,0.24-0.66,0.24-1.02c0-0.44-0.13-0.79-0.37-1.07
	c-0.25-0.28-0.56-0.49-0.96-0.62c0.61-0.15,1.09-0.41,1.44-0.79c0.34-0.38,0.51-0.84,0.51-1.38c0-0.27-0.05-0.52-0.16-0.77
	c-0.1-0.25-0.28-0.46-0.52-0.66c-0.24-0.19-0.57-0.34-0.97-0.45c-0.4-0.11-0.9-0.16-1.5-0.16h-3.63L18.34,95.32z M28.41,95.32h7.05
	l0.55-2h-4.66l0.37-1.34h4.16l0.51-1.86h-4.16l0.36-1.28h4.59l0.56-2h-6.99L28.41,95.32z M37.97,95.32h6.59l0.58-2.06h-4.17
	l1.77-6.42h-2.43L37.97,95.32z M46.51,95.32h6.6l0.57-2.06h-4.16l1.77-6.42h-2.43L46.51,95.32z M59.56,91.97l1.63-2.44l0.31,2.44
	H59.56z M54.66,95.32h2.63l1.05-1.51h3.36l0.22,1.51h2.54l-1.36-8.55h-2.37L54.66,95.32z M69.78,90.91l0.57-2.05h1.31
	c0.51,0,0.87,0.1,1.07,0.3c0.15,0.16,0.23,0.35,0.23,0.57c0,0.37-0.16,0.65-0.49,0.87c-0.32,0.21-0.76,0.32-1.31,0.32H69.78z
	 M66.13,95.32h2.43l0.71-2.57h1.07l1.16,2.57h2.67l-1.35-2.86c0.9-0.24,1.56-0.62,1.98-1.15c0.42-0.53,0.63-1.15,0.63-1.86
	c0-0.34-0.05-0.66-0.16-0.95c-0.1-0.3-0.27-0.56-0.5-0.79c-0.29-0.28-0.68-0.5-1.17-0.65c-0.49-0.15-1.1-0.23-1.83-0.23h-3.29
	L66.13,95.32z M76.24,95.32h2.39l1.33-4.85l1.28,3.3h0.05l3.13-3.32l-1.33,4.87h2.43l2.34-8.48h-2.72l-2.97,3.28l-1.16-3.28h-2.44
	L76.24,95.32z M88.26,95.32h2.42l2.34-8.48H90.6L88.26,95.32z M93.41,95.32h2.41l1.35-4.89l2.36,4.89h2.12l2.34-8.48h-2.41
	l-1.31,4.71L98,86.83h-2.26L93.41,95.32z M104.38,95.32h7.05l0.55-2h-4.66l0.37-1.34h4.16l0.51-1.86h-4.17l0.36-1.28h4.59l0.56-2
	h-6.99L104.38,95.32z M159.99,95.21c0.54-0.17,1-0.45,1.39-0.83c0.6-0.58,1.05-1.43,1.35-2.53l1.38-5.02h-2.44l-1.3,4.67
	c-0.09,0.34-0.2,0.62-0.31,0.84c-0.11,0.22-0.26,0.41-0.42,0.57c-0.31,0.3-0.7,0.45-1.17,0.45c-0.44,0-0.78-0.11-1.01-0.33
	c-0.23-0.22-0.35-0.52-0.35-0.91c0-0.14,0.01-0.27,0.03-0.4c0.02-0.13,0.05-0.26,0.09-0.4l1.23-4.48h-2.45l-1.19,4.31
	c-0.07,0.24-0.11,0.47-0.15,0.7c-0.04,0.23-0.05,0.45-0.05,0.66c0,0.94,0.31,1.67,0.92,2.19c0.61,0.52,1.48,0.78,2.61,0.78
	C158.84,95.48,159.45,95.39,159.99,95.21 M164.4,95.32h2.41l1.35-4.89l2.35,4.89h2.12l2.34-8.48h-2.41l-1.3,4.71l-2.26-4.71h-2.25
	L164.4,95.32z M175.4,95.32h2.41l2.34-8.48h-2.42L175.4,95.32z M183.05,95.38h2.25l5.87-8.54h-2.73l-3.43,5.33l-0.49-5.33h-2.64
	L183.05,95.38z M190.61,95.32h7.05l0.55-2h-4.66l0.37-1.34h4.16l0.51-1.86h-4.16l0.36-1.28h4.58l0.56-2h-6.99L190.61,95.32z
	 M203.81,90.91l0.57-2.05h1.31c0.52,0,0.87,0.1,1.07,0.3c0.15,0.16,0.22,0.35,0.22,0.57c0,0.37-0.16,0.65-0.49,0.87
	c-0.32,0.21-0.76,0.32-1.31,0.32H203.81z M200.16,95.32h2.43l0.71-2.57h1.07l1.16,2.57h2.67l-1.34-2.86
	c0.9-0.24,1.55-0.62,1.98-1.15c0.42-0.53,0.63-1.15,0.63-1.86c0-0.34-0.05-0.66-0.16-0.95c-0.11-0.3-0.28-0.56-0.51-0.79
	c-0.29-0.28-0.68-0.5-1.17-0.65c-0.49-0.15-1.1-0.23-1.83-0.23h-3.29L200.16,95.32z M215.55,95.25c0.46-0.14,0.85-0.34,1.18-0.6
	c0.33-0.26,0.58-0.57,0.77-0.93c0.18-0.36,0.27-0.76,0.27-1.19c0-0.32-0.06-0.6-0.17-0.84c-0.11-0.24-0.27-0.45-0.47-0.63
	c-0.2-0.18-0.44-0.35-0.72-0.49c-0.28-0.15-0.58-0.28-0.92-0.4c-0.3-0.11-0.54-0.21-0.73-0.29c-0.19-0.08-0.34-0.15-0.44-0.22
	c-0.1-0.07-0.18-0.13-0.22-0.19c-0.04-0.06-0.06-0.13-0.06-0.22c0-0.17,0.08-0.31,0.25-0.43c0.17-0.12,0.4-0.18,0.7-0.18
	c0.45,0,0.86,0.08,1.24,0.26c0.38,0.17,0.73,0.39,1.06,0.68l1.5-1.62c-0.43-0.39-0.94-0.7-1.53-0.92c-0.59-0.23-1.28-0.34-2.05-0.34
	c-0.53,0-1.02,0.07-1.48,0.21c-0.45,0.14-0.84,0.34-1.17,0.59c-0.33,0.26-0.59,0.56-0.77,0.92c-0.19,0.35-0.28,0.74-0.28,1.16
	c0,0.32,0.05,0.59,0.16,0.83c0.11,0.23,0.26,0.44,0.46,0.62c0.19,0.18,0.43,0.34,0.71,0.49c0.28,0.14,0.59,0.28,0.94,0.41
	c0.31,0.11,0.55,0.21,0.74,0.3c0.19,0.08,0.34,0.16,0.45,0.23c0.1,0.07,0.18,0.14,0.22,0.2c0.04,0.07,0.05,0.15,0.05,0.23
	c0,0.19-0.09,0.35-0.27,0.46c-0.18,0.11-0.42,0.17-0.71,0.17c-0.94,0-1.84-0.39-2.69-1.15l-1.56,1.56c0.47,0.49,1.05,0.87,1.74,1.15
	c0.69,0.27,1.46,0.41,2.31,0.41C214.6,95.46,215.1,95.39,215.55,95.25 M219.35,95.32h2.42l2.35-8.48h-2.42L219.35,95.32z
	 M226.27,95.32h2.43l1.77-6.42h2.62l0.56-2.06h-7.64l-0.57,2.06h2.62L226.27,95.32z M235.81,95.32h2.43l0.84-3.03l4.87-5.45h-2.89
	l-2.63,3.17l-0.86-3.17h-2.6l1.75,5.2L235.81,95.32z"/>
<path d="M174.06,79.89c-0.62-1.37-1.09-2.34-1.39-2.87c-2.81-5.03-5.98-8.6-7.33-10.13l-0.12-0.13c-0.18-0.2-0.42-0.46-0.7-0.75
	c-0.47-0.5-1.69-1.77-1.99-2.43c0.06-0.98,0.61-1.76,2.04-3.66c0.76-1.01,1.71-2.27,2.7-3.84c3.04-4.8,4.46-10.38,4.46-17.57
	c0-7.69-3.24-13.72-9.01-17.47l3.5-4.14l-1.35-0.61l3.27-5.37l-2.59-0.45c0.29-0.86,0.51-1.77,0.64-2.72L167.26,0l-8.04,3.45
	c-2.41,1.05-6.43,2.82-12.96,1.7c-1.42-0.24-2.57-0.57-3.79-0.93L142.4,4.2c-1.17-0.35-2.43-0.72-3.83-0.95
	c-5.04-0.87-9.07-0.31-11.98,1.66c-2.16,1.48-3.62,3.76-4.11,6.43c-0.11,0.6-0.16,1.21-0.16,1.86c0,1.19,0.2,2.23,0.48,3.12
	c-0.09,0.05-0.18,0.09-0.26,0.15c-2.48,1.4-3.31,3.39-3.56,4.82l-0.04,0.26c-0.02,0.19-0.02,0.38-0.02,0.56c0,0.06,0,0.12,0,0.18
	c-0.79,0.85-1.63,1.75-1.63,1.75l-4.33,4.65l3.51,0.59c-1.87,4.08-5.83,12.74-7.7,16.79c-1.94-0.18-3.63-0.38-4.67-0.58l-6.03-1.11
	l2.22,5.71c0.94,2.43,9.35,23.9,9.35,23.9l1.34,3.42l2.98-1.42c0.98,1.42,2.49,2.78,4.87,3.39c-1.96,4.54-3.4,10.54-4.29,17.94
	c-0.15,1.26,0.32,2.2,0.55,2.67c-0.48-1-0.13-2.45,0.68-3.17l3.53,5.81c0.31-0.16,0.6-0.35,0.87-0.57
	c16.43-11.48,31.52-17.8,42.59-17.8c2.46,0,3.9,0.2,5.05,0.36c1.15,0.16,2.23,0.31,3.57,0.15l4.62-0.61L174.06,79.89z"/>
<path style="fill:#820024;" d="M162.61,68.63c-0.85-0.98-3.54-3.41-3.54-5.23c0-3.33,2.37-4.94,5.28-9.53
	c2.09-3.3,3.93-7.9,3.93-15.74c0-8.59-4.63-13.95-11.41-16.55c1.11-0.58,1.81-1.44,2.4-2.18l1.38-1.64l-1.18-0.53
	c0,0-0.25-0.11-0.33-0.15c1.04-0.67,1.95-1.59,2.69-2.81l0.75-1.22c0,0-2.08-0.36-2.59-0.45c1.49-1.39,2.46-3.31,2.79-5.7l0.25-1.75
	l-1.65,0.71l-0.79,0.34c-2.58,1.13-7.38,3.23-14.91,1.94c-1.67-0.28-2.99-0.67-4.28-1.05c-1.14-0.34-2.23-0.65-3.43-0.86
	c-4.15-0.72-7.33-0.34-9.46,1.12c-1.43,0.98-2.35,2.43-2.67,4.21c-0.08,0.44-0.11,0.86-0.11,1.26c0,1.68,0.62,2.99,1.1,3.99
	c0.23,0.47,0.44,0.91,0.51,1.24c-0.07,0.02-0.18,0.04-0.18,0.04c-0.4,0.04-0.93,0.1-1.46,0.31c-0.46,0.18-0.98,0.38-1.5,0.67
	c-1.07,0.6-1.69,1.41-1.88,2.44c-0.01,0.07-0.01,0.15-0.01,0.22c0,0.37,0.15,0.75,0.34,1.16c-0.54,0.59-2.89,3.11-2.89,3.11
	l1.81,0.31l2.62,0.43c0.1,0.02,0.19,0.02,0.29,0.03c-1.99,1.82-2.95,3.37-3.21,3.74c-0.52-0.14-1.57-0.51-1.57-0.51
	s-8.2,17.95-8.86,19.3c-2.47-0.18-5.53-0.47-7.39-0.81c0.94,2.43,9.35,23.89,9.35,23.89s2.04-0.96,2.71-1.31
	c0.77,2.18,1.79,4.87,6.14,4.87c1.05,0,2.43-0.26,3.11-0.43c-4.93,6.09-6.5,18.32-7.07,23.73c26.73-18.83,41.75-18.77,45.04-18.77
	c5,0,6.65,0.34,8.43,0.78C168.18,74.8,164.07,70.27,162.61,68.63z"/>
<path style="fill:#FFFFFF;" d="M145.59,21.77c13.76,0,20.54,6.91,20.54,15.81c0,10.88-11.54,14.69-20.35,16.84
	c0.09-0.96,0.36-2.43,0.5-3.3c0.35-1.62,0.83-1.62,1.84-2.76c0.99-1.11,3.05-3.07,3.05-6.27c0-3.93-2.64-6.93-7.48-6.93
	c-4.04,0-6.18,2.33-8.73,2.33c-2.04,0-4.04-0.43-4.78-0.6c0.68-0.7,1.52-1.5,2.24-2.24c0.28-0.29,0.29-0.45,0.29-0.64
	c0-0.42-0.32-0.71-0.7-0.71c-0.46,0-0.67,0.18-1.13,0.61c-0.51,0.5-1.78,1.85-2.36,2.51c-0.29-0.08-1.11-0.36-1.49-0.53
	c1.25-1.53,2.86-3.22,4.2-4.29c0.33-0.27,0.4-0.44,0.4-0.69c0-0.45-0.36-0.78-0.79-0.78c-0.38,0-0.51,0.11-0.92,0.43
	c-1.28,0.97-3.22,3.17-4.33,4.64c-0.35-0.18-0.88-0.51-1.24-0.75c1.72-2.38,4.12-4.77,6.67-6.47c0.34-0.23,0.57-0.32,0.57-0.75
	c0-0.36-0.31-0.74-0.79-0.74c-0.33,0-0.55,0.15-0.83,0.34c-1.45,0.94-4.46,3.33-6.83,6.63c-0.38-0.35-0.67-0.69-0.85-0.93
	C124.02,30.18,129.7,21.77,145.59,21.77 M143.2,65.55c0.13-5.09,0.24-10.58,1.01-14.83c0.31-1.72,1.32-2.7,2.33-3.76
	c1-1.05,2.52-2.3,2.52-4.76c0-2.55-1.59-4.99-5.6-4.99c-3.41,0-5.51,2.29-8.13,2.29c-7.76,0-13.36-3.47-14.93-6.02
	c-0.47,0.91-7.27,15.9-7.27,15.9c0.97,0.02,2.99-0.08,3.27-0.09c0.22-0.42,2.19-4.25,2.19-4.25s7.04,2.14,7.83,2.37
	c2.72-0.71,7.53-3.85,11.04-5.98c1.92-1.18,4.25-2.54,6.07-2.54c2.44,0,3.68,1.89,3.68,3.3c0,1.82-0.82,2.6-1.69,3.32
	c-0.85,0.73-7.32,5.81-10.95,8.64c-2,1.58-2.41,2.24-3.23,3.75c-1.15,2.09-2.34,3.71-3.42,5.11c-0.79,1.03-2.18,2.56-5,4.17
	c-0.95,0.55-4.45,2.38-5.53,2.89c0.8,2.54,1.58,3.79,4.16,3.79c1.98,0,3.76-0.69,5.87-1.37C129.57,71.81,141.42,66.58,143.2,65.55
	 M113.94,69.52c0,0,3.95-1.98,7.37-3.8c2.35-1.25,4.37-2.65,8.22-8.86c1.43-2.3,1.78-2.81,4.24-4.71c3.48-2.68,9.89-7.47,10.57-8.01
	c0.64-0.51,0.88-1.04,0.88-1.61c0-0.97-0.76-1.85-2-1.85c-1.19,0-2.2,0.76-2.97,1.22c-2.53,1.5-6.22,3.88-9.59,5.83
	c-5.04,2.92-13.37,3.52-18.76,3.52c-2.87,0-4.51-0.18-5.2-0.26C107.64,53.39,113.94,69.52,113.94,69.52 M145.65,56.12
	c-0.01,0.27-0.07,1.7-0.08,1.87c7.24-1.37,13.55-3.98,17.65-6.68c0.56-0.85,1.84-3.8,2.1-4.52
	C161.22,51.26,153.66,54.38,145.65,56.12 M145.49,59.62c0,0.32-0.03,1.61-0.04,1.95c4.51-0.86,11.17-2.97,13.41-3.83
	c0.66-1.13,2.19-2.84,2.78-3.66C157.91,56.25,150.93,58.58,145.49,59.62 M145.48,63.22c-0.01,0.39-0.03,1.26-0.04,1.64
	c5.12-1.29,9.8-1.71,11.48-1.48c0.12-0.9,0.5-2.51,0.71-3.24C155.18,60.97,149,62.56,145.48,63.22 M142.11,69.04
	c0.03,0.49,0.2,2.07,0.22,2.7c4.76-2.29,9.89-3.94,16.74-3.91c-0.2-0.23-1.28-1.51-1.62-2.05C151.71,64.99,145.34,67.5,142.11,69.04
	 M143.37,73.54c0.05,0.52,0.29,2.83,0.35,3.48c5.44-2.58,11.22-4.83,19.63-4.27c-0.81-1.03-1.82-2.29-2.29-2.77
	C156.42,69.01,149.23,70.38,143.37,73.54 M144.6,78.88c0.07,0.73,0.19,2.3,0.25,3.12c1.54-0.54,9.59-3.6,18.06-3.6
	c2.43,0,3.9,0.11,4.43,0.15c-0.45-0.84-1.49-2.57-2.35-3.58C157.8,74.04,150.89,76.01,144.6,78.88 M128.72,74.22
	c-2.57,2.23-4.28,5.51-5.13,7.62c8.02-5.89,14.04-8.37,16.67-9.54c-0.06-0.83-0.12-2.07-0.15-2.98
	C139.03,69.86,131.9,72.95,128.72,74.22 M141.3,74.1c-8.15,3.49-14.6,7.69-19.01,11.46c-0.23,0.86-0.66,2.44-0.91,3.75
	c6.78-5.9,17.28-10.93,20.21-12.22C141.51,76.24,141.35,74.7,141.3,74.1 M120.74,92.76c-0.07,0.46-0.29,1.75-0.33,2.14
	c9.58-6.5,18-10.48,22.4-12.13c-0.07-0.76-0.27-3.02-0.32-3.81C139.15,80.49,127.69,85.77,120.74,92.76 M125.21,20.77
	c-0.59,0.34-0.77,0.65-0.85,0.95c0.05,0.11,0.19,0.46,0.19,0.46l0.28,0.8l0.13,0.37c0,0-0.83,0.88-1.22,1.31
	c0.33,0.06,0.8,0.14,0.8,0.14c1.65,0.28,2.93-0.39,3.88-0.88l0.22-0.11l-0.09,0.05c4.62-2.99,10.43-4.5,17.32-4.5
	c2.2,0,4.32,0.19,6.29,0.57c0,0,0.76,0.13,0.77,0.16c2.69,0.44,3.53-0.41,4.49-1.57c-0.55-0.24-3.85-1.65-3.85-1.65l2.89-0.7
	c1.03-0.25,1.94-0.82,2.72-1.69c-0.96-0.17-4.99-0.86-4.99-0.86l2.79-1.33c1.62-0.77,2.73-2.05,3.35-3.82
	c-2.86,1.18-7.85,2.84-15.01,1.62c-1.78-0.3-3.23-0.72-4.5-1.1c-1.09-0.32-2.12-0.62-3.2-0.8c-3.54-0.61-6.29-0.33-7.95,0.8
	c-0.99,0.67-1.6,1.65-1.84,2.93c-0.05,0.32-0.08,0.61-0.08,0.91c0,1.25,0.48,2.25,0.92,3.15c0.37,0.78,0.73,1.52,0.73,2.31
	c0,0.15-0.01,0.3-0.04,0.45c-0.21,1.1-1.35,1.24-1.95,1.32c-0.34,0.04-0.68,0.08-0.97,0.19C126.02,20.39,125.58,20.55,125.21,20.77"
	/>
<path style="fill:#820024;" d="M143.94,42.78c0,0.51-0.43,0.93-0.96,0.93c-0.53,0-0.96-0.41-0.96-0.93c0-0.51,0.42-0.93,0.96-0.93
	C143.51,41.85,143.94,42.27,143.94,42.78 M139.21,75.66c-0.52,0-0.95,0.41-0.95,0.93c0,0.51,0.42,0.93,0.95,0.93
	c0.54,0,0.96-0.42,0.96-0.93C140.18,76.07,139.75,75.66,139.21,75.66 M138.29,70.71c-0.52,0-0.95,0.42-0.95,0.94
	c0,0.51,0.43,0.93,0.95,0.93c0.54,0,0.96-0.42,0.96-0.93C139.25,71.13,138.83,70.71,138.29,70.71 M140.29,80.97
	c-0.53,0-0.96,0.41-0.96,0.93c0,0.51,0.43,0.93,0.96,0.93c0.53,0,0.96-0.42,0.96-0.93C141.25,81.38,140.82,80.97,140.29,80.97"/>
</svg>
