<?xml version="1.0" encoding="UTF-8" standalone="no"?>
<svg xmlns:rdf="http://www.w3.org/1999/02/22-rdf-syntax-ns#" xmlns="http://www.w3.org/2000/svg" xml:space="preserve" height="283.1" viewBox="0 0 283.09125 283.09625" width="283.09" version="1.1" xmlns:cc="http://creativecommons.org/ns#" xmlns:dc="http://purl.org/dc/elements/1.1/"><g transform="matrix(1.25 0 0 -1.25 -242.51 555.75)"><g><path d="m307.27 443.82-112.44-112.43 112.44-112.44 112.44 112.44-112.43 112.43h-0.002z" fill="#bf0c26"/><path d="m392.78 385.41 1.651 4.668-4.946 0.237c-8.118 0.388-16.645 1.979-26.066 4.864-2.422 0.742-4.759 1.653-7.231 2.617-2.895 1.127-5.887 2.294-9.114 3.208-1.551 0.438-3.055 0.842-4.519 1.217-4.704 1.366-10.099 2.593-16.403 3.402-6.786 1.055-10.845 1.212-11.14 1.222-2.008 0.051-3.939 0.076-5.77 0.076-8.231 0-15.475-0.506-22.148-1.547-7.286-1.137-14.666-3.113-22.562-6.042-1.128-0.418-2.252-0.85-3.375-1.283-3.964-1.525-7.708-2.967-11.621-3.793-4.491-0.947-9.227-1.652-14.126-2.125-12.424-0.955-18.337 1.193-18.337 1.193l3.019-6.489c0.026-0.061 0.091-0.211 0.189-0.426 1.925-4.668 4.918-9.436 9.155-14.56 0.744-0.9 1.503-1.757 2.27-2.593 3.548-3.922 7.907-7.754 13.087-10.595-0.684-1.365-1.29-2.747-1.864-4.089-1.146-2.677-2.25-5.578-3.359-8.784-3.396-9.529-6.423-20.69-6.659-29.212-0.213-7.674-0.028-14.124-0.028-14.124l5.773 7.127c-0.111-6.224 0.703-13.762 4.286-22.131 1.093-2.624 3.57-6.897 4.495-8.191 3.972-5.64 9.8-10.75 18.348-13.476l5.663-1.806-0.907 5.876c-0.399 2.639-0.866 11.008 2.133 14.634 0.736 0.889 1.642 1.418 2.805 1.63 0.394-1.707 0.99-3.681 1.996-5.77 0.049-0.106 0.105-0.212 0.157-0.316 0.086-0.173 0.171-0.346 0.262-0.521 1.299-2.477 3.188-5.081 6.005-7.563l0.069-0.061 0.072-0.058c1.308-1.047 5.98-4.587 11.795-6.654l5.38-1.729-0.598 3.444c1.465-0.786 3.131-1.541 5.023-2.229l6.036-2.195-0.729 3.985c1.456-0.45 2.809-0.771 3.784-0.944l5.197-0.777-1.172 5.942c0.016 0.016 0.032 0.029 0.048 0.043 0.362 0.217 0.895 0.473 1.289 0.662 0.601 0.288 1.222 0.584 1.839 0.959 4.219 2.553 7.736 6.324 10.175 10.909 0.61 1.149 1.144 2.342 1.587 3.549 0.245 0.673 0.424 1.327 0.582 1.906 0.145 0.532 0.282 1.037 0.441 1.439 0.164 0.413 0.496 0.903 0.898 0.928 0.033 0.002 0.067 0.002 0.101 0.002 0.11 0 0.22-0.01 0.333-0.033 0.146-0.037 0.282-0.085 0.42-0.129 1.597-0.643 3.364-3.113 4.207-5.445 2.568-6.881 0.321-15.517-3.312-20.804l0.03-0.028c-3.122-4.441-6.737-6.903-6.737-6.903s3.504-0.742 11.944 2.968c6.648 2.922 18.189 10.591 23.227 15.928 3.272 3.469 5.973 6.916 7.7 10.572 2.05 4.337 3.417 9.36 4.302 15.809 0.308 2.242 0.483 4.539 0.527 6.874 0.475-0.247 0.855-0.443 1.061-0.55l5.977-3.088-0.62 6.699c-1.293 13.96-5.47 26.082-8.762 33.823-1.343 3.704-2.888 7.341-4.61 10.86 13.442 5.772 21.025 26.798 21.377 27.791" fill="#fff"/><path d="m142.69 51.73c-8.54 0.052-17.09 0.561-25.51 1.875-9.36 1.46-18.442 4.03-27.311 7.319-6.407 2.376-12.685 5.117-19.396 6.533-8.46 1.785-17.17 2.851-25.801 3.33-1.705 0.095-6.302 0.523-7.668-0.283 0 0 0.012 0.025 0.017 0.039-0.003-0.003-0.012-0.003-0.017-0.006 2.527 6.326 6.625 12.274 10.941 17.494 6.007 7.264 13.381 13.649 22.061 17.479-1.843 2.75-3.214 5.83-4.51 8.86-1.799 4.2-3.375 8.5-4.824 12.83-2.976 8.91-5.614 18.11-6.854 27.44-0.443 3.34-0.539 6.69-0.507 10.05v0.03l0.043-0.06 8.109-4.34c-2.519 8.03-2.087 48.69 29.769 58.84 0 0-3.88-25.16 11.738-25.75 0.9 0.02 1.81 0.07 2.81 0.24 0.78 4.55 2.08 12 9.74 18.74 0.33 0.26 6.16 5 13.42 7.58-0.05-0.03-1.15-8.28-1.15-8.28 1.08 2.03 5.15 5.93 13.44 8.94l-1.11-6.04c0.77 1.26 6.4 3.84 11.7 4.77 0 0-1.12-2-0.11-3.97 1.02-1.98 3.94-2.76 5.93-3.97 4.66-2.82 8.48-7.06 11.04-11.86 0.66-1.24 1.24-2.53 1.72-3.86 0.51-1.4 0.77-2.9 1.32-4.29 0.86-2.18 2.7-3.91 5.11-4.06 5.29-0.33 9.38 5.7 10.95 10.04 3.62 9.71 0.7 21.55-5.02 29.87 10.02-6.12 20.49-12.19 28.89-20.53 3.5-3.48 6.58-7.43 8.7-11.91 2.71-5.74 4.12-12.16 4.98-18.42 0.72-5.22 0.81-10.45 0.37-15.69 0.84 0.47 8.29 4.32 8.29 4.32-1.36-14.69-5.59-29.14-10.65-41.02-2.37-6.54-5.14-12.62-8.16-18.16 18.02-2.15 29.06-33.373 29.06-33.373-11.54-0.552-22.69-2.901-33.71-6.276-6.87-2.104-13.2-5.232-20.34-7.252-23.3-6.595-38.98-7.131-38.98-7.131-2.83-0.072-5.68-0.105-8.52-0.088zm0.06 5.249c3.4 0.029 5.36 0.175 5.36 0.175 11.82 0.579 23.56 3.029 34.98 6.055 4.63 1.23 9.24 2.584 13.8 4.084 4.56 1.502 9.02 3.308 13.58 4.799 8.16 2.662 16.79 4.476 25.32 5.316-1.7 3.309-7.07 20.884-29.28 23.882l2.27 4.28c17.34 32.67 17.74 52.02 17.74 52.02-2.45-0.92-4.96-1.78-7.5-2.58 1 9.91 0.86 19.89-2.06 29.5-4.99 16.46-19.78 26.38-20.6 26.93 0.19-8.46-0.56-16.79-5.6-23.86-2.42-3.41-5.28-5.87-9.34-7.06-1.88-0.55-3.91-0.89-5.88-0.81-0.27 0.07-8.22-0.54-10.65 7.65-0.04 0.09-0.07 0.17-0.1 0.26-1 5.23-3.13 10.11-6.57 14.19-0.03 0.02-0.05 0.05-0.08 0.07-3.25 3.67-6.35 4.93-6.35 4.93-9.69 5.36-12.75-2.52-12.75-2.52l-3.73 6.35c-3.15 0.19-9.05-5.3-9.05-5.3l-2.48 6.01c-4.37-1.51-7.75-5.04-9.69-9.17-1-1.79-1.61-3.81-2.2-5.76-0.61-2.02-1.03-3.72-0.92-5.85l0.01 0.01c1.01-8.6 0.19-22.03-1.16-25.06-0.38-1.08-1.36-3.64-2.88-5.51-1.39-1.93-4.68-4.63-4.88-4.8 3 0.98 6.17 2.66 8.11 5.22 1.41 1.86 2.23 4.31 2.96 6.51 0.68 2.02 1.14 4.11 1.43 6.23 0.32 2.39 0.44 4.8 0.47 7.21 0.04 2.99-0.27 5.84-0.03 9.01 0.33 4.33 2.23 10.2 7.23 11.01 7.59-2.56 21.15-0.19 21.15-0.19 6.98-3.52 16.07-7.69 20.15-39.08-0.24-2.62-2.31-4.66-4.75-5.39 5.1-0.53 9.59-3.42 13.27-6.85l0.14-0.1c0.45-0.38 0.87-0.79 1.26-1.22 2.13-2.35 3.79-4.97 4.78-6.73 0.34-0.61 1.16-2.35 1.25-2.61 0.08-0.27 0.15-0.52 0.23-0.78 0.63-2.19 0.89-4.11 0.98-5.24 0.01-0.04 0.01-0.08 0.01-0.12 0.02-0.32 0.04-0.58 0.05-0.74 0.05-1.39-0.04-2.37-0.07-2.78-0.02-0.27-0.06-0.52-0.09-0.78-0.05-0.43-0.11-0.85-0.18-1.24-0.02-0.13-0.05-0.25-0.08-0.37-0.39-1.88-1.02-3.41-1.81-5.04-8.9 1.35-17.7 3.59-26.31 6.18 5.61 2.29 12.85 7.08 12.85 13.88 0.19 5.59-5.36 7.49-9.94 8.15l-18.96-5.8c9.79-7.05 12.66-16.17 12.66-16.17l-33.55 0.79c0.44 7.12 5.28 12.6 9.33 15.98l-16.6 6.46c-2.57 0.11-5.71-0.99-7.77-2.54-1.639-1.23-2.758-3-3.099-5.03-1.008-3.85 1.452-8.5 4.309-10.98 2.33-2.04 5.5-3.05 8.56-3.17l-24.809-6.04c-0.018 0.05-0.034 0.1-0.052 0.15-0.529 1.36-0.946 2.77-1.258 4.21-0.321 1.49-0.524 3.01-0.598 4.53-0.077 1.63-0.018 3.25 0.207 4.85 0.18 1.27 0.47 2.52 0.854 3.73 0.005 0.01 0.008 0.03 0.011 0.04 0.498 1.56 1.162 3.06 2.018 4.46 0.068 0.11 0.145 0.22 0.215 0.33 0.001 0 0.003 0.01 0.006 0.01 0.82 1.28 1.785 2.48 2.935 3.55l1.024 0.6c6.813 4.25 11.057 9.38 12.287 11.37 6.14 11.08 0.66 23.58 1.27 26.38-5.241-1.34-15.096-0.63-21.62 20.51-20.272-17.03-16.123-49.19-15.293-53.78-3.656 1.47-6.481 2.69-7.607 3.18 5.557-33.61 16.658-52.29 16.658-52.29 0.99-1.97 2.799-3.47 5.104-2.89 2.291 0.57 4.069 2.58 5.23 4.53 1.348 2.27 2.818 4.29 4.813 6.06 3.483 3.09 7.691 4.68 12.355 4.37 2.4-0.16 10.33-0.14 8.63 5.51 0 0 21.52-16.98-2.74-25.201l-17.976-5.575c-3.58-1.325-7.151-2.884-10.332-5.019-1.984-1.331-4.013-2.99-5.039-5.205-3.046-6.574 6.451-11.471 10.986-13.655 6.232-2.5 12.599-4.952 19.121-6.587 10.56-2.649 21.63-3.78 32.49-3.989v-0.031c1.44-0.027 2.73-0.029 3.86-0.019zm-15.03 12.933l-5.69 19.012-22.809-1.053c23.959 5.108 26.789 14.329 26.789 14.329l1.71-32.288zm5.3 0.924l1.97 32.274s1.01-9.52 30.26-16.34l-26.14 2.072-6.09-18.006zm54.3 15.266l-35.34 10.957c-23.28 8.491-2.74 25.201-2.74 25.201-0.36-2.92-1.37-6.08 9.04-5.48 18.9 1.1 17.53-18.352 17.53-18.352l11.51-12.326zm-90.359 15.648c0.999-0.01 2.44 0.02 4.209 0.15-0.29 0.74-0.46 1.54-0.46 2.38 0 3.68 2.99 6.67 6.68 6.67 3.67 0 6.65-2.96 6.67-6.61 0.85 0.25 1.69 0.53 2.56 0.84 0 0-4.39 8.15-12.55 7.27-8.163-0.88-9.164-8.27-8.666-10.65 0 0 0.557-0.04 1.557-0.05zm68.829 0.28c1.92-0.04 3.06 0.04 3.06 0.04 0.5 2.38-0.51 9.77-8.66 10.64-8.16 0.89-12.56-7.26-12.56-7.26 1.93-0.7 3.8-1.24 5.59-1.69-0.07 0.37-0.11 0.74-0.11 1.12 0 3.69 2.99 6.66 6.67 6.66 3.69 0 6.68-2.97 6.68-6.66 0-1.03-0.25-1.98-0.67-2.85zm-35.36 49.07c6.67 1.83 13.29 3.82 19.89 5.86-1.92 3.79-2.5 8.54-2.93 12.73-3.35-3.06-4.05-8.41-4.14-11.48l-22 0.16c-1.26 4.65-1.5 11.16-1.5 11.16-5.27-6.17-3.91-12.27-3.91-12.27l14.59-6.16zm13.45 30.32s-0.85 7.87 2.51 13.25c-7.81-3.73-17.83-3.75-25.64 0-0.05-0.02-1.98-6.33 0.49-12.69l4.46 6.93s9.4 0.38 13.68-0.36c0 0 0.78-3.76 4.5-7.13z" transform="matrix(.8 0 0 -.8 194.01 444.6)"/><path d="m235.79 77.408c-12.74 4.756-25.34 7.896-39.08 7.477 3.9 4.877 6.59 11.028 9.8 16.405 22.21-2.998 27.58-20.573 29.28-23.882zm-74.49 24.932l-3.58 0.55 1.84 5.84 1.74-6.39zm-55.82 0.25l1.85 6.4 1.73-5.86-3.58-0.54zm109.71 18.17l-36.67 0.38c0.79 1.63 1.42 3.16 1.81 5.04 0.03 0.12 0.06 0.24 0.08 0.36 0.07 0.4 0.13 0.82 0.18 1.25 0.02 0.14 0.05 0.27 0.06 0.41 0.02 0.12 0.02 0.24 0.03 0.37 0 0 0 0.01 0.01 0.02l34.5-7.83zm-145.37 1.22l14.063 5.23c0.312-1.44 0.729-2.85 1.258-4.21 0.018-0.05 0.034-0.1 0.052-0.15l-15.373-0.87zm110.93 9.37c-0.01 0.16-0.03 0.42-0.05 0.74 0 0.04 0 0.08-0.01 0.12-0.09 1.13-0.35 3.05-0.98 5.24-0.08 0.28-0.15 0.54-0.23 0.78l40.37-5.08-39.1-1.8zm-40.13 0.24s-14.55 0.51-19.51 0.53c0 0 0.75 3 2.12 4.08 0 0-0.03-0.72 0.95-1.36 0.99-0.62 2.76 0.5 2.78 2.5 0.01 0.69-0.36 2.38-0.36 2.38l3.73 3.16 3.58-3.88s-1.55-1.13-1.64-1.91 0.53-2 1.54-2.52c1.59-0.83 3.36 0.7 3.36 0.7l3.45-3.68zm-57.337 0.15l-16.623 0.44 16.815 4.43c0.006-0.01 0.009-0.01 0.015-0.02-0.225-1.6-0.284-3.22-0.207-4.85zm1.061 8.58l-21.328 4.37 23.572 0.46c-0.07-0.11-0.147-0.22-0.215-0.33-0.856-1.4-1.52-2.9-2.018-4.46-0.003-0.01-0.006-0.03-0.011-0.04zm93.886 0.52c-0.99 1.76-2.65 4.38-4.78 6.73l49.61-2.71-44.83-4.02z" transform="matrix(.8 0 0 -.8 194.01 444.6)" fill="#bf0c26"/></g></g></svg>
