<?xml version="1.0" encoding="UTF-8"?>
<svg width="200px" height="200px" viewBox="0 0 200 200" version="1.1" xmlns="http://www.w3.org/2000/svg" xmlns:xlink="http://www.w3.org/1999/xlink">
    <!-- Generator: Sketch 54.1 (76490) - https://sketchapp.com -->
    <title>le-moyne</title>
    <desc>Created with Sketch.</desc>
    <g id="le-moyne" stroke="none" stroke-width="1" fill="none" fill-rule="evenodd">
        <g id="le-moyne_BGL" fill="#19422E">
            <g id="le-moyne" transform="translate(0.000000, 56.000000)">
                <g id="g10" transform="translate(100.000000, 44.945710) scale(-1, 1) rotate(-180.000000) translate(-100.000000, -44.945710) translate(0.000000, 0.945710)" fill-rule="nonzero">
                    <g id="g12">
                        <path d="M164.632077,27.5309995 C164.967699,27.269573 165.321312,26.8808486 165.678027,26.3269474 C165.678027,26.3269474 165.754953,26.1835043 165.866621,26.0363355 C166.36354,25.3855637 166.792218,25.451386 167.335045,26.2033752 C166.400142,26.5653981 165.484471,27.0013159 164.632077,27.5309995 Z M160.134989,32.3006356 C162.030851,31.0630513 163.537738,29.7422577 163.537738,29.7422577 C164.832458,28.3283192 167.063942,27.3726533 168.896525,26.7814941 C168.015595,25.1912015 166.590597,23.3500387 165.029116,25.397362 C164.851069,25.632087 164.75305,25.8264492 164.75305,25.8264492 C164.591753,26.0735935 163.931675,26.9938643 163.421728,26.9330097 C160.942715,25.794159 157.355715,29.2541788 155.894115,30.942584 C153.705437,32.870061 151.493185,31.7430086 149.827482,30.3352798 C149.454017,31.447429 149.189117,32.3186436 150.280354,33.1109956 C151.35298,33.9207346 152.910739,34.3684507 154.049124,34.5025793 C155.88605,34.777667 158.305507,33.4953732 160.134989,32.3006356 Z M0.986083831,7.46574095 L0,7.82900577 C4.18752177,21.8305361 13.9022001,37.3770286 34.2196214,51.3282608 C34.7382538,51.7281626 46.2368784,60.6930417 45.9769418,69.2232449 C45.9800437,70.0832821 45.9763215,72.5578297 45.8590708,73.2582788 C45.8590708,73.2582788 45.8516264,73.4489152 45.8820247,73.6525919 C46.0997758,75.1124818 47.325634,75.0615626 48.4181119,74.3077105 C48.5192328,74.2182914 57.320473,66.2972554 48.0105265,51.7585899 C51.8500187,51.4953005 60.596666,50.8619157 63.627191,49.6106702 L65.2500883,48.9400274 C42.1287644,44.4672129 11.0639909,30.3967553 0.986083831,7.46574095 Z M162.29451,33.6735903 C125.671995,57.9198097 73.6214096,51.5735422 73.612104,51.5729212 L73.391251,52.5981353 C109.487689,63.9524896 138.293496,51.5660906 138.338163,51.5468406 C139.835124,50.83894 142.046756,50.4328285 143.722385,50.4762961 C145.541941,50.6073198 144.263351,51.6604773 142.71676,52.5683289 C103.971327,73.8531637 54.5449216,55.8724864 54.5294122,55.8668977 L54.0467616,56.7933782 C59.9434126,60.938323 60.3112941,69.9069279 60.3119145,69.9367343 C60.699648,78.458244 47.2685597,83.3408958 45.7275516,80.4465755 C45.4936708,80.0069319 45.4682355,79.4468211 45.5755601,78.9680566 C45.661792,77.5789568 45.0662334,76.1507361 43.6468186,77.0797005 C39.5932975,79.3114506 37.7669177,82.8751716 37.7501676,82.9087038 C36.2898081,86.4357879 39.9407067,87.8671134 42.5692297,88 C54.3842448,87.7050414 69.0734508,80.4751399 78.4572218,73.3209963 C81.9921106,71.4481643 87.3490366,71.8548967 87.3657866,71.8567596 C150.683597,70.9178598 175.309327,45.0639607 176.082313,44.2355927 C178.940994,41.6579649 182.994515,36.1667669 183.485231,31.5647915 C183.464759,26.1518351 178.93417,25.1967901 175.009687,26.5610514 C173.700078,26.9336307 171.459289,28.314037 170.261968,29.1014213 C164.962116,31.9622094 162.29451,33.6735903 162.29451,33.6735903 L162.29451,33.6735903 Z M194.6594,6.69077599 C191.546365,7.36887033 188.040014,9.53976575 185.972309,12.002515 C185.253296,13.0587773 182.47092,15.1296973 182.431216,15.1582617 C180.632133,16.7404818 176.635686,18.1121946 176.607149,18.1215091 C175.279549,18.5456286 173.368178,19.4236738 172.103857,20.3271786 C171.724809,20.7134192 170.43257,22.1913171 171.797392,22.4310098 C172.119366,22.4875176 172.500276,22.3869212 172.802398,22.2745265 C177.475051,20.4147347 181.764314,20.9574586 183.772464,25.6513369 C184.085132,26.3815923 184.196799,26.9069292 184.196799,26.9069292 L185.237786,26.8224779 C185.444991,22.1155593 190.599675,19.2715372 190.635657,19.2522873 C191.992414,18.4028065 194.883975,16.2120402 194.883975,16.2120402 C201.291814,10.6283183 199.950566,6.01019779 199.743982,5.42586924 C198.42817,-1.28124134 188.71436,2.24224117 184.814071,3.98535345 C181.335016,5.610296 177.909933,6.83732385 177.909933,6.83732385 C174.077265,8.55801928 162.199592,10.1135379 162.154925,10.1197475 C152.379078,10.5302057 146.146805,13.5822512 146.10524,13.6015012 C145.405459,14.0026449 145.043161,14.0132013 144.924049,13.9927094 L144.707538,13.8474035 C143.264549,13.0687128 136.691071,7.70853846 136.223309,7.32726564 C131.315534,2.13916089 124.523684,0.477332991 119.018488,0.094818236 C113.482895,-0.288876353 109.160131,0.615870396 109.160131,0.615870396 C95.1142529,2.29999096 98.1919263,5.69164248 99.1925889,6.38153517 C102.574866,9.6956281 107.321964,10.148312 111.757015,9.63042672 C110.439342,8.84180052 110.017488,8.61080135 108.95913,7.5619906 C120.675506,4.37078674 127.103817,14.6602474 127.110021,14.6720457 C129.239143,17.5197935 131.330423,18.969748 134.468272,19.8856721 C134.093567,19.0659977 132.640031,16.1226211 133.641935,15.6121875 C134.548921,15.3588336 135.215822,15.4439058 135.383944,16.2909028 C136.956591,19.6205199 139.931903,22.8097987 142.754602,25.1570484 C146.095314,18.4586934 160.177795,14.5608929 167.109849,13.2413412 C171.281241,12.8079072 175.614551,11.4678637 179.543997,10.0079738 C183.025534,8.89706645 189.476179,5.77733572 189.888727,5.57676386 C191.676023,4.89301874 193.826859,4.66885019 194.6594,6.69077599 L194.6594,6.69077599 Z M86.3967631,25.1129598 C96.5690289,27.3105567 107.851764,27.2962745 117.121386,21.5411662 C117.121386,21.5411662 117.209479,21.4697552 117.299433,21.3790942 C119.388851,19.2684324 117.412961,17.0217792 115.278256,15.8090336 L114.629345,16.6212564 C115.731129,18.4450321 110.395916,20.1675905 106.246857,20.986023 C106.246857,20.986023 102.260336,21.8106652 95.84009,21.9323745 C89.3993713,22.0553256 80.5168621,21.471618 70.7472188,18.6480879 L70.360726,19.6230037 C70.3799576,19.6329392 77.1792522,23.1215234 86.3967631,25.1129598 L86.3967631,25.1129598 Z" id="path14"></path>
                    </g>
                </g>
            </g>
        </g>
    </g>
</svg>