<svg xmlns="http://www.w3.org/2000/svg" x="0px" y="0px" width="250px" height="120.94px">
<path d="M228.39,96.67l1.3-0.8c14.24-8.75,20.96-17.91,19.96-27.24c-2.31-21.55-44.37-36.21-46.18-36.82
	c-7.35-2.19-11.31-5.6-11.36-5.65C175.55,12.51,148.73,6.71,128,3.46C99.56-1,74.48,0.29,74.48,0.29S90.77,2.41,97.87,5.2
	C38.36-2.09,0.25,7.16,0.25,7.16s40.96,5.55,69.78,29.12C51.06,26.19,26.9,25.02,26.9,25.02s79.39,39.76,56.57,95.79
	c26.4-25.31,60.88-24.86,60.88-24.86c21.38-0.32,45.12,18.36,73.55,6.32l1.77-0.84c-36.98,0.39-41.33-13.77-41.33-13.77
	s15.16,2.79,21.7,9.41c0,0-5.21-15.84-27.48-21.17C172.56,75.9,238.6,54.2,228.39,96.67"/>
<path fill="#880023" d="M160.68,80.23c0,0,6.86-1.77,9.64-1.57c9.76,0.59,21.95,11.01,21.95,11.01S178.89,80.13,160.68,80.23
	 M233.09,90.03c0,0,8.58-25.6-32.07-27.52l10.68,4.05c0,0-31.36-5.74-61.17,15.96c0,0,14.24-2.66,26.87,9.46
	c0,0,9.65,9.84,23.97,10.06c0,0-10.01,1.99-24.96-4.67c-14.95-6.67-34.48-9.87-44.86-6.35c0,0,11-12.5,38.61-23.65
	c24.61-9.95,28.57-20.88,28.78-30.44C198.95,36.93,271.46,57.15,233.09,90.03z M235.51,61.53c0,0-8.41-13.34-33.18-19.41
	c0,0,0.89,2.23-0.36,4.08C201.96,46.2,222.58,48.58,235.51,61.53z M157.11,31.38c0,0-2.71,4.03,3.45,8.58
	c1.77,1.3,3.58,1.86,5.21,2.05l-0.43-0.26c-2.63-1.77-3.51-3.91-2.67-4.99c0.38-0.47,1.08-0.63,1.95-0.53
	C162.53,34.76,160.01,33.09,157.11,31.38"/>
<path fill="#FFFFFF" d="M186.61,30.57c0,0-5.35-7.87-18.54-12.09c0,0-20.16-8.43-51.7-10.8c0,0,14.73,3.16,25.85,9.75
	c0,0-56.67-13.43-107.99-8.14c0,0,45.88,12.61,67.03,56.47c0,0-13.53-18.2-41.91-27.4c0,0,36.3,20.35,35.11,64.84
	c0,0,7.41-6.7,27.89-12.25c11.63-12.82,20.82-17.86,42.67-27.43C177.44,58.67,198.57,48.79,186.61,30.57z M172.22,45.73
	c-17.37,9.23-35.1,0.99-35.1,0.99c19.13,3.81,26.08-2.69,26.08-2.69c-13.02-4.69-9.68-12.99-9.68-12.99
	c-15.19-9.58-59.6-10.75-59.6-10.75c39.66-1.1,58.4,4.81,66.04,8.08c-4.43-5.66-13.87-8.18-13.87-8.18
	c7,1.08,14.11,2.76,23.92,13.15c7.23,7.64,14.25,8.79,14.25,8.79C177.72,42.76,172.22,45.73,172.22,45.73z M170.52,40.57
	c0,0-1.03,1.39-4.52,0.19c0,0,2.69-0.1,1.48-2.58C167.48,38.18,170.17,40.26,170.52,40.57"/>
<path fill="#8E9093" d="M107.49,79.09c-1.91-37.1-47.14-62.48-47.14-62.48c18.21,3.03,35.62,17.02,50.42,34.18
	c-6.91-16.73-22.75-27.6-22.75-27.6s14.97,3.23,28.22,20.85c19.48,25.9,34.85,21.72,34.85,21.72
	c-24.76,10.86-30.39,21.97-30.39,21.97c-14.46,1.92-22.31,8.01-22.31,8.01c1.88-19.86-13.83-38.45-13.83-38.45
	C95.24,61.14,107.49,79.09,107.49,79.09 M185.25,39.95c0,0-5.85-3.59-11.09-9.9c-7.5-9.03-19.88-9.99-19.88-9.99
	s9.37,2.33,16.68,10.84C178.27,39.42,185.25,39.95,185.25,39.95"/>
</svg>
