<svg xmlns="http://www.w3.org/2000/svg" height="125.71" viewBox="0 0 141.81313 125.71375" width="141.81"><g transform="matrix(1.25 0 0 -1.25 -85.851 422.09)"><g transform="translate(.73143 .91428)"><path d="m180.53 282.28c-0.053 4.707-1.294 9.415-3.588 13.614-2.216 4.057-5.375 7.581-9.136 10.192l-11.561 8.026 15.152 18.796-9.539 1.758c-6.368 0.909-13.733 1.41-20.737 1.41-9.011 0-21.96-0.823-32.476-4.748 0 0-11.453-3.286-24.247-12.362-7.037-4.991-9.35-8.325-12.023-13.257-2.507-4.625-3.748-9.519-3.691-14.546 0.053-4.706 1.294-9.414 3.588-13.613 2.216-4.057 5.375-7.582 9.135-10.192l6.189-4.297-16.801-22.066 7.436-1.32c0.59-0.105 14.659-2.57 30.894-2.57 0.001 0 0 0 0 0 11.228 0 20.753 1.191 28.308 3.539 0.876 0.272 1.726 0.561 2.55 0.864l-0.257-0.197s24.704 7.55 37.113 26.424c2.889 4.395 3.748 9.518 3.691 14.545" fill="#fff"/><path d="m118.13 43.205c-0.15875 11.875-12.808 18.639-27.887 17.215 1.46 0.69625 9.4587 4.6718 16.42 11.123 9.945-2.1138 16.316-14.277 11.467-28.338zm-84.979 8.6367c-9.945 2.1138-16.314 14.273-11.469 28.338 0.15875-11.879 12.809-18.642 27.891-17.217-1.4625-0.69875-9.4594-4.6736-16.422-11.121z" transform="matrix(.8 0 0 -.8 68.681 336.08)" fill="#c4b581"/><path d="m91.416 5.7617c-26.849-0.1263-57.764 5.5863-58.861 27.117-0.83125 15.8 21.67 28.251 26.711 31.516 7.125 4.6075 30.853 16.965 28.529 28.867-2.07 10.591-17.225 12.719-17.225 12.719s15.59-8.4188 8.4609-20.549c-0.2125 0.29625-1.635 16.176-38.719 10.842l1.6074-19.5-28.977 38.057s80.224 14.243 93.008-18.104c7.67-19.404-20.264-33.885-26.054-37.699-5.643-3.715-29.195-15.975-27.998-27.629 2.198-21.4 63.752-23.933 63.752-23.933-6.7916-0.97-15.288-1.661-24.238-1.7031zm24.554 4.1934c-23.049 3.1659-35.318 6.6659-35.318 6.6659-3.7862 1.2138-40.963 11.173-7.502 34.088-0.7325-0.935-7.3449-8.5725-1.1074-15.281 0 0 6.7911-8.1398 30.215-8.166l13.71-17.307zm-92.933 16.088c-25.21 18.368-19.559 44.213-3.8457 55.123-8.48-21.89 1.8733-32.687 9.4258-34.137-8.5112-10.31-5.9438-19.558-5.5801-20.986zm97.583 16.176c8.4788 21.888-1.8745 32.69-9.4258 34.139 8.51 10.311 5.9419 19.557 5.5781 20.984 25.211-18.366 19.563-44.213 3.8476-55.123z" transform="matrix(.8 0 0 -.8 68.681 336.08)" fill="#043927"/></g></g></svg>