<?xml version="1.0" encoding="UTF-8" standalone="no"?>
<svg xmlns:rdf="http://www.w3.org/1999/02/22-rdf-syntax-ns#" xmlns="http://www.w3.org/2000/svg" xml:space="preserve" height="143.98" width="150" version="1.1" xmlns:cc="http://creativecommons.org/ns#" xmlns:dc="http://purl.org/dc/elements/1.1/" viewBox="0 0 150.0002 143.98126"><g><path fill="#003b70" d="m35.465 0.69091 9.2128 7.8413c1.3665 1.9909 1.6338 2.4473-1.3437 8.1314-1.6404 3.1336-3.6187 6.9156-4.1783 11.201l-4.8503 5.6601c-7.1362 8.3288-8.2751 15.512-9.185 21.278-0.60081 3.7815-1.0742 6.7705-3.074 9.636l-0.19108 0.28038-0.15644 0.30865c-2.983 5.92-8.098 8.267-12.204 10.152-3.3806 1.552-6.8704 3.151-7.5097 7.009l-0.93608 5.6476h5.7246 2.7564c-0.6891 0.638-0.8654 1.138-1.0215 2.065l-0.22549 1.6842h2.3976 52.777l-11.895 28.2c-2.362 5.9756-6.7097 7.4896-10.915 8.9504-3.708 1.2929-7.912 2.7571-8.5041 7.6665l-0.36355 3.0325h3.0509s5.9588 0.0198 5.9824 0.0139c-1.0013 0.76868-1.6762 1.7709-1.8499 3.2257h64.251c1.4254-0.18259 20.676 0.0959 26.249-14.132 0 0 18.702-45.357 18.702-45.369 0.58902-0.81874 1.9171-7.4592-0.55682-13.161-0.0383-3.6755-0.73315-7.3367-3.2719-10.833-3.5488-4.6976-8.7713-6.3002-16.217-6.0144l-26.772-0.02309s-0.18444-6.9625-4.3164-11.822c10.063 0.53896 15.315-4.0395 17.648-7.0407 3.4427-4.4266 4.4827-10.288 2.7656-15.218 0.45061-3.275 0.0534-6.6067-1.2425-9.59-2.203-5.0614-6.6136-8.2442-12.11-8.7421l-68.631-0.03175z"/><path d="m43.883 3.4277l0.002 0.002 1.707 1.5234 1.306 1.1407c0.466 0.6184 0.821 1.2001 1.086 1.7714 0.009 0.0177 0.019 0.0331 0.028 0.0508 0.683 1.4873 0.724 2.894 0.261 4.561-0.017 0.061-0.033 0.125-0.05 0.187-0.012 0.047-0.031 0.098-0.045 0.143-0.427 1.466-1.211 3.138-2.342 5.168-1.894 3.622-4.046 7.72-4.014 12.314v0.162l0.028 0.164c1.219 7.245 9.533 14.938 15.035 20.024 1.469 1.36 2.737 2.536 3.441 3.316 2.61 3.087 0.993 6.637 0.18 8.022-1.476 2.503-3.467 3.543-3.994 3.437l-0.2-0.037h-0.201c-2.527 0-4.924-1.339-6.25-3.492-1.823-2.966-1.523-7.177 0.842-11.86l1.065-2.093-2.229-0.75c-2.627-0.881-8.314-5.12-9.562-10.924l-0.86-4.008-2.664 3.109c-6.618 7.725-7.64 14.185-8.541 19.889-0.63 3.97-1.174 7.405-3.545 10.801l-0.082 0.119-0.064 0.129c-3.428 6.8-9.28 9.49-13.553 11.445-3.0775 1.414-5.5038 2.525-5.8985 4.904l-0.3965 2.362h2.3985 65.998c12.36 0.035 21.605-8.482 24.72-22.783 2.35-10.353-1.049-20.026-9.572-27.225 0 0-0.077-0.055-0.197-0.146l-0.014-0.014c-0.939-0.607-1.751-1.287-2.449-2.006-0.071-0.065-0.127-0.13-0.18-0.186 1.985 0.321 4.785 0.78 4.785 0.78 12.517 2.032 18.757-3.282 21.357-6.633 3.67-4.724 4.61-11.079 2.39-16.197-1.78-4.0853-5.37-6.7697-9.81-7.1703h-59.917zm43.394 17.791c1.367-0.05 2.958 0.185 4.717 0.709 1.367 0.497 2.042 2.12 1.877 3.322-0.271 2.006-3.42 3.833-4.504 4.316l-5.021 2.237c-2.18-2.792-2.718-5.967-1.752-8.026 0.754-1.605 2.405-2.475 4.683-2.558zm14.113 34.533v0.002s-0.02 1.738-0.09 4.017l-0.01 0.489 27.22 0.01c5.03-0.192 8.47 1.034 10.46 3.675 1.64 2.244 2.08 5.207 2.08 7.557 0 1.667-0.22 3.01-0.41 3.59-0.01 0.02-0.05 0.092-0.05 0.092s-18.79 45.576-18.82 45.656c-2.65 6.77-10.12 10.66-21.6 11.24 0 0-0.272 0.02-0.537 0.04h-53.252c3.846-1.15 9.393-4.86 11.334-9.76l-0.037 0.09 13.088-30.868h-3.737c-5.395 12.788-12.365 29.128-12.365 29.128-5.021 12.71-18.343 8.6-19.221 15.89h64.25c1.417-0.19 20.677 0.09 26.247-14.14 0 0 18.7-45.351 18.7-45.36 0.68-0.955 2.37-9.73-2.03-15.793-2.96-3.911-7.77-5.763-14.27-5.512l-26.95-0.043zm5.14 19.467v0.002c-1.79 0.048-4.47 0.884-5.98 5.002-8.285 20.357-13.447 34.167-14.599 34.867-3.204 3.73-7.436 5.53-14.914 6.06 0.321 0.03 23.489 1.12 28.803-11.44l12.56-29.005s2.51-5.542-4.03-5.26c0 0-0.76-0.255-1.84-0.226zm0 3.972c0.75-0.022 1.44 0.429 2.05 0.252-0.01 0-12.012 27.757-12.012 27.757-0.863 2.71-3.4 4.88-5.076 5.78 3.764-9.73 11.298-27.281 12.578-31.185 0.88-2.082 1.7-2.581 2.46-2.604z" transform="translate(-.00055695)" stroke="#0074c8" stroke-width=".47122" fill="#0074c8"/><path fill="#fff" d="m52.161 7.5753c1.505 3.9436-0.71145 8.4433-2.7288 12.287-1.7229 3.2957-3.5052 6.7007-3.5433 10.211 1.0868 5.8608 9.0041 13.184 13.755 17.579 1.6051 1.4873 2.874 2.6647 3.7457 3.6308 3.004 3.5518 3.2349 8.3225 0.61664 12.761-1.7317 2.9362-4.949 5.8116-8.0209 5.3933-3.8847-0.04418-7.5534-2.1105-9.5856-5.4209-1.3783-2.2383-3.087-6.9013-0.19786-13.902-3.0837-1.6846-6.7858-4.9702-8.8768-9.2496-3.9022 5.584-4.6691 10.373-5.4025 15.02-0.64204 4.0584-1.3088 8.2572-4.1507 12.383-3.7726 7.3718-9.8791 10.603-14.353 12.682h59.357c10.464 0.02945 18.02-7.1126 20.736-19.585 1.9997-8.8146-0.90288-17.053-8.1773-23.221-5.9991-3.9582-8.8215-10.996-6.4241-16.097 2.424-5.1599 8.7447-5.9555 15.071-3.7643 3.2189 1.1928 4.2726 4.978 3.9161 7.5284-0.21794 1.5668-1.0148 2.8909-1.9926 3.9806 5.2305-0.17376 9.4348-2.0517 12.112-5.4944 2.7302-3.5106 3.4776-8.363 1.8637-12.08-1.178-2.7206-3.4564-4.3682-6.4062-4.6333l0.005-0.00921c-0.54485 0.032396-51.314 0-51.314 0zm49.139 52.197c-0.10602 3.4192-0.5235 7.6533-0.93876 9.4703-3.1129 14.299-11.527 21.964-23.888 21.932l-5.7107 0.40956-13.064 30.804c-1.9524 4.8906-7.4842 8.588-11.325 9.7281h53.26c0.26506-0.0205 0.5338-0.0368 0.5338-0.0368 11.477-0.57725 18.947-4.4683 21.601-11.242 0.0265-0.0766 18.821-45.659 18.821-45.659s0.0405-0.06682 0.0552-0.08743c0.18554-0.58019 0.40956-1.9225 0.40956-3.5893 0-2.3532-0.44839-5.3118-2.08-7.556-1.9968-2.6388-5.4372-3.8635-10.464-3.6722l-27.225-0.0139 0.0139-0.48778zm5.2277 15.444h0.005c1.0754-0.02919 1.8361 0.22548 1.8361 0.22548 6.5471-0.27979 4.0358 5.2645 4.0358 5.2645l-12.569 29.004c-5.313 12.57-28.485 11.471-28.808 11.445 7.4778-0.53601 11.707-2.3441 14.914-6.0698 1.1515-0.6921 6.3139-14.506 14.601-34.863 1.5112-4.1194 4.1854-4.9579 5.9777-5.0067z"/></g></svg>
