<svg width="501" height="499" viewBox="0 0 501 499" fill="none" xmlns="http://www.w3.org/2000/svg">
<path d="M460.532 337.844C471.287 328.521 477.11 316.493 473.346 308.77C471.176 304.314 463.767 299.149 453.811 295.548C453.105 297.525 451.227 299.163 451.227 299.163C443.101 300.809 439.053 298.8 439.053 298.8C443.8 297.855 447.79 295.911 450.366 294.397C444.196 292.505 437.251 291.245 430.069 291.077C427.975 292.469 426.052 294.112 424.322 295.929C424.322 295.929 410.654 301.25 390.367 299.973C380.558 306.912 372.577 316.259 372.577 316.259C377.028 327.203 390.904 352.696 416.123 364.596C416.123 364.596 416.867 357.531 415.379 352.513C393.33 340.272 385.427 316.798 385.427 316.798C385.427 316.798 388.483 313.144 393.955 309.292C393.955 309.292 434.205 306.497 458.888 325.646C462.594 328.516 461.883 333.766 460.532 337.844Z" fill="#C6C5C5"/>
<path d="M314.507 332.719C320.462 331.817 326.122 330.135 326.122 330.135C306.696 317.208 267.39 307.795 267.39 307.795C289.947 309.028 305.988 313.076 305.988 313.076C301.494 303.397 290.361 284.016 249.682 266.916C249.682 266.916 256.758 261.23 272.311 254.624C264.276 255.771 243.452 259.819 224.206 272.263C224.206 272.263 274.637 284.657 290.057 304.671C290.057 304.671 280.532 300.392 265.488 295.416C259.103 297.114 242.933 301.949 227.73 311.191C227.73 311.191 258.029 312.062 285.072 320.549C285.072 320.549 272.758 320.36 256.33 320.531C247.562 325.249 239.921 331.07 239.921 331.07C264.373 327.726 286.155 330.39 300.123 333.189C300.123 333.189 293.841 338.138 289.78 340.909C289.78 340.909 322.398 348.359 355.109 336.603C353.27 340.451 349.422 345.305 349.422 345.305C349.422 345.305 363.725 344.422 372.778 341.02C369.85 336.432 367.021 331.791 364.672 327.194C340.586 337.879 314.507 332.719 314.507 332.719Z" fill="#C6C5C5"/>
<path d="M92.7777 189.505H95.2495C96.6161 189.505 97.7867 190.058 97.7867 191.618C97.7867 192.397 97.2994 193.145 96.5838 193.406L98.081 196.101H96.5838L95.4448 193.827H94.1128V196.101H92.7777V189.505ZM95.1196 198.084C97.8528 198.084 99.9664 195.971 99.9664 192.885C99.9664 189.831 97.8528 187.653 95.1196 187.653C92.388 187.653 90.3066 189.831 90.3066 192.885C90.3066 195.971 92.388 198.084 95.1196 198.084Z" fill="#C6C5C5"/>
<path d="M96.3564 191.683C96.3564 191.033 95.9989 190.61 95.0241 190.61H94.1123V192.788H94.9572C95.8374 192.788 96.3564 192.397 96.3564 191.683Z" fill="#C6C5C5"/>
<path d="M481.461 337.089C468.019 350.913 448.134 354.209 441.618 354.713C440.68 354.08 441.341 352.808 442.859 351.223C444.372 349.643 455.761 338.678 447.715 331.836C444.041 328.711 436.408 326.525 428.405 325.605C428.405 325.605 426.745 332.727 426.542 340.625C426.239 352.032 430.595 363.832 425.604 380.496C425.604 380.496 403.449 373.018 393.606 364.305C379.325 383.144 354.491 388.855 354.491 388.855C354.491 388.855 358.091 380.556 358.242 372.986C348.471 379.561 331.896 387.446 309.345 386.609C309.345 386.609 319.902 380.234 327.979 368.733C327.979 368.733 296.732 387.836 248.746 371.162C248.746 371.162 256.743 380.542 273.684 384.492C263.036 404.949 250.171 415.141 246.109 417.998C218.472 303.749 119.865 257.003 65.7457 240.035C86.1889 234.32 104.493 231.753 104.493 231.753C70.3916 212.595 37.1309 206.273 37.1309 206.273C52.613 203.926 76.2693 202.341 104.736 201.887C104.089 199.116 103.925 196.144 104.361 193.033L111.542 141.242L109.361 138.016C102.857 128.518 104.858 116.762 106.402 105.82C159.067 86.5319 215.155 75.9507 273.361 75.6424C331.346 75.3357 395.093 86.6512 447.785 105.893C449.023 118.129 450.849 131.516 441.385 141.287L445.333 181.705C448.992 182.794 452.642 183.921 456.295 185.034L461.697 236.192L417.053 244.92C437.939 253.892 454.624 264.508 465.101 276.996C465.101 276.996 463.684 279.439 461.553 280.638C506.635 297.29 495.619 322.822 481.461 337.089ZM439.05 344.49C437.702 345.824 434.755 349.25 434.21 351.2C433.451 345.664 433.478 339.795 434.308 334.099C436.916 334.508 441.256 335.094 442.837 337.521C443.871 339.105 440.394 343.155 439.05 344.49ZM95.1189 186.484C98.5038 186.484 101.269 189.083 101.269 192.885C101.269 196.688 98.5038 199.287 95.1189 199.287C91.7678 199.287 89.0024 196.688 89.0024 192.885C89.0024 189.083 91.7678 186.484 95.1189 186.484ZM492.221 290.602C487.651 285.715 481.463 281.392 473.326 277.555L474.188 276.198C465.144 264.307 452.82 254.922 439.466 247.408L469.067 241.621L462.547 179.869C458.905 178.759 455.261 177.646 451.619 176.536L448.394 143.492C458.035 131.23 455.535 115.327 454.085 100.993C394.468 78.7295 332.115 68.6965 273.361 69.007C214.818 69.3175 153.677 81.0673 100.28 100.884C99.5693 105.959 98.1013 115.585 98.0916 121.474C98.0766 128.092 99.3162 135.35 103.777 141.847L104.493 142.906C104.493 142.906 100.721 169.999 98.7854 183.992C97.7146 183.58 96.5546 183.346 95.3382 183.346C90.0386 183.346 85.7422 187.639 85.7422 192.932C85.7422 193.73 85.8458 194.503 86.0298 195.243C86.0283 195.243 86.0275 195.243 86.026 195.243C49.6049 197.091 13.5316 201.366 0 205.403C0 205.403 54.3889 216.363 83.612 229.569C83.612 229.569 56.8219 235.869 43.2888 239.64C43.2888 239.64 122.116 259.307 176.611 311.059C232.806 364.425 241.229 429.666 241.229 429.666C241.229 429.666 268.883 416.593 281.943 385.774C281.943 385.774 290.432 386.492 296.591 385.594L283.988 393.211C305.694 394.837 326.607 395.81 346.971 387.424L341.597 399.85C366.276 394.941 384.075 385.61 394.732 374.331C394.732 374.331 411.374 384.023 430.501 389.951C430.501 389.951 437.09 373.215 434.931 358.151C436.383 360.121 439.608 362.289 439.608 362.289C457.643 361.198 476.966 353.126 488.729 340.179C501.611 326.011 506.458 305.747 492.221 290.602Z" fill="#C6C5C5"/>
<path d="M393.441 280.612C394.005 281.284 394.89 281.745 395.921 281.848C397.17 281.963 398.346 281.483 399.183 280.723C394.915 272.94 389.62 273.335 389.62 273.335C387.616 274.578 385.819 277.075 385.403 279.523C384.482 285.072 389.668 290.041 397.006 290.722C400.792 291.037 404.414 290.141 407.113 288.47C406.082 288.025 405.594 288.006 404.02 286.721C402.68 287.341 401.131 287.605 399.46 287.47C395.515 287.115 392.712 284.402 393.208 281.413C393.256 281.149 393.337 280.895 393.441 280.612Z" fill="white"/>
<path d="M453.497 292.32C454.235 293.365 454.183 294.504 453.811 295.548C463.766 299.149 471.176 304.315 473.346 308.77C477.109 316.493 471.287 328.521 460.531 337.844C459.464 341.071 457.996 343.564 457.996 343.564C475.144 334.265 485.636 317.486 481.237 307.425C478.523 301.287 472.291 294.689 456.182 288.47C446.063 284.547 437.099 286.397 430.068 291.077C437.25 291.246 444.196 292.505 450.366 294.397C452.35 293.232 453.497 292.32 453.497 292.32Z" fill="white"/>
<path d="M260.702 239.263C260.702 239.263 282.256 246.205 296.223 266.038C296.223 266.038 287.82 260.664 272.311 254.625C256.759 261.23 249.683 266.917 249.683 266.917C290.361 284.016 301.495 303.397 305.989 313.076C305.989 313.076 289.947 309.029 267.391 307.796C267.391 307.796 306.697 317.208 326.122 330.136C326.122 330.136 320.463 331.817 314.507 332.719C314.507 332.719 340.587 337.879 364.673 327.194C363.309 324.524 362.106 321.87 361.146 319.251C357.833 318.702 353.904 318.236 353.904 318.236C353.904 318.236 359.822 309.167 374.88 297.771C367.257 296.1 359.105 293.37 350.666 289.182C350.666 289.182 364.524 290.674 379.206 291.04C377.188 288.213 375.835 284.616 375.788 280.817C355.201 265.708 336.215 254.472 336.215 254.472C336.215 254.472 353.891 258.139 377.118 264.836C375.993 260.634 373.082 256.18 373.082 256.18C373.082 256.18 386.693 254.171 398.985 265.327C410.182 275.518 414.799 280.919 428.787 280.38C432.416 278.633 436.239 277.477 440.167 276.93C427.364 257.771 333.914 222.463 260.702 239.263Z" fill="white"/>
<path d="M259.647 144.81C267.768 149.889 278.043 149.957 287.207 150.167C297.945 150.399 308.684 150.965 319.442 151.863L320.274 171.97C311.887 171.285 303.511 170.795 295.136 170.5L294.945 160.52C280.676 160.011 266.425 160.082 252.156 160.729L251.565 191.988C276.814 190.875 302.028 191.464 327.324 193.757C335.639 194.512 343.491 195.397 351.163 193.839C366.027 191.036 365.474 182.143 364.914 175.027L363.55 158.099C363.081 152.114 362.39 144.31 350.515 137.775C342.139 133.087 332.049 131.685 323.273 130.863C313.615 129.942 303.974 129.303 294.337 128.945L293.991 110.902C301.923 111.205 312.113 111.691 320.059 112.388L320.424 121.202C333.529 122.249 351.303 125.452 355.663 113.419C357.234 108.985 356.754 102.821 356.289 96.7278C333.725 92.8877 309.056 89.9476 286.67 89.4106C278.025 89.1849 267.493 89.4144 259.398 95.2143C252.383 100.262 252.026 105.67 251.698 111.171L251.345 128.523C251.46 134.31 251.755 140.029 259.647 144.81Z" fill="white"/>
<path d="M383.679 122.691L387.101 181.525C387.101 181.525 379.95 180.112 376.378 179.459L377.382 200.478C399.994 204.513 422.688 209.872 445.471 216.661L443.269 195.792C439.586 194.671 432.238 192.542 432.238 192.542L426.559 134.373C434.755 131.792 435.402 123.236 434.691 116.392C413.836 109.468 393.144 103.575 372.536 99.457L373.5 120.499C376.887 121.162 383.679 122.691 383.679 122.691Z" fill="white"/>
<path d="M222.067 189.31C232.692 182.991 232.912 175.255 233.16 168.578L235.156 112.295C243.951 106.314 245.765 97.1112 245.948 90.1623C228.706 91.2873 211.429 93.3903 194.067 96.4729L188.006 177.37C179.818 178.702 171.613 180.218 163.394 181.922L171.178 101.093C153.727 105.039 136.169 109.967 118.461 115.885C117.467 122.802 117.785 131.303 125.875 133.837L118.313 189.892C117.439 196.462 116.338 204.243 126.203 206.738C134.985 208.837 148.86 205.685 159.438 203.539C169.085 201.553 178.713 199.811 188.321 198.315C198.763 196.653 212.63 194.805 222.067 189.31Z" fill="white"/>
<path d="M396.592 322.815C401.035 331.325 406.821 337.224 415.293 342.518C415.293 342.518 414.311 336.319 414.826 330.43C415.416 323.546 411.298 320.703 407.558 320.439C408.394 323.188 407.506 326.457 407.506 326.457C404.327 322.907 396.592 322.815 396.592 322.815Z" fill="#DD1731"/>
<path d="M342.232 368.672C351.885 365.143 363.689 354.742 363.689 354.742C354.749 356.822 350.538 356.87 350.538 356.87C350.538 356.87 346.304 363.886 342.232 368.672Z" fill="#DD1731"/>
<path d="M369.932 369.814C379.49 364.254 382.427 350.235 382.427 350.235C376.348 353.012 371.291 353.636 371.291 353.636C372.403 363.546 369.932 369.814 369.932 369.814Z" fill="#DD1731"/>
<path d="M261.196 346.291C261.196 346.291 287.509 362.483 311.966 362.185C323.16 359.025 327.432 354.304 327.432 354.304C291.09 357.114 261.196 346.291 261.196 346.291Z" fill="#DD1731"/>
<path d="M211.323 229.709C195.36 239.541 182.943 252.943 182.943 252.943C182.943 252.943 212.335 234.385 271.119 225.599C250.856 225.699 230.905 227.129 211.323 229.709Z" fill="#DD1731"/>
<path d="M407.558 320.438C411.298 320.702 415.416 323.546 414.826 330.429C414.311 336.318 415.292 342.518 415.292 342.518C406.82 337.224 401.035 331.325 396.592 322.814C396.592 322.814 404.327 322.907 407.505 326.457C407.505 326.457 408.394 323.188 407.558 320.438ZM393.956 309.292C388.485 313.144 385.428 316.798 385.428 316.798C385.428 316.798 393.331 340.272 415.38 352.513C416.868 357.531 416.124 364.596 416.124 364.596C390.905 352.696 377.029 327.203 372.578 316.259C372.578 316.259 380.559 306.912 390.368 299.973C410.655 301.25 424.323 295.929 424.323 295.929C426.053 294.112 427.976 292.469 430.07 291.077C437.1 286.397 446.065 284.547 456.184 288.47C472.293 294.689 478.525 301.287 481.239 307.425C485.638 317.485 475.146 334.265 457.998 343.564C457.998 343.564 459.466 341.071 460.533 337.844C461.884 333.766 462.595 328.516 458.889 325.646C434.206 306.497 393.956 309.292 393.956 309.292ZM369.933 369.814C369.933 369.814 372.404 363.546 371.292 353.636C371.292 353.636 376.349 353.012 382.429 350.235C382.429 350.235 379.491 364.254 369.933 369.814ZM342.233 368.672C346.304 363.886 350.538 356.87 350.538 356.87C350.538 356.87 354.75 356.822 363.69 354.742C363.69 354.742 351.886 365.143 342.233 368.672ZM311.967 362.185C287.51 362.483 261.197 346.291 261.197 346.291C261.197 346.291 291.091 357.114 327.433 354.304C327.433 354.304 323.161 359.025 311.967 362.185ZM182.944 252.943C182.944 252.943 195.361 239.541 211.324 229.709C230.906 227.129 250.857 225.699 271.12 225.599C212.336 234.385 182.944 252.943 182.944 252.943ZM126.204 206.738C116.338 204.243 117.44 196.462 118.314 189.892L125.876 133.836C117.786 131.303 117.468 122.801 118.461 115.885C136.169 109.967 153.727 105.039 171.178 101.093L163.395 181.922C171.614 180.218 179.818 178.702 188.006 177.37L194.067 96.4727C211.43 93.3901 228.707 91.287 245.949 90.162C245.766 97.1109 243.952 106.314 235.157 112.294L233.16 168.578C232.912 175.254 232.692 182.991 222.068 189.31C212.631 194.805 198.763 196.652 188.322 198.315C178.713 199.811 169.086 201.553 159.438 203.539C148.86 205.685 134.985 208.837 126.204 206.738ZM251.699 111.171C252.027 105.67 252.384 100.262 259.398 95.2141C267.493 89.4142 278.026 89.1847 286.671 89.4105C309.056 89.9475 333.726 92.8876 356.29 96.7277C356.755 102.821 357.234 108.985 355.664 113.419C351.303 125.452 333.529 122.249 320.424 121.202L320.059 112.388C312.114 111.691 301.923 111.205 293.992 110.902L294.338 128.945C303.974 129.303 313.616 129.942 323.274 130.863C332.05 131.684 342.139 133.087 350.516 137.775C362.391 144.31 363.081 152.114 363.551 158.099L364.914 175.026C365.474 182.143 366.028 191.036 351.163 193.838C343.491 195.397 335.64 194.512 327.325 193.757C302.028 191.464 276.814 190.875 251.565 191.988L252.156 160.729C266.425 160.082 280.676 160.01 294.945 160.52L295.137 170.5C303.511 170.795 311.888 171.285 320.275 171.969L319.442 151.863C308.685 150.964 297.946 150.399 287.208 150.166C278.044 149.956 267.769 149.889 259.647 144.81C251.756 140.028 251.461 134.31 251.345 128.522L251.699 111.171ZM434.692 116.392C435.403 123.236 434.756 131.792 426.56 134.373L432.239 192.542C432.239 192.542 439.586 194.671 443.269 195.792L445.472 216.661C422.688 209.872 399.995 204.513 377.383 200.478L376.378 179.459C379.951 180.112 387.101 181.525 387.101 181.525L383.68 122.691C383.68 122.691 376.888 121.162 373.501 120.499L372.537 99.457C393.145 103.575 413.837 109.468 434.692 116.392ZM399.461 287.47C401.133 287.605 402.682 287.341 404.022 286.721C405.596 288.006 406.084 288.025 407.115 288.47C404.415 290.141 400.794 291.037 397.008 290.722C389.669 290.041 384.484 285.072 385.405 279.523C385.821 277.075 387.617 274.578 389.622 273.335C389.622 273.335 394.916 272.94 399.184 280.723C398.348 281.483 397.172 281.963 395.922 281.848C394.892 281.745 394.007 281.284 393.442 280.612C393.339 280.895 393.258 281.149 393.21 281.413C392.714 284.402 395.516 287.115 399.461 287.47ZM440.168 276.93C436.24 277.477 432.417 278.632 428.788 280.38C414.8 280.919 410.183 275.518 398.986 265.327C386.694 254.171 373.083 256.18 373.083 256.18C373.083 256.18 375.994 260.633 377.119 264.836C353.892 258.139 336.216 254.472 336.216 254.472C336.216 254.472 355.202 265.707 375.789 280.816C375.836 284.616 377.189 288.212 379.207 291.04C364.525 290.674 350.667 289.182 350.667 289.182C359.106 293.37 367.258 296.099 374.881 297.771C359.823 309.166 353.905 318.235 353.905 318.235C353.905 318.235 357.834 318.701 361.147 319.25C362.107 321.869 363.31 324.524 364.674 327.194C367.023 331.791 369.852 336.432 372.78 341.02C363.726 344.422 349.423 345.305 349.423 345.305C349.423 345.305 353.271 340.451 355.111 336.603C322.4 348.358 289.782 340.909 289.782 340.909C293.842 338.138 300.125 333.189 300.125 333.189C286.157 330.39 264.374 327.725 239.922 331.07C239.922 331.07 247.563 325.249 256.332 320.531C272.76 320.36 285.074 320.549 285.074 320.549C258.03 312.062 227.731 311.191 227.731 311.191C242.935 301.949 259.105 297.114 265.49 295.415C280.533 300.392 290.059 304.671 290.059 304.671C274.638 284.657 224.208 272.263 224.208 272.263C243.454 259.819 264.277 255.771 272.312 254.624C287.82 260.664 296.224 266.037 296.224 266.037C282.257 246.205 260.703 239.263 260.703 239.263C333.915 222.463 427.365 257.771 440.168 276.93ZM461.554 280.638C463.685 279.439 465.102 276.996 465.102 276.996C454.625 264.508 437.94 253.892 417.054 244.92L461.698 236.192L456.296 185.034C452.643 183.921 448.993 182.794 445.334 181.705L441.386 141.287C450.849 131.516 449.024 118.129 447.786 105.893C395.094 86.6512 331.347 75.3357 273.362 75.6424C215.156 75.9507 159.068 86.532 106.403 105.82C104.858 116.762 102.858 128.518 109.362 138.016L111.543 141.242L104.361 193.033C103.926 196.144 104.09 199.116 104.737 201.887C76.2703 202.341 52.6139 203.926 37.1318 206.273C37.1318 206.273 70.3925 212.595 104.494 231.753C104.494 231.753 86.1899 234.32 65.7466 240.035C119.866 257.003 218.473 303.749 246.11 417.998C250.172 415.141 263.037 404.949 273.685 384.492C256.744 380.542 248.746 371.162 248.746 371.162C296.732 387.836 327.98 368.733 327.98 368.733C319.902 380.234 309.346 386.609 309.346 386.609C331.897 387.446 348.472 379.561 358.243 372.986C358.092 380.556 354.492 388.855 354.492 388.855C354.492 388.855 379.326 383.144 393.607 364.305C403.45 373.018 425.605 380.496 425.605 380.496C430.596 363.832 426.24 352.032 426.543 340.625C426.746 332.727 428.406 325.605 428.406 325.605C436.409 326.525 444.042 328.711 447.716 331.836C455.762 338.678 444.373 349.643 442.86 351.224C441.342 352.808 440.681 354.08 441.619 354.713C448.135 354.209 468.02 350.913 481.462 337.089C495.619 322.822 506.636 297.291 461.554 280.638Z" fill="#0F2B53"/>
<path d="M453.498 292.32C453.498 292.32 452.351 293.232 450.367 294.397C447.791 295.911 443.801 297.855 439.054 298.8C439.054 298.8 443.102 300.809 451.227 299.163C451.227 299.163 453.105 297.525 453.812 295.548C454.184 294.504 454.236 293.365 453.498 292.32Z" fill="#0F2B53"/>
<path d="M94.9563 192.788C95.8363 192.788 96.3551 192.397 96.3551 191.683C96.3551 191.033 95.9977 190.61 95.0223 190.61H94.1116V192.788H94.9563ZM92.7765 189.505H95.2484C96.6149 189.505 97.7855 190.058 97.7855 191.618C97.7855 192.397 97.2982 193.145 96.5826 193.406L98.0798 196.101H96.5826L95.4436 193.827H94.1116V196.101H92.7765V189.505ZM99.9653 192.885C99.9653 189.831 97.8516 187.653 95.1185 187.653C92.3868 187.653 90.3054 189.831 90.3054 192.885C90.3054 195.972 92.3868 198.084 95.1185 198.084C97.8516 198.084 99.9653 195.972 99.9653 192.885ZM89.002 192.885C89.002 189.083 91.7674 186.484 95.1185 186.484C98.5033 186.484 101.269 189.083 101.269 192.885C101.269 196.688 98.5033 199.287 95.1185 199.287C91.7674 199.287 89.002 196.688 89.002 192.885Z" fill="#0F2B53"/>
</svg>
