<svg xmlns="http://www.w3.org/2000/svg" width="246.28" height="106.12">
  <g transform="matrix(1.3333 0 0 -1.3333 -554.46 441.79)">
    <path fill="#fff" d="M586.73 327.55c-.0896.0459-.2265.11678-.41912.2078-2.8686 1.3611-5.9743 2.1528-9.1446 2.3306l-136.48.008-21.244-44.603c-2.6735-5.4211-3.0962-11.679-1.1752-17.411 1.9919-5.6723 6.1924-10.299 11.647-12.827l.19157-.0931c3.1244-1.4257 6.4926-2.241 9.9232-2.4026h101.43c16.727 0 24.36.11677 30.068 2.8926 6.3324 3.1413 9.2437 7.3252 12.394 13.94l13.257 27.66c2.6792 5.4462 3.0926 11.732 1.1505 17.482-1.9912 5.6564-6.1729 10.275-11.605 12.816"/>
    <path fill="#d50032" d="M535.66 256.3c20.272 0 28.804-.15065 34.295 2.5222 5.4444 2.7024 7.8995 6.2594 10.779 12.298l13.25 27.653c4.737 9.949.88553 20.978-8.8525 25.619 0 0-.0995.0572-.28965.14818-2.483 1.1844-5.1738 1.8709-7.9207 2.0208h-133.99l-20.281-42.59c-4.7261-9.9056-.94903-20.872 8.8299-25.528l.17287-.0861c2.6421-1.2066 5.4885-1.9037 8.3896-2.0544z"/>
    <path fill="#fff" d="M563.52 321.18c-11.364.01129-16.424-.8602-19.503-2.3525-4.0967-2.0371-5.8023-4.5532-8.2896-9.7764l-14.776-30.995c-.75676-1.5548-1.1504-3.2616-1.1484-4.9907.00071-6.483 5.2562-11.74 11.739-11.741l15.892.02783c11.425-.0127 16.503.85133 19.585 2.3511 4.1002 2.0385 5.8052 4.5532 8.2925 9.7764l7.2803 15.306h-24.834l-5.7671-12.101c-.59059-1.2461-2.7832-1.5881-3.9873-1.4575-1.2038.13053-2.6887 1.3149-2.2559 2.3423l13.444 28.276c.59094 1.2489 2.7846 1.591 3.9873 1.4604 1.2023-.13054 2.6913-1.3153 2.2573-2.3423l-5.2661-11.108h24.832l3.498 7.314c3.461 7.2702.83685 15-6.252 18.376-2.0053.94163-4.1713 1.4964-6.3823 1.6333h-12.347zm-54.117-.28418-28.159-59.118 25.635-.00586 28.153 59.117-25.629.00732zm-63.066-.00879-18.678-39.277c-3.4663-7.274-.83538-15.007 6.2534-18.382 2.0032-.9455 4.1699-1.4973 6.3809-1.6274l12.573-.24903c11.102.01129 16.084.87643 19.126 2.3525 4.0967 2.0385 5.8052 4.5532 8.2925 9.7764l22.519 47.407h-24.834l-21.003-44.202c-.59306-1.2464-2.7875-1.5881-3.9902-1.4575-1.2027.13053-2.6888 1.3149-2.2588 2.3423l20.657 43.317h-25.039z"/>
    <path fill="#001e62" d="M563.1 318.24c-9.7429-.00247-14.901-.66685-17.761-2.0537-3.099-1.5357-4.4572-3.1876-6.9448-8.4009l-14.736-30.943c-.5987-1.2161-.90522-2.5546-.89502-3.9097.03598-4.808 3.9635-8.6756 8.7715-8.6396h15.189c10.544-.06209 16.013.60718 18.992 2.0522 3.0969 1.5372 4.4561 3.1876 6.9434 8.4023l5.2837 11.087h-18.321l-4.7373-9.9565c-1.3279-2.7871-5.3842-4.0281-8.2222-3.4834-2.8143.54331-5.1505 3.1144-3.8906 5.7671l13.545 28.479c1.3258 2.7882 5.378 4.0281 8.2148 3.4819 2.8143-.54084 5.153-3.1129 3.8936-5.7642l-3.5786-7.5645h18.306l2.6909 5.6367c3.3456 7.0242-.32292 13.984-8.1914 15.545-.62233.12172-1.2504.20811-1.8823.25781l-12.669.00586zm-51.829-.29151-25.354-53.219 19.099.04688 25.352 53.165-19.097.00732zm-63.031-.00732-17.916-37.588c-3.3442-7.0228.32397-13.979 8.1914-15.546.6234-.12313 1.2531-.20954 1.8867-.25928l12.205-.25781c9.949-.0148 15.189.65386 18.078 2.0552 3.0954 1.5372 4.4586 3.1876 6.9434 8.4023l20.52 43.194h-18.312l-19.976-42.056c-1.3297-2.7857-5.3838-4.0256-8.2192-3.4819-2.8143.53943-5.15 3.1094-3.8877 5.7671l18.946 39.771h-18.458z"/>
  </g>
</svg>